<svg width="300" height="300" viewBox="0 0 300 300" fill="none" xmlns="http://www.w3.org/2000/svg">
<g id="pebbles-logo-strokes">
<path id="pebble-outline" d="M33.7517 229.315C9.67725 185.334 54.4907 70.9319 97.1968 38.3711C165.435 -13.6562 285.545 125.404 271.268 201.792C256.775 279.333 72.8 300.652 33.7517 229.315Z" stroke="black" stroke-width="6"/>
<g id="creature">
<path id="creature-01-body" d="M74.2041 141.052C76.5829 137.475 82.4113 134.328 91.6891 131.611C99.9061 129.204 100.014 122.609 105.901 116.855C108.996 113.831 109.974 114.128 108.833 117.748C107.692 121.368 107.281 124.574 107.6 127.367C107.918 130.159 110.976 133.756 116.774 138.158C122.572 142.56 125.355 147.727 125.125 153.659C124.894 159.59 125.305 164.146 126.358 167.325C127.411 170.504 129.23 173.909 131.815 177.538C134.4 181.167 140.129 184.437 149.001 187.346C157.874 190.256 164.132 191.32 167.775 190.538C171.418 189.756 176.79 187.679 183.893 184.304C190.996 180.93 194.04 180.553 193.026 183.173C192.012 185.793 189.344 189.85 185.022 195.344C180.7 200.838 174.937 205.595 167.734 209.615C160.53 213.636 152.465 215.601 143.539 215.512C134.612 215.423 125.508 213.693 116.225 210.324C106.942 206.954 100.189 203.683 95.9653 200.512C91.7421 197.34 88.3287 194.022 85.7252 190.557C83.1216 187.093 81.3519 183.786 80.416 180.636C79.4802 177.486 79.2002 173.246 79.5763 167.916C79.9523 162.586 78.5562 157.671 75.388 153.169C72.2198 148.668 71.8252 144.629 74.2041 141.052Z" stroke="black" stroke-width="6" stroke-linecap="round" stroke-linejoin="round"/>
<path id="creature-02-ear" d="M118.574 136.342C126.178 133.767 132.122 133.005 136.406 134.057C140.69 135.109 142.019 137.25 140.392 140.479C138.765 143.707 135.903 146.017 131.805 147.408L125.66 149.494" stroke="black" stroke-width="6" stroke-linecap="round" stroke-linejoin="round"/>
<path id="creature-03-ear" d="M81.095 133.954C72.1056 129.484 66.5876 127.509 64.5412 128.03C62.4947 128.55 61.0455 129.852 60.1936 131.936C59.3417 134.019 60.9512 136.592 65.0222 139.654L71.1286 144.247" stroke="black" stroke-width="6" stroke-linecap="round" stroke-linejoin="round"/>
<path id="creature-04-left_eye" d="M91.9625 144.244L91.7332 144.893" stroke="black" stroke-width="5.8" stroke-linecap="round" stroke-linejoin="round"/>
<path id="creature-05-right_eye" d="M101.769 147.101L101.768 148.117" stroke="black" stroke-width="6" stroke-linecap="round" stroke-linejoin="round"/>
<path id="creature-06-smile" d="M75.5777 148.918C81.2588 154.236 86.4611 157.768 91.1845 159.513C95.9079 161.259 99.5589 162.149 102.137 162.183L106.005 162.235" stroke="black" stroke-width="6" stroke-linecap="round" stroke-linejoin="round"/>
<path id="creature-07-paw" d="M76.4487 177.218C68.5337 177.633 65.8592 178.991 68.4251 181.289C70.9911 183.588 71.6948 185.886 70.5362 188.184C69.3776 190.482 71.0465 190.957 75.5428 189.607L82.2872 187.584" stroke="black" stroke-width="6" stroke-linecap="round" stroke-linejoin="round"/>
<path id="creature-08-paw" d="M92.3359 197.692C80.3375 203.85 77.178 207.153 82.8574 207.602C88.5367 208.05 91.9081 210.119 92.9716 213.809C94.0351 217.499 95.5002 217.57 97.367 214.023L100.167 208.703" stroke="black" stroke-width="6" stroke-linecap="round" stroke-linejoin="round"/>
<path id="creature-09-paw" d="M151.594 218.343C155.054 227.533 157.28 230.553 158.27 227.402C159.261 224.251 161.134 223.063 163.888 223.837C166.643 224.612 167.027 223.159 165.041 219.478L162.062 213.957" stroke="black" stroke-width="6" stroke-linecap="round" stroke-linejoin="round"/>
<path id="creature-10-paw" d="M172.677 209.933C182.423 214.176 187.024 214.862 186.479 211.99C185.935 209.118 187.335 207.404 190.679 206.847C194.024 206.291 194.348 204.384 191.651 201.126L187.607 196.239" stroke="black" stroke-width="6" stroke-linecap="round" stroke-linejoin="round"/>
<path id="creature-11-crete" d="M128.332 161.253C135.158 162.454 137.879 165.164 136.494 169.384C135.11 173.604 135.411 174.442 137.396 171.898C139.382 169.354 141.169 168.02 142.757 167.896C144.345 167.771 145.253 169.987 145.482 174.541C145.71 179.096 147.21 180.013 149.983 177.293C152.755 174.573 154.53 174.985 155.306 178.529C156.083 182.073 156.921 182.208 157.82 178.933C158.719 175.658 159.811 173.43 161.096 172.25C162.381 171.069 164.007 170.793 165.973 171.42C167.94 172.048 168.859 173.501 168.73 175.78L168.5 179.5C168.5 179.5 173.283 174.547 176.5 175.78C180.298 177.235 178.5 186 178.5 186" stroke="black" stroke-width="6" stroke-linecap="round" stroke-linejoin="round"/>
<path id="creature-12-belly" d="M104.759 182.478C111.395 188.739 117.355 192.742 122.636 194.486C127.917 196.229 132.033 198.163 134.983 200.286C137.933 202.41 140.46 203.429 142.564 203.343L145.719 203.215" stroke="black" stroke-width="6" stroke-linecap="round" stroke-linejoin="round"/>
</g>
<path id="pebble-vein-1" d="M78.6968 56.3734C96.8562 54.0302 114.947 40.4956 137.197 46.871C159.8 53.3476 161.982 74.8625 182.197 86.871C203.858 99.7384 213.907 97.1339 243.197 107.873" stroke="black" stroke-width="6"/>
<path id="pebble-vein-2" d="M61.6968 84.3711C61.6968 84.3711 103.492 59.1446 127.697 65.3685C155.252 72.4542 150.961 88.3123 175.697 102.371C203.505 118.176 216.407 99.6317 245.697 110.371" stroke="black" stroke-width="6"/>
<path id="fossil" fill-rule="evenodd" clip-rule="evenodd" d="M218.697 170.979C223.169 164.634 231.949 160.8 239.66 162.136C239.862 162.171 240.064 162.195 240.39 162.245C240.651 162.286 241.01 162.347 241.291 162.45C242.062 162.735 242.833 163.009 243.613 163.281L243.654 163.295C244.639 163.686 245.411 164.073 246.314 164.569L246.313 164.57C246.497 164.669 246.689 164.751 246.947 164.867C247.188 164.977 247.481 165.113 247.763 165.294C252.531 168.35 255.891 172.79 258.505 177.585C258.755 178.045 258.965 178.533 259.151 178.979C259.344 179.44 259.51 179.851 259.697 180.228C262.025 184.934 262.935 190.017 261.794 195.262C261.568 196.299 261.127 197.479 260.832 198.387L260.654 198.937C259.742 201.683 258.503 204.311 256.963 206.762C253.604 212.189 248.022 217.847 241.453 219.506C238.057 220.363 233.491 219.682 230.505 217.822C226.474 215.355 223.377 211.615 221.707 207.194V207.191C221.134 205.66 220.858 204.478 220.716 202.842C220.667 202.268 220.742 201.645 220.78 201.214C220.821 200.739 220.821 200.449 220.773 200.252C220.762 200.233 220.74 200.197 220.701 200.142C220.62 200.027 220.507 199.886 220.377 199.732C220.115 199.422 219.83 199.119 219.664 198.939C214.211 193.009 212.197 184.413 215.546 176.829C215.942 175.932 216.439 174.551 217.005 173.506C217.478 172.631 218.065 171.758 218.697 170.979ZM224.061 202.541C224.135 203.798 224.373 204.993 224.862 206.149C225.049 206.59 225.256 206.945 225.52 207.477C225.993 208.432 226.562 209.397 227.213 210.107C227.789 210.736 228.316 211.331 228.871 211.752C228.986 211.839 229.115 211.922 229.289 212.028C229.433 212.116 229.617 212.229 229.798 212.357C231.247 213.224 232.215 213.665 233.83 214.101C234.489 214.279 235.001 214.449 235.531 214.531C236.017 214.605 236.554 214.591 237.11 214.525C235.477 213.163 234.174 211.446 233.304 209.5L233.134 209.089C232.76 208.111 232.533 207.006 232.307 206.215C232.296 206.175 232.275 206.123 232.226 206.01C232.185 205.915 232.113 205.752 232.06 205.573C232.039 205.502 232.026 205.434 232.016 205.376L231.995 205.371C230.858 205.011 229.769 204.738 228.574 204.389C227.412 204.05 226.223 203.658 225.061 203.102C224.706 202.932 224.373 202.734 224.061 202.541ZM238.529 204.315C238.341 204.344 237.699 204.499 237.013 204.692C236.681 204.785 236.359 204.881 236.102 204.967C235.97 205.011 235.876 205.046 235.813 205.071C235.829 205.747 236.061 206.605 236.468 207.531C236.946 208.617 237.597 209.657 238.145 210.367C238.426 210.732 239.1 211.561 239.8 212.304C240.152 212.677 240.493 213.009 240.782 213.247C240.926 213.366 241.041 213.448 241.125 213.497C241.142 213.508 241.158 213.515 241.169 213.521C241.258 213.521 241.436 213.497 241.723 213.387C242.046 213.263 242.416 213.068 242.812 212.827C243.641 212.325 244.345 211.78 244.946 211.378C244.948 211.377 244.951 211.375 244.954 211.373C244.896 211.353 244.839 211.331 244.783 211.308C244.201 211.064 243.695 210.688 243.318 210.416C242.16 209.581 241.179 208.713 240.346 207.405C240.083 206.992 239.826 206.548 239.603 206.087C239.507 205.888 239.405 205.63 239.318 205.419C239.223 205.188 239.129 204.968 239.028 204.77C238.925 204.568 238.834 204.428 238.759 204.342C238.744 204.324 238.729 204.312 238.719 204.303C238.681 204.301 238.62 204.301 238.529 204.315ZM244.015 200.86C243.405 201.325 242.533 202.037 241.959 202.606C242.015 202.794 242.069 202.975 242.119 203.138C242.224 203.482 242.329 203.791 242.463 204.089C242.92 205.112 243.621 205.95 244.463 206.804C245.165 207.515 246.044 208.307 246.817 209.164L247.141 209.536L247.262 209.68C247.656 209.335 248.033 208.982 248.38 208.619C249.173 207.792 249.905 206.789 250.637 205.787L250.668 205.744C250.449 205.695 250.249 205.625 250.088 205.563C249.973 205.518 249.861 205.47 249.766 205.431C249.666 205.389 249.585 205.356 249.511 205.328C248.708 205.025 247.753 204.608 246.971 203.984C246.667 203.741 246.338 203.383 246.039 203.043C245.883 202.866 245.721 202.678 245.561 202.492C245.4 202.305 245.24 202.117 245.081 201.936C244.758 201.568 244.46 201.249 244.2 201.015C244.127 200.95 244.066 200.899 244.015 200.86ZM249.487 196.497C248.768 196.225 248.103 196.095 247.429 196.19C247.291 196.373 247.098 196.662 246.888 197.025C246.702 197.346 246.539 197.663 246.421 197.911C246.663 198.389 247.049 198.948 247.521 199.515C248.102 200.212 248.753 200.856 249.278 201.291C249.554 201.52 249.844 201.703 250.231 201.972C250.497 202.157 251.006 202.493 251.457 202.822C251.714 203.01 252.009 203.236 252.272 203.476C252.587 203.001 252.886 202.522 253.163 202.029C253.477 201.467 253.684 200.896 254.008 200.173C254.229 199.682 254.449 199.196 254.659 198.715C253.789 198.475 252.928 198.143 252.131 197.765C251.125 197.286 250.374 196.834 249.487 196.497ZM232.928 193.272C232.881 193.385 232.829 193.527 232.776 193.694C232.707 193.912 232.643 194.142 232.584 194.358C232.556 194.457 232.528 194.563 232.5 194.662L232.418 194.933L232.416 194.937C232.288 195.31 232.136 195.674 231.962 196.028L231.96 196.031C231.58 196.793 231.075 197.434 230.5 197.998C230.096 198.394 229.58 198.832 228.93 199.107C228.879 199.129 228.809 199.158 228.73 199.191C228.807 199.222 228.884 199.256 228.965 199.286C230.826 199.987 232.833 200.239 234.743 200.029L234.466 199.852L234.705 199.117C235.444 196.847 235.949 195.707 235.049 193.92C235.008 193.839 234.869 193.708 234.693 193.653C234.472 193.583 233.964 193.439 233.472 193.346C233.263 193.306 233.077 193.283 232.928 193.272ZM238.183 181.157C236.994 180.74 235.688 180.803 234.545 181.333C233.466 181.846 232.494 182.642 232.184 183.517C231.855 184.446 231.955 185.657 232.404 186.586C232.744 187.291 233.417 187.813 234.28 188.111C234.881 188.317 235.446 188.281 236.03 187.996C236.044 187.978 236.066 187.949 236.09 187.905C236.158 187.783 236.218 187.627 236.262 187.481C236.332 187.251 236.357 186.994 236.36 186.664C236.362 186.417 236.345 185.883 236.358 185.527L236.373 185.135L236.647 184.858C236.656 184.849 236.839 184.652 236.969 184.535C237.05 184.464 237.164 184.371 237.301 184.292C237.433 184.216 237.646 184.119 237.916 184.106L238.084 184.104C238.468 184.122 238.801 184.261 239.044 184.4C239.329 184.562 239.573 184.769 239.754 184.957C240.211 185.434 240.487 186.067 240.647 186.636C240.811 187.217 240.884 187.834 240.867 188.362C240.814 189.957 240.012 191.141 239.013 192.069C238.775 192.29 238.598 192.44 238.445 192.62C238.347 192.736 238.316 192.8 238.308 192.82C238.31 192.836 238.315 192.881 238.336 192.958C238.363 193.06 238.407 193.183 238.467 193.33C238.528 193.479 238.593 193.626 238.666 193.79C238.733 193.944 238.809 194.122 238.869 194.29C239.438 195.893 239.156 197.667 238.246 199.039C239.706 198.33 240.975 197.262 241.894 195.82C243.467 193.351 244.003 190.167 243.389 187.348C242.781 184.551 241.066 182.184 238.183 181.157ZM228.591 190.421C228.367 190.536 228.138 190.664 227.899 190.804C227.486 191.045 227.011 191.336 226.532 191.583C225.934 191.892 225.331 192.074 224.772 192.223C223.467 192.57 222.232 192.671 220.927 192.331C222.15 194.383 223.691 196.177 225.603 197.575L226.078 197.908L226.095 197.919C226.143 197.953 226.21 197.986 226.311 198.031C226.362 197.599 226.575 197.306 226.678 197.163C226.956 196.78 227.356 196.409 227.547 196.208C227.905 195.834 228.245 195.412 228.486 195.011C228.709 194.639 229.04 193.901 229.34 193.091C229.544 192.543 229.708 192.02 229.813 191.612C229.565 191.384 229.336 191.154 229.129 190.946C228.939 190.755 228.765 190.581 228.591 190.421ZM252.716 188.841C251.742 188.789 250.647 189.053 249.588 189.415C249.439 189.466 249.287 189.511 249.167 189.546C249.037 189.584 248.934 189.615 248.84 189.649C248.8 189.664 248.764 189.678 248.733 189.692C248.678 190.037 248.609 190.568 248.555 191.127C248.518 191.521 248.491 191.902 248.483 192.206C248.481 192.268 248.484 192.325 248.484 192.377C248.659 192.439 248.859 192.477 249.227 192.575C249.845 192.741 250.59 192.936 251.269 193.217C251.854 193.459 252.842 193.993 253.746 194.574C254.203 194.867 254.66 195.186 255.047 195.501C255.254 195.669 255.468 195.857 255.657 196.058C255.676 195.991 255.697 195.924 255.715 195.857C255.899 195.176 255.976 194.541 256.13 193.724C256.256 193.06 256.382 192.585 256.446 192.041C256.547 191.175 256.613 190.301 256.628 189.438C256.272 189.504 255.904 189.479 255.609 189.442C255.238 189.394 254.841 189.306 254.476 189.219C254.081 189.125 253.767 189.042 253.429 188.965C253.1 188.89 252.867 188.849 252.716 188.841ZM218.932 181.523C218.585 183.585 218.577 185.747 219.036 187.725C219.107 187.96 219.2 188.2 219.313 188.471C219.399 188.677 219.5 188.915 219.595 189.158C220.117 189.089 220.627 189.075 221.082 189.066C221.561 189.056 221.977 189.049 222.388 189.003C223.067 188.927 224.002 188.649 224.893 188.227C225.799 187.798 226.523 187.283 226.887 186.812C227.055 186.595 227.114 186.409 227.108 186.232L227.101 186.157C227.052 185.799 226.983 185.416 226.897 185.072C226.564 184.929 226.178 184.904 225.499 184.855C224.306 184.769 223.219 184.566 222.204 184.123C221.179 183.677 220.277 183.009 219.423 182.057C219.322 181.943 219.118 181.735 218.932 181.523ZM254.221 179.597C253.862 179.815 253.451 179.948 253.132 180.038C252.695 180.163 252.486 180.202 252.202 180.291C250.296 180.894 248.462 181.945 247.437 183.477C247.509 183.782 247.638 184.246 247.804 184.736C247.919 185.074 248.04 185.39 248.15 185.633C248.163 185.662 248.177 185.689 248.189 185.714C248.397 185.685 248.617 185.635 248.88 185.569C249.155 185.499 249.499 185.406 249.846 185.345C250.838 185.172 252.047 185.06 253.24 185.165C254.278 185.257 255.377 185.522 256.306 186.119C256.259 185.936 256.206 185.736 256.165 185.542C255.97 184.636 255.9 183.995 255.683 183.257C255.526 182.724 255.306 182.21 255.067 181.604C254.802 180.932 254.521 180.26 254.221 179.597ZM223.661 171.792C223.453 172.035 223.251 172.285 223.054 172.542C222.858 172.799 222.572 173.126 222.38 173.358C222.156 173.63 222 173.843 221.915 174.007C221.106 175.569 220.367 177.068 219.864 178.658C220.317 178.8 220.715 179.046 221.022 179.252C221.384 179.495 221.584 179.652 221.838 179.803C223.004 180.498 224.25 181.12 225.376 181.213C225.776 181.246 226.182 181.208 226.713 181.168C227.114 181.138 227.356 181.129 227.546 181.094C227.728 180.836 227.958 180.459 228.195 180.026C228.33 179.778 228.458 179.526 228.574 179.293C228.183 179.012 227.828 178.714 227.481 178.41C225.876 177.009 224.578 175.35 223.975 173.134C223.905 172.876 223.756 172.339 223.661 171.792ZM247.803 171.292C247.714 171.442 247.603 171.589 247.496 171.719C247.28 171.982 247.004 172.269 246.741 172.532C246.475 172.796 246.196 173.062 245.976 173.274C245.855 173.391 245.761 173.483 245.691 173.553L245.554 173.697C245.108 174.234 244.54 175.082 244.085 175.978C243.698 176.738 243.446 177.435 243.364 177.958C243.441 178.045 243.53 178.137 243.631 178.237C243.804 178.407 244.095 178.679 244.301 178.892C244.766 179.372 245.004 179.683 245.368 180.003C245.497 179.916 245.647 179.811 245.807 179.688C246.17 179.41 246.707 178.967 246.963 178.793C247.721 178.281 248.982 177.564 250.289 177.132C250.942 176.916 251.653 176.757 252.343 176.752C252.48 176.751 252.62 176.758 252.759 176.771C252.369 176.122 251.948 175.503 251.491 174.926C250.374 173.517 249.189 172.234 247.892 171.119C247.858 171.192 247.828 171.252 247.803 171.292ZM233.758 166.528C232.04 166.697 230.347 167.125 228.74 167.828C228.554 167.91 228.375 168.019 228.159 168.162C227.964 168.292 227.692 168.484 227.42 168.64L227.415 168.642C226.885 168.942 226.381 169.277 225.903 169.644L225.953 169.769C225.963 169.781 225.982 169.803 226.014 169.837C226.071 169.897 226.246 170.068 226.383 170.303L226.44 170.408L226.612 170.792C226.664 170.918 226.71 171.04 226.754 171.155C226.845 171.397 226.915 171.593 226.997 171.785C227.166 172.185 227.398 172.596 227.653 173.033C227.937 173.519 228.64 174.395 229.457 175.226C229.857 175.633 230.265 176.01 230.637 176.305C230.985 176.58 231.252 176.741 231.423 176.817C231.468 176.805 231.533 176.792 231.619 176.765C231.794 176.71 232.006 176.635 232.226 176.551C232.596 176.411 232.953 176.256 233.171 176.157C233.123 175.914 233.058 175.681 232.984 175.434L232.697 174.472C232.627 174.217 232.569 173.961 232.518 173.74C232.465 173.509 232.417 173.306 232.359 173.112L232.327 173.004L232.319 172.894C232.277 172.28 232.263 171.63 232.334 170.968C232.412 170.234 232.599 169.313 232.888 168.432C233.1 167.787 233.385 167.106 233.758 166.528ZM236.837 166.494C236.865 167.445 236.564 168.329 236.374 168.966C235.821 170.813 235.684 172.468 236.309 174.152C236.513 174.702 236.673 175.119 236.887 175.44C237.268 175.56 237.93 175.745 238.61 175.899C239.04 175.996 239.448 176.074 239.767 176.116C239.81 176.121 239.85 176.123 239.887 176.127C239.935 176.014 239.983 175.891 240.027 175.77C240.066 175.665 240.116 175.524 240.153 175.434C240.673 174.16 241.41 172.878 242.301 171.797C242.471 171.591 242.648 171.402 242.806 171.234C242.971 171.059 243.112 170.91 243.246 170.755L243.464 170.504L243.776 170.435C243.781 170.432 243.79 170.428 243.798 170.422C243.826 170.404 243.856 170.382 243.906 170.346C243.95 170.314 244.015 170.267 244.084 170.221C244.381 170.024 244.855 169.696 245.372 169.494C245.446 169.466 245.524 169.438 245.604 169.413C244.541 168.735 243.403 168.159 242.175 167.705L242.164 167.701C240.444 167.041 238.646 166.632 236.837 166.494Z" fill="black"/>
</g>
</svg>
