<svg width="200" height="240" viewBox="0 0 200 240" fill="none" xmlns="http://www.w3.org/2000/svg">
<path d="M53.0915 184.192C52.0035 184.192 51.0222 183.947 50.1475 183.456C49.2942 182.944 48.6435 182.187 48.1955 181.184L48.7715 180.288C49.2195 181.056 49.7848 181.643 50.4675 182.048C51.1715 182.432 51.9608 182.624 52.8355 182.624C53.7742 182.624 54.5955 182.4 55.2995 181.952C56.0248 181.504 56.5902 180.885 56.9955 180.096C57.4008 179.285 57.6035 178.347 57.6035 177.28C57.6035 176.32 57.4328 175.456 57.0915 174.688C56.7502 173.92 56.2595 173.312 55.6195 172.864C54.9795 172.416 54.2008 172.192 53.2835 172.192C52.5155 172.192 51.7262 172.395 50.9155 172.8C50.1048 173.205 49.4115 173.931 48.8355 174.976L47.9395 174.336C48.6648 173.077 49.5075 172.139 50.4675 171.52C51.4488 170.901 52.5688 170.592 53.8275 170.592C55.0648 170.592 56.1422 170.869 57.0595 171.424C57.9768 171.979 58.6808 172.747 59.1715 173.728C59.6835 174.688 59.9395 175.797 59.9395 177.056C59.9395 178.4 59.6408 179.616 59.0435 180.704C58.4462 181.771 57.6248 182.624 56.5795 183.264C55.5555 183.883 54.3928 184.192 53.0915 184.192ZM46.8835 193.248V170.944L48.6435 170.56L49.0275 173.504V192.896L46.8835 193.248ZM70.7978 184.288C69.5391 184.288 68.4298 184.032 67.4698 183.52C66.5098 182.987 65.7524 182.24 65.1978 181.28C64.6644 180.299 64.3978 179.147 64.3978 177.824C64.3978 176.352 64.6964 175.072 65.2938 173.984C65.9124 172.875 66.7338 172.021 67.7578 171.424C68.8031 170.805 69.9764 170.496 71.2778 170.496C72.8564 170.496 74.0404 170.944 74.8298 171.84C75.6191 172.736 76.0138 173.963 76.0138 175.52C76.0138 175.691 76.0031 175.883 75.9818 176.096C75.9818 176.288 75.9711 176.469 75.9498 176.64H74.0618V175.52C74.0618 174.368 73.8271 173.504 73.3578 172.928C72.8884 172.331 72.1524 172.032 71.1498 172.032C70.2111 172.032 69.3898 172.267 68.6858 172.736C67.9818 173.184 67.4378 173.813 67.0538 174.624C66.6698 175.435 66.4778 176.405 66.4778 177.536C66.4778 179.072 66.9151 180.299 67.7898 181.216C68.6644 182.112 69.8058 182.56 71.2138 182.56C71.9391 182.56 72.6324 182.432 73.2938 182.176C73.9551 181.92 74.5951 181.504 75.2138 180.928L76.0138 182.112C75.4378 182.645 74.8511 183.072 74.2538 183.392C73.6778 183.712 73.1018 183.936 72.5258 184.064C71.9498 184.213 71.3738 184.288 70.7978 184.288ZM65.6138 176.64L65.9018 175.264H75.6618V176.64H65.6138ZM87.0555 184.192C85.9888 184.192 84.9542 184.053 83.9515 183.776C82.9702 183.477 82.2342 183.072 81.7435 182.56L83.8875 181.408C84.3142 181.835 84.8688 182.165 85.5515 182.4C86.2555 182.613 86.9702 182.72 87.6955 182.72C88.6982 182.72 89.5408 182.496 90.2235 182.048C90.9062 181.579 91.4182 180.96 91.7595 180.192C92.1008 179.403 92.2715 178.528 92.2715 177.568C92.2715 176.459 92.0902 175.509 91.7275 174.72C91.3648 173.909 90.8635 173.291 90.2235 172.864C89.5835 172.437 88.8262 172.224 87.9515 172.224C87.1622 172.224 86.3408 172.469 85.4875 172.96C84.6342 173.451 83.9195 174.229 83.3435 175.296L82.5755 174.272C83.0662 173.525 83.6208 172.875 84.2395 172.32C84.8795 171.765 85.5728 171.339 86.3195 171.04C87.0662 170.72 87.8768 170.56 88.7515 170.56C89.5835 170.56 90.3515 170.709 91.0555 171.008C91.7595 171.285 92.3782 171.701 92.9115 172.256C93.4448 172.811 93.8608 173.483 94.1595 174.272C94.4582 175.04 94.6075 175.925 94.6075 176.928C94.6075 178.208 94.3195 179.403 93.7435 180.512C93.1888 181.621 92.3462 182.517 91.2155 183.2C90.1062 183.861 88.7195 184.192 87.0555 184.192ZM81.7435 182.56V161.44L83.8875 161.056V181.408L81.7435 182.56ZM105.531 184.192C104.464 184.192 103.429 184.053 102.427 183.776C101.445 183.477 100.709 183.072 100.219 182.56L102.363 181.408C102.789 181.835 103.344 182.165 104.027 182.4C104.731 182.613 105.445 182.72 106.171 182.72C107.173 182.72 108.016 182.496 108.699 182.048C109.381 181.579 109.893 180.96 110.235 180.192C110.576 179.403 110.747 178.528 110.747 177.568C110.747 176.459 110.565 175.509 110.203 174.72C109.84 173.909 109.339 173.291 108.699 172.864C108.059 172.437 107.301 172.224 106.427 172.224C105.637 172.224 104.816 172.469 103.963 172.96C103.109 173.451 102.395 174.229 101.819 175.296L101.051 174.272C101.541 173.525 102.096 172.875 102.715 172.32C103.355 171.765 104.048 171.339 104.795 171.04C105.541 170.72 106.352 170.56 107.227 170.56C108.059 170.56 108.827 170.709 109.531 171.008C110.235 171.285 110.853 171.701 111.387 172.256C111.92 172.811 112.336 173.483 112.635 174.272C112.933 175.04 113.083 175.925 113.083 176.928C113.083 178.208 112.795 179.403 112.219 180.512C111.664 181.621 110.821 182.517 109.691 183.2C108.581 183.861 107.195 184.192 105.531 184.192ZM100.219 182.56V161.44L102.363 161.056V181.408L100.219 182.56ZM121.51 184.128C120.55 184.128 119.867 183.915 119.462 183.488C119.056 183.04 118.854 182.315 118.854 181.312V161.44L121.03 161.088V180.896C121.03 181.493 121.136 181.941 121.35 182.24C121.563 182.539 121.936 182.688 122.47 182.688C122.64 182.688 122.822 182.677 123.014 182.656C123.206 182.613 123.419 182.56 123.654 182.496L124.006 183.552C123.6 183.701 123.195 183.84 122.79 183.968C122.406 184.075 121.979 184.128 121.51 184.128ZM134.229 184.288C132.97 184.288 131.861 184.032 130.901 183.52C129.941 182.987 129.184 182.24 128.629 181.28C128.096 180.299 127.829 179.147 127.829 177.824C127.829 176.352 128.128 175.072 128.725 173.984C129.344 172.875 130.165 172.021 131.189 171.424C132.234 170.805 133.408 170.496 134.709 170.496C136.288 170.496 137.472 170.944 138.261 171.84C139.05 172.736 139.445 173.963 139.445 175.52C139.445 175.691 139.434 175.883 139.413 176.096C139.413 176.288 139.402 176.469 139.381 176.64H137.493V175.52C137.493 174.368 137.258 173.504 136.789 172.928C136.32 172.331 135.584 172.032 134.581 172.032C133.642 172.032 132.821 172.267 132.117 172.736C131.413 173.184 130.869 173.813 130.485 174.624C130.101 175.435 129.909 176.405 129.909 177.536C129.909 179.072 130.346 180.299 131.221 181.216C132.096 182.112 133.237 182.56 134.645 182.56C135.37 182.56 136.064 182.432 136.725 182.176C137.386 181.92 138.026 181.504 138.645 180.928L139.445 182.112C138.869 182.645 138.282 183.072 137.685 183.392C137.109 183.712 136.533 183.936 135.957 184.064C135.381 184.213 134.805 184.288 134.229 184.288ZM129.045 176.64L129.333 175.264H139.093V176.64H129.045ZM148.343 184.288C147.703 184.288 147.084 184.224 146.487 184.096C145.911 183.989 145.388 183.84 144.919 183.648C144.449 183.435 144.044 183.221 143.703 183.008L144.343 181.216C144.855 181.685 145.484 182.069 146.231 182.368C146.999 182.645 147.735 182.784 148.439 182.784C149.313 182.784 149.996 182.571 150.487 182.144C150.999 181.696 151.255 181.173 151.255 180.576C151.255 180.043 151.084 179.616 150.743 179.296C150.423 178.955 149.996 178.677 149.463 178.464C148.951 178.251 148.407 178.048 147.831 177.856C147.255 177.643 146.7 177.397 146.167 177.12C145.655 176.821 145.228 176.448 144.887 176C144.545 175.531 144.375 174.933 144.375 174.208C144.375 173.376 144.588 172.683 145.015 172.128C145.441 171.573 145.996 171.157 146.679 170.88C147.361 170.603 148.129 170.464 148.983 170.464C149.623 170.464 150.273 170.549 150.935 170.72C151.617 170.869 152.204 171.104 152.695 171.424L152.055 173.12C151.649 172.715 151.137 172.416 150.519 172.224C149.9 172.011 149.345 171.904 148.855 171.904C148.065 171.904 147.447 172.085 146.999 172.448C146.572 172.811 146.359 173.259 146.359 173.792C146.359 174.283 146.529 174.688 146.871 175.008C147.212 175.328 147.639 175.595 148.151 175.808C148.684 176 149.239 176.203 149.815 176.416C150.412 176.629 150.967 176.885 151.479 177.184C152.012 177.461 152.449 177.845 152.791 178.336C153.132 178.805 153.303 179.413 153.303 180.16C153.303 180.715 153.185 181.248 152.951 181.76C152.737 182.251 152.417 182.688 151.991 183.072C151.564 183.456 151.041 183.755 150.423 183.968C149.804 184.181 149.111 184.288 148.343 184.288Z" fill="#C07A7A"/>
<path d="M85.9592 108.54C86.4223 108.049 87.1953 108.027 87.686 108.489C89.6325 110.326 91.2779 111.397 92.6272 111.842C94.2837 112.389 95.6547 113.02 96.6847 113.761C97.4986 114.346 97.9845 114.464 98.2099 114.455L99.1622 114.416C99.8361 114.388 100.405 114.912 100.433 115.587L100.434 115.618C100.444 116.278 99.9253 116.83 99.2619 116.857L98.3096 116.896C97.265 116.938 96.2245 116.44 95.2573 115.744C94.5064 115.204 93.3925 114.667 91.8609 114.162C90.0219 113.555 88.0694 112.21 86.0092 110.266C85.5185 109.803 85.4962 109.03 85.9592 108.54Z" fill="#C07A7A"/>
<path d="M85.9458 97.4797C86.6202 97.4802 87.167 98.0272 87.1668 98.7018L87.1666 99.0085C87.1662 99.6725 86.6359 100.213 85.9757 100.229L85.9442 100.23C85.2696 100.229 84.7229 99.6821 84.7231 99.0075V98.7003C84.7237 98.0256 85.2714 97.4794 85.9458 97.4797Z" fill="#C07A7A"/>
<path d="M81.8612 97.4419C82.0806 96.8215 82.7618 96.4963 83.3821 96.7156C84.0025 96.935 84.3277 97.6161 84.1084 98.2364L84.1083 98.2366L84.0389 98.432C83.8194 99.0523 83.1387 99.3773 82.5184 99.1581C81.8981 98.9387 81.5728 98.2579 81.7922 97.6375L81.8611 97.4422L81.8612 97.4419Z" fill="#C07A7A"/>
<path fill-rule="evenodd" clip-rule="evenodd" d="M87.5663 87.8178C87.7392 87.7567 88.0779 87.668 88.4702 87.7874L88.5131 87.8011C88.9492 87.9494 89.2098 88.2816 89.3307 88.5859C89.4244 88.8222 89.4399 89.0463 89.438 89.2006L89.4364 89.2623C89.4233 89.5755 89.3368 89.9109 89.2425 90.2102C88.9328 91.1933 88.8478 91.9832 88.9189 92.6072L88.9211 92.6218C88.9369 92.7066 89.0252 92.9596 89.4002 93.4007C89.6471 93.691 89.9824 94.0211 90.4164 94.3909C90.4818 94.3538 90.5517 94.3223 90.6258 94.2972C92.986 93.4981 95.054 93.1764 96.6919 93.5785C97.4336 93.7606 98.2516 94.1059 98.7093 94.8431C99.2084 95.6471 99.0503 96.5125 98.7264 97.1879L98.6947 97.2527C98.0316 98.5681 96.8807 99.4496 95.4047 99.9505L94.2195 100.353C94.2219 100.477 94.221 100.602 94.2161 100.728C94.2017 101.1 94.1966 101.448 94.1997 101.774C95.2941 101.969 96.3113 102.319 96.9872 102.992C97.248 103.252 97.4538 103.557 97.5865 103.902C97.7882 103.827 98.0003 103.777 98.2223 103.759L98.2267 103.759L98.2989 103.755L98.3053 103.755C98.7085 103.743 99.087 103.875 99.394 104.121L99.4235 104.145L99.4785 104.193C99.7462 104.437 99.9093 104.733 100.013 104.987C100.177 105.387 100.271 105.871 100.322 106.395C100.386 106.356 100.451 106.319 100.517 106.285L100.58 106.255C100.9 106.104 101.329 105.99 101.805 106.101L101.872 106.118C102.041 106.164 102.192 106.234 102.325 106.319C102.52 105.963 102.75 105.646 103.027 105.391C103.803 104.679 104.778 104.584 105.697 104.877C106.155 105.023 106.587 105.286 106.903 105.702C107.093 105.562 107.406 105.388 107.817 105.387L107.864 105.388C108.308 105.402 108.644 105.616 108.861 105.846L108.904 105.894L108.906 105.897L108.908 105.899L108.943 105.94L108.948 105.946L109.048 106.08L109.05 106.082L109.052 106.085C109.562 106.789 109.854 107.661 109.998 108.62L109.998 108.62L110.041 108.906C110.097 108.879 110.154 108.853 110.211 108.826C111.273 108.321 112.203 107.952 112.882 107.867L112.954 107.859C113.125 107.843 113.328 107.839 113.54 107.878L113.54 107.878C113.785 107.923 114.123 108.042 114.398 108.344C114.948 108.952 114.757 109.68 114.651 109.975L114.631 110.028C114.341 110.778 113.741 111.74 112.903 112.88L114.018 114.227C114.26 114.519 114.477 114.831 114.627 115.157C114.769 115.466 114.892 115.878 114.826 116.335L114.819 116.38C114.627 117.51 113.568 117.841 112.984 117.938C112.85 117.96 112.762 117.986 112.708 118.007C112.71 118.021 112.713 118.038 112.716 118.057L112.725 118.104C112.765 118.346 112.772 118.66 112.649 118.987C112.508 119.365 112.239 119.641 111.928 119.809C111.435 120.074 110.88 120.05 110.493 119.998L110.418 119.988C109.55 119.859 108.338 119.427 106.862 118.784C106.743 118.732 106.637 118.664 106.545 118.583C106.514 118.6 106.484 118.618 106.453 118.635C106.183 118.786 105.909 118.927 105.632 119.06L106.12 119.964C106.289 120.278 106.433 120.59 106.526 120.888L106.542 120.939C106.617 121.195 106.694 121.574 106.599 121.977L106.588 122.019C106.522 122.269 106.387 122.527 106.156 122.739C105.929 122.948 105.671 123.054 105.444 123.103C105.033 123.192 104.638 123.112 104.366 123.036C104.333 123.027 104.307 123.021 104.287 123.018C104.259 123.064 104.214 123.15 104.166 123.302C104.107 123.49 104.007 123.743 103.822 123.973C103.62 124.223 103.264 124.5 102.756 124.52C102.295 124.539 101.95 124.333 101.761 124.188L101.761 124.188C101.563 124.035 101.408 123.851 101.289 123.69C100.84 123.081 100.36 122.008 99.8418 120.632C99.83 120.601 99.8198 120.569 99.8108 120.537C99.3931 120.563 98.9699 120.573 98.5415 120.569C95.6952 120.54 92.81 119.989 89.8919 118.93C88.6843 118.492 87.5985 118.052 86.6406 117.611C86.6221 117.68 86.5976 117.747 86.5663 117.814L86.5424 117.861L85.6975 119.467C85.5337 119.778 85.3379 120.092 85.0983 120.342C84.8815 120.568 84.4399 120.936 83.8026 120.905C83.1316 120.872 82.7284 120.427 82.5393 120.146C82.3407 119.85 82.2102 119.5 82.1155 119.172C82.0522 118.952 81.923 118.744 81.6442 118.57C81.3549 118.389 80.889 118.237 80.14 118.178C79.8916 118.158 79.6279 118.12 79.3797 118.043L79.3302 118.027C79.0901 117.947 78.7024 117.773 78.4367 117.378C78.1214 116.908 78.1493 116.396 78.286 116.024C78.4056 115.697 78.6143 115.443 78.7831 115.266L78.85 115.198C79.1945 114.857 79.6787 114.512 80.2344 114.166C80.4859 114.009 80.7644 113.844 81.0687 113.672C80.7275 113.306 80.4125 112.933 80.1253 112.55C80.0481 112.448 79.9735 112.345 79.9007 112.243L78.3795 112.7L78.3793 112.7C78.0075 112.811 77.6574 112.896 77.3421 112.941C77.0716 112.979 76.7187 113.005 76.3685 112.921L76.2985 112.903C76.0974 112.846 75.8518 112.736 75.6345 112.526C75.405 112.304 75.2664 112.026 75.2133 111.738C75.1199 111.23 75.305 110.79 75.426 110.55L75.4418 110.516C75.4542 110.486 75.4573 110.468 75.4581 110.46C75.459 110.45 75.4588 110.44 75.4519 110.417C75.4333 110.356 75.3539 110.189 75.0644 109.929C74.8205 109.711 74.3532 109.228 74.3744 108.516L74.3759 108.477C74.4183 107.678 75.0296 107.266 75.3516 107.102C75.7184 106.916 76.1633 106.807 76.6047 106.733C77.0006 106.667 77.4609 106.619 77.9783 106.586C77.9682 106.055 77.9852 105.491 78.0271 104.898C78.1202 103.579 77.7821 102.372 76.9824 101.236C76.4462 100.475 76.0754 99.6664 75.9706 98.8226C75.9676 98.8204 75.9645 98.8183 75.9615 98.816L74.118 97.4299C73.4539 96.9305 72.889 96.3987 72.5306 95.826C72.159 95.2322 71.9374 94.4598 72.2638 93.6617L72.2656 93.6578L72.2673 93.6537L72.3381 93.4932L72.3395 93.4898L72.3412 93.4865C72.7488 92.6181 73.4505 92.0046 74.4064 91.7614C74.8243 91.6553 75.2579 91.704 75.5977 91.7693C75.9674 91.8404 76.383 91.9638 76.8314 92.1242C77.7301 92.4457 78.874 92.9565 80.2479 93.6395C80.2514 93.6412 80.2548 93.6432 80.2582 93.6449C80.946 93.3642 81.7145 93.1013 82.5587 92.8541C82.8601 92.7659 83.1676 92.7997 83.4293 92.9252C83.5442 92.73 83.678 92.4811 83.8297 92.1711C84.4667 90.8695 85.3042 89.7106 86.3385 88.6999C86.5916 88.4526 86.8479 88.2261 87.0937 88.0616C87.2154 87.98 87.377 87.8848 87.5663 87.8178ZM103.329 119.938C102.989 120.037 102.643 120.125 102.294 120.2C102.437 120.567 102.569 120.884 102.688 121.155C102.782 121.07 102.884 120.992 102.994 120.922C103.222 120.778 103.461 120.683 103.702 120.628L103.329 119.938ZM86.4578 92.4498C86.3027 92.7067 86.1583 92.9717 86.0246 93.2449C85.725 93.8571 85.4319 94.378 85.1439 94.762C85.0012 94.9523 84.826 95.155 84.6153 95.3196C84.4242 95.4689 84.0826 95.6809 83.6279 95.6844L83.5837 95.6841L83.1315 95.6741C82.876 95.6683 82.641 95.5838 82.4484 95.4456C81.4714 95.7656 80.6805 96.0952 80.0628 96.4287C79.2724 96.8553 78.8457 97.2455 78.6415 97.5524C78.5188 97.7369 78.4451 97.9125 78.4098 98.0864C78.5774 98.1394 78.7364 98.2295 78.8736 98.3578C80.5276 99.9057 81.9603 100.853 83.1733 101.301C84.5684 101.817 85.5102 102.024 86.0726 102.032L87.24 102.047C87.904 102.056 88.4373 102.593 88.4453 103.253V103.285C88.4363 103.959 87.8822 104.499 87.2077 104.49L86.0399 104.475C85.0458 104.461 83.7829 104.131 82.3265 103.593C81.6446 103.341 80.9516 102.989 80.2475 102.545C80.4529 103.356 80.526 104.199 80.4646 105.069C80.3558 106.611 80.4478 107.724 80.6706 108.474C80.9008 109.249 81.3539 110.118 82.0788 111.082C82.7823 112.018 83.7246 112.941 84.9265 113.844C86.0543 114.69 87.9565 115.629 90.7257 116.633C93.4117 117.608 96.0234 118.1 98.5659 118.126C101.066 118.151 103.288 117.603 105.262 116.501C107.32 115.353 108.927 114.016 110.116 112.505C110.541 111.965 110.902 111.484 111.205 111.058C109.073 112.068 107.362 112.74 106.126 113.005C105.354 113.171 104.428 113.122 103.423 112.951C102.399 112.777 101.194 112.458 99.8219 112.008C97.1172 111.121 95.0458 110.036 94.0195 108.596C93.1903 107.432 92.5742 106.295 92.2078 105.189C91.8214 104.022 91.7028 102.474 91.7744 100.633C91.8249 99.3332 91.249 98.1243 89.7355 96.9754C88.8236 96.2831 88.0793 95.619 87.5385 94.9831C87.0156 94.3681 86.5796 93.6598 86.4911 92.8839C86.4748 92.7407 86.4639 92.5959 86.4578 92.4498ZM82.9676 115.416C82.5557 115.636 82.1929 115.839 81.8779 116.026C82.7474 116.296 83.4892 116.759 83.9844 117.475L84.3804 116.723C84.4216 116.645 84.4701 116.573 84.5247 116.508C84.1338 116.273 83.778 116.037 83.4594 115.797C83.2915 115.671 83.1277 115.544 82.9676 115.416ZM111.347 114.832C110.641 115.611 109.844 116.336 108.958 117.007C109.51 117.223 109.956 117.373 110.304 117.467C110.369 117.121 110.513 116.781 110.763 116.474C111.106 116.054 111.562 115.805 112.031 115.658L111.347 114.832ZM104.72 107.165C104.711 107.167 104.706 107.167 104.68 107.19C104.558 107.303 104.301 107.69 104.043 108.631C103.968 108.904 103.871 109.2 103.734 109.448C103.667 109.568 103.548 109.757 103.354 109.921L103.353 109.921C103.169 110.076 102.857 110.251 102.458 110.242C102.966 110.373 103.423 110.473 103.833 110.542C104.021 110.574 104.196 110.599 104.358 110.618C104.588 110.004 104.806 109.445 105.012 108.945C104.916 108.758 104.867 108.544 104.88 108.319L104.938 107.288C104.94 107.251 104.94 107.223 104.939 107.2C104.801 107.158 104.739 107.162 104.72 107.165ZM78.2844 109.015C77.9939 109.031 77.7361 109.052 77.5096 109.076C77.6251 109.272 77.7204 109.481 77.7883 109.702C77.8486 109.899 77.884 110.097 77.8963 110.294L78.6533 110.067C78.5259 109.768 78.4171 109.469 78.3283 109.17C78.3131 109.119 78.2985 109.067 78.2844 109.015ZM107.6 109.106C107.465 109.408 107.32 109.752 107.164 110.139C107.341 110.073 107.528 110.002 107.723 109.924L107.6 109.106ZM101.047 108.961C100.859 109.112 100.649 109.251 100.418 109.348C100.286 109.404 100.133 109.451 99.9669 109.476C100.164 109.546 100.37 109.617 100.583 109.687C101.029 109.833 101.448 109.961 101.842 110.074C101.668 109.977 101.544 109.857 101.464 109.767L101.439 109.737C101.305 109.577 101.22 109.408 101.167 109.286C101.122 109.185 101.082 109.075 101.047 108.961ZM97.8921 106.66C97.8219 106.739 97.7454 106.831 97.6626 106.937C97.5177 107.122 97.3297 107.348 97.1185 107.516L97.076 107.549C97.0186 107.592 96.8515 107.715 96.6055 107.787C97.0356 108.134 97.641 108.499 98.454 108.87C98.2677 108.632 98.162 108.375 98.0991 108.176C97.9897 107.829 97.9396 107.439 97.9198 107.044C97.9127 106.902 97.903 106.775 97.8921 106.66ZM94.5274 104.421C94.6583 104.816 94.8397 105.236 95.0757 105.682C95.1266 105.489 95.1914 105.275 95.2667 105.046C95.3221 104.877 95.3111 104.801 95.3087 104.788C95.3076 104.783 95.3064 104.779 95.3032 104.773C95.3003 104.768 95.2938 104.757 95.2795 104.741L95.2625 104.723C95.1676 104.629 94.9449 104.486 94.5052 104.351C94.5125 104.375 94.5199 104.398 94.5274 104.421ZM96.1091 95.9513C95.3349 95.7613 94.1763 95.8184 92.5549 96.2607C93.0224 96.788 93.3989 97.3538 93.6752 97.9574L94.6192 97.6369C95.6159 97.2987 96.1933 96.7866 96.5126 96.1532C96.5231 96.1324 96.5318 96.1131 96.5395 96.0959C96.4484 96.0523 96.3098 96.0006 96.1091 95.9513ZM74.9584 94.1435C74.8623 94.1736 74.7898 94.2148 74.7297 94.2692C74.6769 94.317 74.6242 94.3837 74.5738 94.4815C74.5813 94.4953 74.5906 94.5116 74.6022 94.5302C74.7296 94.7338 75.0221 95.0527 75.5868 95.4773L76.587 96.2294C76.5935 96.2194 76.6001 96.2093 76.6068 96.1992C76.8763 95.794 77.2277 95.4303 77.639 95.1013C76.9977 94.8095 76.4554 94.5849 76.0084 94.4249C75.6719 94.3046 75.4104 94.2282 75.2156 94.1851L75.1363 94.1686C75.0516 94.1523 74.9959 94.1462 74.9645 94.1439C74.9624 94.1437 74.9603 94.1436 74.9584 94.1435Z" fill="#C07A7A"/>
<path fill-rule="evenodd" clip-rule="evenodd" d="M121.462 106.415C122.935 104.333 125.807 103.078 128.35 103.518C128.413 103.529 128.454 103.533 128.574 103.552C128.653 103.564 128.795 103.587 128.917 103.632C129.037 103.676 129.157 103.72 129.278 103.763L129.641 103.891L129.642 103.891L129.644 103.892L129.657 103.896L129.662 103.898L129.666 103.9C129.991 104.029 130.246 104.157 130.537 104.316L130.545 104.321C130.587 104.343 130.631 104.361 130.714 104.399C130.791 104.434 130.901 104.485 131.01 104.555C132.568 105.553 133.655 106.997 134.49 108.528C134.577 108.688 134.648 108.854 134.707 108.995C134.77 109.145 134.817 109.262 134.87 109.369C135.627 110.899 135.929 112.568 135.554 114.295C135.478 114.641 135.33 115.042 135.243 115.306L135.188 115.478L135.187 115.479L135.187 115.481C134.893 116.367 134.493 117.215 133.996 118.005C132.921 119.742 131.111 121.595 128.936 122.144C127.789 122.434 126.268 122.207 125.257 121.578C123.931 120.767 122.913 119.538 122.364 118.084L122.343 118.03V118.028C122.179 117.578 122.091 117.209 122.043 116.734L122.034 116.634C122.015 116.419 122.043 116.187 122.053 116.068C122.06 115.998 122.062 115.949 122.062 115.914C122.062 115.913 122.061 115.911 122.061 115.91C122.045 115.889 122.025 115.864 122.001 115.835C121.924 115.744 121.841 115.656 121.785 115.596C120 113.655 119.327 110.824 120.436 108.314C120.545 108.067 120.721 107.589 120.905 107.248C121.062 106.959 121.254 106.672 121.462 106.415ZM123.796 117.073C123.831 117.226 123.879 117.375 123.941 117.521L123.961 117.567C124.009 117.671 124.057 117.754 124.14 117.921L124.195 118.029C124.325 118.278 124.469 118.507 124.621 118.673C124.812 118.881 124.954 119.041 125.1 119.152C125.122 119.169 125.151 119.187 125.205 119.22C125.247 119.246 125.308 119.283 125.37 119.326C125.772 119.567 126.041 119.692 126.461 119.811L126.548 119.835L126.548 119.836C126.584 119.845 126.618 119.855 126.649 119.864C126.394 119.548 126.179 119.199 126.012 118.826L126.01 118.822L126.008 118.818L125.955 118.689L125.953 118.685L125.952 118.681C125.829 118.361 125.746 117.973 125.685 117.758L125.672 117.726C125.666 117.713 125.655 117.687 125.642 117.655C125.345 117.566 125.063 117.494 124.727 117.396C124.426 117.308 124.111 117.207 123.796 117.073ZM127.844 117.414C127.765 117.434 127.662 117.46 127.55 117.492C127.511 117.503 127.473 117.514 127.436 117.525C127.465 117.648 127.513 117.792 127.583 117.951C127.722 118.267 127.913 118.571 128.071 118.776L128.154 118.881C128.257 119.008 128.412 119.192 128.57 119.36C128.671 119.466 128.763 119.556 128.837 119.619C128.912 119.589 129.008 119.539 129.122 119.471C129.209 119.418 129.288 119.366 129.362 119.314C129.323 119.287 129.289 119.262 129.259 119.241C128.878 118.965 128.536 118.666 128.245 118.209C128.168 118.089 128.092 117.959 128.022 117.822L127.993 117.763C127.958 117.689 127.92 117.595 127.896 117.536C127.878 117.491 127.86 117.451 127.844 117.414ZM129.644 116.403C129.554 116.476 129.461 116.554 129.377 116.629C129.406 116.722 129.433 116.799 129.464 116.869L129.488 116.919C129.609 117.168 129.79 117.386 130.029 117.628C130.209 117.811 130.474 118.054 130.706 118.301C130.74 118.268 130.773 118.235 130.805 118.201L130.849 118.156C130.983 118.01 131.114 117.846 131.246 117.671C130.99 117.573 130.668 117.431 130.394 117.212C130.304 117.14 130.214 117.048 130.136 116.962L130.061 116.879C130.011 116.822 129.959 116.761 129.909 116.703C129.858 116.643 129.809 116.586 129.76 116.531C129.719 116.484 129.68 116.441 129.644 116.403ZM130.908 114.826C130.887 114.859 130.863 114.897 130.839 114.939C130.817 114.977 130.797 115.014 130.778 115.05C130.837 115.144 130.915 115.249 131.007 115.36C131.178 115.565 131.368 115.753 131.517 115.877C131.59 115.937 131.658 115.979 131.795 116.074C131.866 116.124 132.034 116.235 132.177 116.338C132.205 116.291 132.233 116.244 132.259 116.197C132.349 116.036 132.398 115.894 132.512 115.639C132.532 115.594 132.552 115.55 132.572 115.505C132.401 115.444 132.234 115.374 132.076 115.299C131.744 115.141 131.559 115.027 131.318 114.93L131.269 114.911C131.13 114.858 131.013 114.831 130.908 114.826ZM126.379 114.027C126.371 114.056 126.361 114.093 126.352 114.126L126.351 114.129L126.317 114.242L126.313 114.249C126.27 114.371 126.22 114.491 126.162 114.608L126.149 114.634L126.147 114.637C126.011 114.902 125.835 115.123 125.641 115.312C125.628 115.326 125.613 115.339 125.598 115.353C125.868 115.409 126.141 115.435 126.41 115.429L126.439 115.34V115.34C126.562 114.963 126.645 114.735 126.674 114.523C126.696 114.356 126.682 114.205 126.595 114.01C126.545 113.996 126.474 113.976 126.398 113.959C126.392 113.981 126.386 114.004 126.379 114.027ZM124.763 113.101C124.657 113.163 124.519 113.247 124.379 113.322L124.319 113.354C124.101 113.467 123.884 113.531 123.703 113.579C123.487 113.637 123.27 113.676 123.05 113.686C123.318 114.041 123.625 114.357 123.974 114.626C124.051 114.523 124.152 114.419 124.215 114.356L124.265 114.306C124.366 114.2 124.457 114.086 124.517 113.986C124.571 113.895 124.667 113.685 124.76 113.436C124.793 113.345 124.823 113.257 124.848 113.178C124.82 113.15 124.793 113.123 124.768 113.098C124.766 113.099 124.764 113.1 124.763 113.101ZM127.726 110.098C127.431 109.995 127.107 110.011 126.823 110.143C126.512 110.291 126.302 110.492 126.247 110.647C126.175 110.85 126.194 111.143 126.303 111.367C126.363 111.493 126.496 111.61 126.71 111.684C126.786 111.71 126.853 111.715 126.925 111.697C126.926 111.696 126.926 111.694 126.927 111.693C126.936 111.664 126.943 111.618 126.944 111.526L126.942 111.367C126.942 111.295 126.941 111.215 126.943 111.16L126.952 110.914L127.125 110.74C127.127 110.738 127.129 110.735 127.132 110.733C127.139 110.725 127.148 110.715 127.16 110.703C127.18 110.682 127.212 110.651 127.241 110.625L127.241 110.625C127.275 110.594 127.329 110.55 127.398 110.51L127.398 110.51C127.464 110.472 127.581 110.417 127.733 110.41L127.739 110.41L127.745 110.41L127.806 110.409L127.816 110.409C128.003 110.418 128.157 110.485 128.259 110.543C128.365 110.604 128.455 110.677 128.524 110.745L128.553 110.774C128.747 110.976 128.852 111.23 128.91 111.434L128.921 111.474C128.973 111.675 128.997 111.885 128.991 112.072C128.97 112.686 128.658 113.132 128.308 113.457C128.273 113.489 128.247 113.513 128.227 113.532C128.24 113.563 128.255 113.597 128.273 113.638C128.289 113.675 128.309 113.721 128.328 113.769L128.345 113.817C128.435 114.07 128.468 114.333 128.452 114.591C128.554 114.482 128.648 114.363 128.731 114.233C129.179 113.53 129.333 112.616 129.158 111.811C128.986 111.02 128.51 110.377 127.726 110.098ZM132.378 112.528C132.134 112.515 131.836 112.582 131.515 112.692C131.486 112.702 131.456 112.711 131.43 112.719C131.421 112.793 131.411 112.875 131.403 112.96C131.399 113.002 131.396 113.043 131.393 113.082C131.581 113.132 131.83 113.198 132.062 113.293C132.269 113.379 132.596 113.558 132.889 113.745C132.965 113.794 133.043 113.846 133.118 113.9C133.129 113.836 133.141 113.765 133.156 113.686C133.201 113.45 133.233 113.337 133.252 113.18C133.27 113.026 133.284 112.871 133.294 112.718C133.283 112.717 133.273 112.716 133.263 112.714C133.129 112.697 132.99 112.666 132.874 112.638C132.739 112.606 132.655 112.584 132.548 112.559C132.446 112.536 132.396 112.529 132.378 112.528ZM122.031 110.61C122.013 111.01 122.042 111.408 122.126 111.779C122.144 111.835 122.167 111.896 122.2 111.974C122.2 111.975 122.2 111.975 122.2 111.976C122.293 111.97 122.38 111.968 122.457 111.967C122.612 111.963 122.726 111.961 122.838 111.949L122.871 111.945C123.041 111.92 123.284 111.848 123.525 111.734C123.79 111.608 123.965 111.473 124.035 111.382C124.031 111.352 124.026 111.322 124.021 111.292C123.974 111.288 123.912 111.283 123.827 111.276C123.432 111.248 123.052 111.179 122.689 111.021C122.452 110.918 122.234 110.781 122.031 110.61ZM132.612 109.753C132.539 109.774 132.484 109.788 132.44 109.799C132.395 109.811 132.364 109.819 132.329 109.83C131.818 109.992 131.361 110.252 131.082 110.594C131.101 110.663 131.125 110.741 131.152 110.822C131.157 110.836 131.162 110.851 131.167 110.865C131.243 110.845 131.341 110.82 131.44 110.803C131.769 110.746 132.177 110.707 132.587 110.744C132.748 110.758 132.918 110.785 133.089 110.83C133.071 110.736 133.053 110.649 133.023 110.549C132.979 110.4 132.919 110.259 132.839 110.057C132.795 109.946 132.75 109.836 132.703 109.726C132.67 109.736 132.639 109.746 132.612 109.753ZM123.115 107.553L123.115 107.554C123.046 107.638 123.015 107.682 123.005 107.701C122.8 108.099 122.616 108.47 122.474 108.848C122.53 108.88 122.58 108.912 122.621 108.94L122.706 108.998C122.777 109.047 122.808 109.071 122.862 109.104C123.228 109.321 123.564 109.48 123.837 109.503L123.873 109.505C123.957 109.508 124.051 109.5 124.207 109.488C124.249 109.485 124.283 109.483 124.31 109.481C124.342 109.43 124.377 109.369 124.413 109.303C124.362 109.261 124.312 109.218 124.264 109.176C123.773 108.747 123.35 108.229 123.121 107.546C123.119 107.548 123.117 107.551 123.115 107.553ZM130.929 107.121C130.868 107.189 130.803 107.257 130.742 107.317C130.656 107.402 130.565 107.489 130.498 107.553C130.462 107.588 130.435 107.615 130.415 107.635L130.384 107.668C130.261 107.817 130.098 108.06 129.967 108.318C129.893 108.464 129.84 108.594 129.807 108.699C129.858 108.748 129.931 108.818 129.98 108.869C130.035 108.926 130.081 108.976 130.12 109.02C130.218 108.942 130.345 108.842 130.412 108.796C130.665 108.625 131.088 108.384 131.534 108.237C131.632 108.204 131.737 108.174 131.847 108.151C131.819 108.114 131.791 108.077 131.762 108.041C131.497 107.706 131.221 107.398 130.929 107.121ZM125.902 105.613C125.592 105.68 125.288 105.778 124.994 105.906C124.962 105.921 124.924 105.942 124.86 105.985C124.809 106.019 124.708 106.09 124.61 106.146L124.591 106.157L124.59 106.157C124.531 106.191 124.473 106.226 124.417 106.263L124.423 106.275L124.429 106.286L124.434 106.297L124.488 106.418L124.49 106.422L124.492 106.426C124.51 106.471 124.526 106.513 124.54 106.549C124.571 106.632 124.589 106.683 124.611 106.735L124.629 106.775C124.672 106.869 124.729 106.97 124.799 107.091C124.869 107.211 125.069 107.464 125.318 107.717C125.438 107.839 125.556 107.947 125.659 108.029C125.694 108.057 125.724 108.079 125.749 108.096C125.78 108.085 125.814 108.072 125.85 108.059C125.861 108.055 125.872 108.05 125.883 108.046L125.807 107.793L125.806 107.789L125.805 107.786C125.781 107.698 125.761 107.61 125.746 107.543C125.729 107.47 125.716 107.416 125.701 107.366L125.701 107.366L125.681 107.299L125.676 107.229V107.228C125.662 107.026 125.657 106.801 125.681 106.569C125.708 106.316 125.772 106.005 125.87 105.707C125.88 105.676 125.891 105.645 125.902 105.613ZM127.699 105.546C127.664 105.76 127.603 105.944 127.567 106.064C127.405 106.607 127.377 107.051 127.54 107.491C127.582 107.603 127.612 107.681 127.639 107.739C127.749 107.771 127.891 107.809 128.036 107.841C128.081 107.851 128.124 107.86 128.164 107.869C128.338 107.448 128.582 107.023 128.881 106.661C128.942 106.588 129.004 106.522 129.053 106.469C129.107 106.412 129.146 106.371 129.183 106.328L129.183 106.327L129.32 106.17L129.422 106.148L129.459 106.14C129.472 106.13 129.49 106.118 129.508 106.106C129.338 106.02 129.162 105.943 128.979 105.876L128.975 105.875L128.969 105.872C128.557 105.714 128.13 105.604 127.699 105.546Z" fill="#C07A7A"/>
<path fill-rule="evenodd" clip-rule="evenodd" d="M82.8069 63.9824C88.5791 59.5825 95.4165 59.2789 102.177 61.5437C108.905 63.7979 115.651 68.6145 121.511 74.6378C127.379 80.6699 132.428 87.9843 135.731 95.3352C139.024 102.662 140.642 110.161 139.456 116.509C138.227 123.081 133.434 128.323 127.014 132.126C120.582 135.936 112.374 138.397 103.971 139.37C95.5663 140.344 86.8794 139.84 79.476 137.641C72.1451 135.464 65.9279 131.577 62.6251 125.66L62.5476 125.52C60.4845 121.752 59.9617 116.627 60.4359 111.058C60.9129 105.458 62.4126 99.2478 64.5627 93.1847C66.714 87.1182 69.5305 81.1592 72.6667 76.0588C75.7929 70.9746 79.282 66.6694 82.8069 63.9824ZM92.832 74.6749C91.1945 74.254 89.1635 74.3471 86.9525 74.7968C84.7579 75.2432 82.4849 76.02 80.4127 76.87C78.3449 77.7183 76.5046 78.6281 75.1805 79.3269C74.5194 79.6757 73.9888 79.971 73.6254 80.1778C73.4437 80.2813 73.3038 80.3624 73.2106 80.4171C73.1646 80.4442 73.13 80.4649 73.1061 80.4792L73.106 80.479L73.0811 80.494L73.0748 80.4979L72.9515 80.5724C70.6574 84.739 68.5933 89.3461 66.9339 94.0256C64.8356 99.9427 63.3971 105.937 62.9429 111.272C62.4859 116.638 63.0385 121.178 64.7545 124.312C67.6016 129.512 73.1616 133.142 80.1925 135.23C87.209 137.313 95.5451 137.814 103.681 136.871C111.819 135.928 119.67 133.552 125.731 129.961C131.803 126.365 135.936 121.643 136.983 116.046C138.037 110.405 136.623 103.457 133.436 96.3664C132.263 93.7545 130.856 91.1411 129.262 88.5889C125.25 87.241 122.343 87.7694 119.187 88.1707C115.819 88.5991 112.301 88.84 107.593 86.1646C103.472 83.823 101.723 81.2764 100.042 79.2447C99.2101 78.2386 98.4096 77.3716 97.3358 76.6196C96.2665 75.871 94.872 75.1994 92.832 74.6749ZM95.7812 68.8597C92.6282 67.9565 89.738 68.4444 86.8253 69.3203C85.3294 69.7701 83.958 70.2778 82.4439 70.7713C81.2213 71.1698 79.9657 71.5366 78.6878 71.7629C77.5887 73.164 76.5024 74.7077 75.4432 76.3665C76.6005 75.7914 77.9705 75.1526 79.4575 74.5427C81.6156 73.6574 84.048 72.8207 86.4509 72.3319C88.8373 71.8465 91.2964 71.6826 93.4583 72.2384C95.7436 72.8259 97.4249 73.6108 98.7788 74.5588C100.128 75.5034 101.098 76.5735 101.981 77.6413C103.732 79.7579 105.191 81.9062 108.836 83.9773L109.025 84.0831C110.964 85.1574 112.632 85.6513 114.185 85.8328C115.792 86.0207 117.29 85.8759 118.87 85.675C119.417 85.6055 119.978 85.5282 120.555 85.4568C120.501 85.4435 120.448 85.4301 120.395 85.4169C119.788 85.2662 119.199 85.1205 118.618 84.9701C115.755 84.229 113.146 83.3855 109.613 81.2872C106.184 79.2507 104.268 76.3804 102.474 74.0425C100.66 71.6778 98.9236 69.76 95.7812 68.8597ZM101.377 63.9292C95.1823 61.8537 89.2721 62.2178 84.3324 65.983C83.4397 66.6636 82.5367 67.4707 81.6316 68.3901C81.6425 68.3865 81.6535 68.3831 81.6644 68.3796C83.0373 67.932 84.5907 67.365 86.1006 66.9109C89.1992 65.9791 92.6418 65.3437 96.4739 66.4415C100.428 67.5741 102.582 70.0492 104.471 72.5116C106.381 75.0015 107.981 77.392 110.898 79.1245C114.165 81.0649 116.534 81.8319 119.248 82.5345C121.28 83.0606 123.554 83.5602 126.495 84.48C124.426 81.6214 122.14 78.8925 119.707 76.3918C114.022 70.5473 107.604 66.0153 101.377 63.9292Z" fill="#C07A7A"/>
</svg>
