<svg width="335" height="400" viewBox="0 0 335 400" fill="none" xmlns="http://www.w3.org/2000/svg">
<path fill-rule="evenodd" clip-rule="evenodd" d="M61.7568 21.1192C69.6811 19.7521 77.8089 19.847 84.6445 20.3008C94.0955 20.9283 101.107 24.7547 102.613 25.5518C104.793 26.7052 106.733 27.9297 108.288 28.9756C114.858 26.955 122.565 26.2419 131.302 28.1319L132.488 28.4034L134.271 28.8399C171.792 38.1892 214.684 58.5779 248.978 80.4707C266.559 91.6949 283.186 104.137 296.352 116.855C307.828 127.941 323.021 145.12 327.101 166.3C328.312 172.588 328.019 178.312 327.816 181.2C327.564 184.79 327.07 188.449 326.512 191.858C325.389 198.716 323.657 206.661 321.616 214.942C317.507 231.616 311.611 251.797 305.071 271.559C298.561 291.232 291.118 311.388 283.793 327.767C280.167 335.874 276.182 343.935 271.964 350.825C269.855 354.269 267.285 358.088 264.243 361.71C261.534 364.935 256.667 370.185 249.52 374.228C225.129 388.023 203.213 373.414 199.777 371.178C194.067 367.461 187.089 361.453 184.127 359.04C175.611 352.102 167.266 346.213 156.273 342.988C147.185 340.322 140.55 335.406 136.033 330.943C128.679 332.547 120.934 334.005 113.322 335.13C103.14 336.634 91.729 337.77 81.04 337.484C75.6858 337.341 69.4914 336.821 63.2129 335.377C57.7486 334.12 49.8548 331.636 42.2539 326.14C33.173 319.955 28.4786 311.828 26.5371 308.189C23.8676 303.184 22.0123 298.041 20.6816 293.728C17.984 284.983 15.9526 274.686 14.3711 264.266C11.161 243.115 9.08482 216.543 8.32519 189.745C7.56456 162.912 8.09016 134.661 10.4131 110.157C11.5725 97.9272 13.2399 85.9723 15.6269 75.2696C17.8511 65.2973 21.3496 53.303 27.624 43.0332L28.1309 42.2227C38.8877 25.4141 56.5983 22.0092 61.7568 21.1192ZM40.9414 325.159C40.9596 325.173 40.9787 325.186 40.9971 325.2C40.8142 325.059 40.6295 324.918 40.4473 324.773L40.9414 325.159Z" fill="#FF00FF"/>
</svg>
