<svg width="350" height="350" viewBox="0 0 350 350" fill="none" xmlns="http://www.w3.org/2000/svg">
<path d="M160.977 25.4278C185.242 24.2104 210.523 25.5265 232.558 30.211C243.579 32.5541 254.856 35.9628 265.151 40.9913C274.854 45.7303 285.948 53.0111 294.278 64.3555L295.076 65.4659L295.937 66.7022C314.024 92.8837 332.275 132.307 339.131 171.214C345.655 208.237 344.202 263.382 295.876 292.503C278.885 302.741 256.605 310.098 234.747 315.138C212.235 320.329 187.204 323.732 163.047 324.697C139.247 325.648 114.255 324.318 92.6133 318.826C73.2455 313.911 44.896 302.665 32.3662 274.502C22.1241 251.481 12.1488 217.402 8.4844 183.072C5.03301 150.737 5.99671 107.727 28.9834 75.5616C43.9673 54.5946 69.3051 43.5544 89.3565 37.3399C111.393 30.5101 136.664 26.6476 160.977 25.4278Z" fill="#FF00FF"/>
</svg>
