<svg width="350" height="350" viewBox="0 0 350 350" fill="none" xmlns="http://www.w3.org/2000/svg">
<path d="M97.8467 32.5016C128.105 9.47221 163.091 9.3764 192.653 19.2653C221.221 28.8214 247.369 48.1735 268.492 69.8541C289.889 91.8165 308.411 118.493 320.752 145.911C332.746 172.558 340.821 204.254 335.151 234.538C328.626 269.39 303.919 293.468 278.53 308.484C252.783 323.713 221.57 332.73 191.075 336.257C160.519 339.792 127.89 338.141 98.8242 329.522C70.2281 321.043 40.3433 304.247 23.667 273.835C12.1266 252.788 10.8914 228.124 12.6465 207.547C14.4889 185.946 20.1354 163.153 27.7148 141.812C35.3337 120.36 45.3502 99.127 56.7529 80.611C67.8393 62.6086 81.6826 44.8041 97.8467 32.5016Z" fill="#FF00FF"/>
</svg>
