<svg width="335" height="400" viewBox="0 0 335 400" fill="none" xmlns="http://www.w3.org/2000/svg">
<path d="M93.0089 29.7421C116.691 23.3096 144.015 23.8359 174.33 28.831C202.126 33.411 225.944 37.8012 245.01 43.7792C264.324 49.835 283.411 58.8723 297.763 75.788C312.229 92.8385 317.666 112.913 320.139 132.025C322.498 150.26 322.647 172.283 322.651 196.678C322.663 196.848 322.677 197.027 322.689 197.214C322.777 198.654 322.873 200.597 322.935 202.973C323.057 207.71 323.048 214.252 322.56 222.02C321.599 237.312 318.714 258.595 310.519 280.552C302.278 302.631 288.119 326.783 263.882 345.361C239.242 364.248 207.264 375 167.826 374.999C138.151 374.999 112.282 373.184 90.839 367.289C68.2295 361.073 48.314 349.675 34.4357 329.573C21.5212 310.867 17.0242 289.045 14.9943 268.829C12.9551 248.521 12.9998 224.251 13.0001 198.126C13.0001 175.835 13.2682 153.146 15.7736 132.65C18.256 112.342 23.317 90.3996 35.4239 71.3622C48.4437 50.8897 67.8158 36.5852 93.0089 29.7421Z" fill="#FF00FF"/>
</svg>
