<svg width="337" height="270" viewBox="0 0 337 270" fill="none" xmlns="http://www.w3.org/2000/svg">
<path d="M68.5639 30.411C119.595 -9.09251 190.185 1.41185 238.475 24.8407C263.947 37.199 287.946 55.1105 304.913 77.6718C322.036 100.439 333.431 130.217 327.366 163.168C320.974 197.885 296.709 222.07 271.481 237.247C245.964 252.597 215.027 261.687 184.803 265.243C154.523 268.806 122.162 267.145 93.3139 258.445C64.8656 249.866 35.3119 232.902 18.8842 202.432C10.6261 187.114 8.71482 170.004 9.03262 155.767C9.3646 140.896 12.2094 125.424 16.7152 110.774C25.4057 82.5193 42.4245 50.6459 68.5639 30.411Z" fill="#FF00FF"/>
</svg>
