<svg width="252" height="189" viewBox="0 0 252 189" fill="none" xmlns="http://www.w3.org/2000/svg">
<g id="low-positive">
<path id="pebble-outline" d="M9.94578 142.45C-5.12009 114.926 4.14034 48 39.4985 21.0417C107.737 -30.9855 261.739 38.5387 247.462 114.927C232.969 192.468 48.9944 213.786 9.94578 142.45Z" stroke="black" stroke-width="6"/>
<g id="glyph-wrapper">
<g id="glyph">
<path id="Vector" d="M70.3001 64.697C62.3943 69.0459 57.7186 73.0902 56.273 76.83C54.8274 80.5697 56.0025 84.1707 59.7982 87.6329C63.5939 91.0951 65.8584 95.2925 66.5918 100.225C67.3251 105.158 68.4362 108.965 69.9249 111.646C71.4136 114.328 73.6939 116.984 76.7657 119.615C79.8376 122.246 83.6179 124.581 88.1066 126.619C92.5952 128.656 99.4092 130.273 108.548 131.47C117.688 132.666 126.333 132.404 134.485 130.683C142.638 128.963 149.59 125.544 155.343 120.426C161.095 115.308 165.386 109.81 168.215 103.931C171.045 98.0521 172.657 93.8167 173.052 91.2244C173.447 88.6322 170.749 89.5904 164.958 94.0991C159.167 98.6079 154.69 101.586 151.528 103.034C148.367 104.481 142.449 104.775 133.777 103.915C125.105 103.055 119.224 101.232 116.136 98.4471C113.048 95.6618 110.703 92.9269 109.102 90.2423C107.501 87.5578 106.206 83.4897 105.219 78.0382C104.232 72.5867 100.652 68.4404 94.4799 65.5993C88.3079 62.7583 84.7951 60.0978 83.9414 57.6178C83.0878 55.1379 82.8152 52.1334 83.1237 48.6044C83.4321 45.0754 82.4816 45.0015 80.272 48.3826C78.0624 51.7637 76.482 55.4234 75.5307 59.3615C74.5795 63.2996 73.6464 65.3594 72.7317 65.5408L71.3595 65.813" stroke="black" stroke-width="6" stroke-linecap="round" stroke-linejoin="round"/>
<path id="Vector_2" d="M95.7535 63.5823C102.163 59.7006 107.425 57.8067 111.542 57.9004C115.658 57.9942 117.301 59.6764 116.47 62.9471C115.639 66.2178 113.498 68.9003 110.045 70.9946L104.866 74.136" stroke="black" stroke-width="6" stroke-linecap="round" stroke-linejoin="round"/>
<path id="Vector_3" d="M61.1194 68.9704C52.0255 66.712 46.5986 66.0265 44.8389 66.9141C43.0792 67.8016 42.0214 69.2805 41.6657 71.3509C41.31 73.4213 43.296 75.4407 47.6238 77.4091L54.1156 80.3618" stroke="black" stroke-width="6" stroke-linecap="round" stroke-linejoin="round"/>
<path id="Vector_4" d="M59.1128 83.7207C65.3632 87.4198 70.8167 89.5879 75.4733 90.225C80.1299 90.8621 83.6365 90.9361 85.9931 90.4468L89.528 89.713" stroke="black" stroke-width="6" stroke-linecap="round" stroke-linejoin="round"/>
<path id="Vector_5" d="M73.0996 76.1533L73.0216 76.7907" stroke="black" stroke-width="5.8" stroke-linecap="round" stroke-linejoin="round"/>
<path id="Vector_6" d="M82.6125 76.7773L82.8173 77.7038" stroke="black" stroke-width="6" stroke-linecap="round" stroke-linejoin="round"/>
<path id="Vector_7" d="M65.6197 109.334C58.4911 111.311 56.328 113.087 59.1303 114.664C61.9325 116.241 63.0378 118.193 62.4459 120.521C61.854 122.849 63.4705 122.944 67.2954 120.807L73.0327 117.601" stroke="black" stroke-width="6" stroke-linecap="round" stroke-linejoin="round"/>
<path id="Vector_8" d="M84.23 124.783C74.5397 132.816 72.3275 136.464 77.5933 135.726C82.8591 134.988 86.349 136.193 88.063 139.341C89.7769 142.488 91.1263 142.257 92.1114 138.648L93.5889 133.235" stroke="black" stroke-width="6" stroke-linecap="round" stroke-linejoin="round"/>
<path id="Vector_9" d="M142.397 131.636C147.406 139.312 150.043 141.615 150.31 138.544C150.576 135.473 152.043 134.012 154.709 134.161C157.376 134.311 157.433 132.909 154.88 129.956L151.051 125.527" stroke="black" stroke-width="6" stroke-linecap="round" stroke-linejoin="round"/>
<path id="Vector_10" d="M159.912 119.719C169.649 121.617 173.98 121.313 172.904 118.806C171.828 116.299 172.757 114.454 175.693 113.272C178.628 112.09 178.538 110.287 175.423 107.863L170.751 104.226" stroke="black" stroke-width="6" stroke-linecap="round" stroke-linejoin="round"/>
<path id="Vector_11" d="M149.811 101.673C151.397 90.0959 152.964 84.9374 154.51 86.1978C156.056 87.4581 157.33 89.3903 158.33 91.9944L159.832 95.9005" stroke="black" stroke-width="6" stroke-linecap="round" stroke-linejoin="round"/>
<path id="Vector_12" d="M109.674 84.3106C116.137 84.0271 119.164 85.9476 118.754 90.0723C118.344 94.1969 118.787 94.8998 120.083 92.181C121.379 89.4621 122.738 87.8857 124.16 87.4518C125.582 87.0178 126.857 88.8529 127.985 92.9572C129.112 97.0615 130.665 97.5944 132.642 94.5559C134.619 91.5175 136.319 91.5347 137.742 94.6075C139.165 97.6804 139.956 97.634 140.114 94.4684C140.272 91.3027 140.818 89.0523 141.75 87.7171C142.683 86.3819 144.108 85.8017 146.027 85.9765C147.946 86.1513 149.077 87.2901 149.419 89.3929L149.933 92.5471" stroke="black" stroke-width="6" stroke-linecap="round" stroke-linejoin="round"/>
<path id="Vector_13" d="M92.4786 108.41C99.7905 112.776 106.029 115.221 111.193 115.743C116.358 116.266 120.498 117.197 123.616 118.537C126.733 119.876 129.241 120.294 131.141 119.792L133.99 119.038" stroke="black" stroke-width="6" stroke-linecap="round" stroke-linejoin="round"/>
</g>
</g>
<path id="fossil" fill-rule="evenodd" clip-rule="evenodd" d="M194.89 84.1077C199.362 77.7627 208.143 73.9292 215.853 75.2649C216.055 75.2999 216.258 75.3226 216.585 75.3733C216.846 75.4139 217.203 75.4758 217.484 75.5793C218.256 75.8639 219.027 76.1377 219.807 76.4094L219.847 76.4241C220.832 76.8148 221.605 77.2013 222.508 77.6975H222.506C222.691 77.7968 222.883 77.8794 223.141 77.9963C223.383 78.1056 223.675 78.2419 223.958 78.4231C228.725 81.4792 232.085 85.9188 234.699 90.7141C234.949 91.1736 235.159 91.662 235.345 92.1077C235.538 92.5692 235.705 92.9797 235.891 93.3567C238.219 98.0624 239.128 103.146 237.987 108.391C237.761 109.428 237.322 110.608 237.026 111.516L236.848 112.066C235.936 114.812 234.697 117.439 233.157 119.891C229.799 125.318 224.215 130.976 217.646 132.635C214.25 133.492 209.685 132.811 206.699 130.95C202.668 128.483 199.572 124.744 197.901 120.323L197.9 120.32C197.327 118.789 197.052 117.607 196.911 115.971C196.861 115.396 196.937 114.773 196.974 114.342C197.016 113.867 197.014 113.578 196.966 113.381C196.955 113.362 196.934 113.325 196.895 113.271C196.814 113.156 196.702 113.015 196.571 112.861C196.309 112.551 196.024 112.247 195.858 112.067C190.405 106.137 188.39 97.5404 191.739 89.9573C192.135 89.0596 192.633 87.6801 193.199 86.635C193.672 85.76 194.258 84.8867 194.89 84.1077ZM200.255 115.669C200.328 116.926 200.566 118.122 201.055 119.278C201.242 119.719 201.45 120.074 201.713 120.606C202.187 121.561 202.755 122.526 203.406 123.236C203.983 123.865 204.51 124.46 205.065 124.881L205.064 124.88C205.179 124.967 205.31 125.049 205.483 125.156C205.628 125.244 205.81 125.357 205.992 125.485C207.441 126.352 208.409 126.792 210.024 127.229C210.683 127.407 211.195 127.578 211.724 127.659C212.21 127.734 212.748 127.72 213.304 127.654C211.671 126.292 210.368 124.574 209.499 122.628L209.328 122.218C208.953 121.24 208.726 120.134 208.501 119.343L208.502 119.342C208.49 119.302 208.469 119.252 208.421 119.139C208.38 119.044 208.307 118.88 208.255 118.701C208.234 118.631 208.22 118.563 208.21 118.505L208.189 118.499C207.052 118.139 205.963 117.866 204.767 117.517C203.606 117.178 202.417 116.787 201.255 116.231C200.9 116.061 200.566 115.862 200.255 115.669ZM214.723 117.444C214.535 117.473 213.893 117.627 213.208 117.82C212.875 117.913 212.554 118.009 212.296 118.096C212.164 118.14 212.069 118.175 212.006 118.199C212.022 118.876 212.255 119.734 212.663 120.659C213.141 121.746 213.792 122.786 214.339 123.496C214.621 123.861 215.294 124.689 215.995 125.432C216.346 125.805 216.686 126.137 216.975 126.375C217.12 126.494 217.234 126.577 217.318 126.626C217.336 126.637 217.352 126.643 217.363 126.649C217.453 126.649 217.631 126.625 217.918 126.515C218.24 126.391 218.611 126.196 219.006 125.956C219.835 125.454 220.539 124.909 221.14 124.507C221.143 124.505 221.145 124.503 221.147 124.501C221.09 124.481 221.033 124.459 220.977 124.436C220.395 124.192 219.888 123.817 219.511 123.545C218.353 122.709 217.374 121.841 216.541 120.532C216.278 120.12 216.02 119.677 215.797 119.216C215.701 119.017 215.599 118.759 215.512 118.548C215.417 118.317 215.323 118.097 215.222 117.899C215.119 117.696 215.028 117.557 214.953 117.471C214.937 117.453 214.923 117.441 214.914 117.432C214.876 117.43 214.814 117.429 214.723 117.444ZM220.21 113.988C219.599 114.453 218.726 115.166 218.152 115.735C218.209 115.922 218.263 116.103 218.313 116.266C218.419 116.61 218.524 116.92 218.657 117.218C219.114 118.241 219.816 119.079 220.658 119.933C221.359 120.644 222.238 121.436 223.011 122.293L223.336 122.665L223.457 122.809C223.85 122.464 224.227 122.111 224.574 121.748C225.366 120.921 226.099 119.917 226.832 118.915L226.862 118.873C226.643 118.823 226.444 118.754 226.283 118.692C226.168 118.647 226.054 118.599 225.96 118.56C225.86 118.518 225.779 118.485 225.706 118.457C224.902 118.154 223.946 117.736 223.165 117.113C222.86 116.869 222.531 116.512 222.232 116.172C222.076 115.995 221.914 115.807 221.755 115.621C221.593 115.433 221.434 115.246 221.275 115.065C220.952 114.697 220.654 114.377 220.394 114.143C220.322 114.078 220.26 114.027 220.21 113.988ZM225.681 109.626C224.962 109.354 224.297 109.224 223.624 109.319C223.485 109.501 223.292 109.791 223.083 110.154C222.897 110.475 222.733 110.791 222.616 111.04C222.857 111.518 223.242 112.077 223.714 112.644C224.295 113.341 224.947 113.984 225.472 114.42C225.748 114.649 226.039 114.832 226.425 115.101C226.691 115.286 227.201 115.622 227.651 115.95C227.909 116.139 228.204 116.364 228.466 116.605C228.781 116.13 229.08 115.65 229.356 115.156C229.671 114.595 229.878 114.024 230.202 113.302C230.423 112.81 230.643 112.324 230.853 111.843C229.984 111.603 229.122 111.271 228.326 110.893C227.319 110.414 226.568 109.963 225.681 109.626ZM209.122 106.4C209.075 106.513 209.022 106.656 208.969 106.823C208.9 107.041 208.837 107.271 208.778 107.487C208.751 107.585 208.722 107.691 208.694 107.791L208.611 108.062L208.61 108.065C208.482 108.437 208.329 108.802 208.155 109.156L208.154 109.159C207.774 109.921 207.269 110.562 206.694 111.126C206.291 111.522 205.774 111.961 205.124 112.236C205.072 112.257 205.003 112.287 204.924 112.32C205.001 112.351 205.079 112.385 205.16 112.415C207.021 113.115 209.027 113.368 210.937 113.157L210.66 112.981L210.899 112.245C211.638 109.976 212.143 108.835 211.244 107.049C211.202 106.967 211.063 106.837 210.887 106.781C210.666 106.712 210.157 106.568 209.666 106.475C209.456 106.435 209.27 106.411 209.122 106.4ZM214.378 94.2854C213.188 93.8686 211.882 93.9324 210.739 94.4622C209.661 94.9753 208.688 95.7711 208.378 96.6458C208.049 97.5748 208.149 98.7855 208.598 99.7151C208.939 100.42 209.611 100.942 210.474 101.24C211.075 101.446 211.64 101.41 212.223 101.125C212.237 101.107 212.26 101.078 212.285 101.033C212.352 100.912 212.411 100.756 212.456 100.61C212.526 100.38 212.551 100.122 212.554 99.7922C212.557 99.5443 212.538 99.0114 212.551 98.6555L212.566 98.2639L212.841 97.9866C212.851 97.9771 213.033 97.7804 213.164 97.6643C213.244 97.5925 213.358 97.5001 213.495 97.4211C213.627 97.3452 213.84 97.2468 214.11 97.2336L214.278 97.2327C214.663 97.2504 214.995 97.3903 215.238 97.5286C215.524 97.6913 215.767 97.8979 215.948 98.0862C216.406 98.5626 216.681 99.1963 216.841 99.7649C217.005 100.346 217.078 100.962 217.06 101.49C217.007 103.086 216.206 104.269 215.208 105.197C214.969 105.418 214.791 105.568 214.638 105.749C214.541 105.864 214.511 105.928 214.503 105.948C214.504 105.965 214.509 106.01 214.53 106.087C214.557 106.189 214.602 106.312 214.662 106.459C214.722 106.608 214.788 106.755 214.86 106.919C214.927 107.073 215.003 107.251 215.063 107.419C215.632 109.022 215.35 110.796 214.439 112.168C215.899 111.459 217.169 110.39 218.088 108.948C219.662 106.479 220.196 103.296 219.583 100.477C218.974 97.6803 217.26 95.3128 214.378 94.2854ZM204.785 103.55C204.561 103.665 204.332 103.793 204.092 103.933C203.68 104.174 203.204 104.464 202.725 104.712C202.128 105.021 201.525 105.202 200.966 105.351C199.661 105.698 198.427 105.8 197.122 105.46C198.345 107.511 199.885 109.305 201.796 110.702L202.272 111.036L202.28 111.042L202.29 111.048C202.337 111.081 202.404 111.115 202.505 111.159C202.556 110.727 202.77 110.434 202.873 110.291C203.15 109.908 203.549 109.538 203.741 109.337C204.098 108.963 204.44 108.541 204.68 108.14C204.903 107.768 205.235 107.029 205.535 106.22C205.738 105.671 205.902 105.148 206.006 104.74C205.759 104.512 205.53 104.283 205.323 104.074C205.134 103.884 204.958 103.71 204.785 103.55ZM228.911 101.969C227.937 101.917 226.842 102.181 225.782 102.544C225.634 102.595 225.481 102.64 225.361 102.675C225.231 102.713 225.128 102.744 225.034 102.778C224.993 102.792 224.958 102.807 224.927 102.821C224.872 103.166 224.802 103.697 224.749 104.256C224.711 104.65 224.685 105.03 224.676 105.335C224.675 105.397 224.677 105.454 224.677 105.506C224.852 105.568 225.053 105.605 225.421 105.703C226.038 105.868 226.783 106.064 227.463 106.345L227.463 106.346C228.048 106.588 229.036 107.122 229.94 107.702C230.397 107.996 230.854 108.314 231.242 108.629C231.448 108.797 231.661 108.985 231.85 109.186C231.87 109.119 231.892 109.053 231.91 108.986C232.094 108.305 232.17 107.669 232.325 106.852C232.45 106.188 232.577 105.713 232.64 105.169C232.741 104.303 232.808 103.429 232.822 102.566C232.466 102.632 232.098 102.607 231.803 102.57C231.433 102.522 231.035 102.435 230.671 102.348C230.275 102.254 229.961 102.171 229.624 102.094C229.295 102.019 229.061 101.977 228.911 101.969ZM195.127 94.6506C194.779 96.7125 194.772 98.8749 195.23 100.853C195.301 101.088 195.394 101.328 195.507 101.6C195.593 101.805 195.693 102.043 195.789 102.286C196.311 102.217 196.82 102.204 197.275 102.195C197.755 102.184 198.171 102.178 198.583 102.132C199.261 102.056 200.197 101.778 201.088 101.356C201.994 100.926 202.716 100.411 203.081 99.9397C203.248 99.7231 203.309 99.5373 203.302 99.3606L203.296 99.2854C203.246 98.9272 203.177 98.5437 203.091 98.1995C202.759 98.0569 202.372 98.0326 201.693 97.9836C200.5 97.8976 199.414 97.6949 198.398 97.2522C197.374 96.8057 196.472 96.1374 195.618 95.1858C195.516 95.0722 195.312 94.8627 195.127 94.6506ZM230.415 92.7249C230.056 92.9425 229.645 93.0766 229.327 93.1672C228.89 93.2917 228.68 93.3305 228.396 93.4202C226.49 94.0227 224.656 95.0736 223.631 96.6057C223.703 96.9113 223.832 97.3752 223.999 97.8645C224.114 98.203 224.234 98.5187 224.344 98.762C224.357 98.7908 224.37 98.8178 224.382 98.843C224.591 98.8142 224.812 98.7644 225.075 98.6975C225.349 98.6278 225.692 98.5345 226.04 98.4739C227.032 98.3007 228.241 98.1887 229.434 98.2942C230.472 98.3861 231.57 98.6497 232.5 99.2473C232.453 99.0638 232.4 98.8645 232.358 98.6711C232.163 97.7647 232.095 97.1234 231.878 96.385C231.721 95.8523 231.501 95.3376 231.261 94.7317C230.996 94.06 230.714 93.3877 230.415 92.7249ZM199.855 84.9211C199.648 85.1642 199.445 85.4141 199.249 85.6711C199.053 85.9277 198.765 86.2534 198.574 86.4856C198.349 86.7575 198.194 86.9709 198.109 87.135C197.3 88.6969 196.562 90.1968 196.058 91.7874C196.512 91.929 196.909 92.1751 197.216 92.3811C197.578 92.6238 197.777 92.7806 198.031 92.9319C199.198 93.6271 200.444 94.2488 201.57 94.342C201.97 94.3751 202.375 94.337 202.906 94.2971C203.308 94.2669 203.55 94.258 203.74 94.2229C203.922 93.9649 204.152 93.5877 204.388 93.1545C204.524 92.9066 204.653 92.6553 204.768 92.4221C204.377 92.1406 204.022 91.8429 203.674 91.5393C202.07 90.1374 200.772 88.4784 200.169 86.2629C200.098 86.0047 199.95 85.4678 199.855 84.9211ZM223.998 84.4211C223.908 84.5714 223.796 84.7177 223.689 84.8479C223.473 85.1107 223.197 85.3978 222.934 85.6604C222.669 85.9252 222.39 86.1905 222.171 86.4026C222.049 86.5197 221.955 86.6122 221.885 86.6819L221.748 86.8254C221.302 87.3624 220.734 88.211 220.279 89.1067C219.893 89.8667 219.64 90.5629 219.558 91.0862C219.635 91.1727 219.724 91.2655 219.825 91.3655C219.997 91.5355 220.29 91.8067 220.496 92.0198C220.96 92.5001 221.197 92.8123 221.561 93.1321C221.69 93.0453 221.84 92.9387 222.001 92.8157C222.363 92.538 222.9 92.0949 223.157 91.9211C223.914 91.4087 225.176 90.6925 226.483 90.261C227.137 90.0452 227.848 89.8854 228.538 89.8811C228.675 89.8803 228.814 89.8867 228.954 89.8997C228.563 89.2509 228.142 88.6315 227.685 88.0549C226.569 86.6456 225.383 85.363 224.087 84.2483C224.052 84.3207 224.022 84.3807 223.998 84.4211ZM209.953 79.6555C208.234 79.8252 206.541 80.2538 204.933 80.9573C204.748 81.0385 204.569 81.147 204.353 81.2903C204.158 81.42 203.886 81.6128 203.613 81.7688L203.609 81.7708C203.079 82.0706 202.576 82.4054 202.097 82.7727L202.146 82.8977C202.156 82.9095 202.176 82.9313 202.209 82.9661C202.266 83.0264 202.439 83.1972 202.577 83.4319L202.633 83.5364L202.805 83.9202C202.857 84.0461 202.904 84.1692 202.947 84.2834C203.038 84.5256 203.109 84.7214 203.191 84.9143C203.361 85.3143 203.592 85.7248 203.847 86.1614C204.132 86.6483 204.835 87.5244 205.651 88.3547C206.052 88.7622 206.459 89.1379 206.832 89.4329C207.179 89.7079 207.446 89.8702 207.617 89.9456C207.661 89.9342 207.727 89.9206 207.813 89.8938C207.988 89.8392 208.2 89.7637 208.421 89.6799C208.79 89.5395 209.147 89.3851 209.365 89.2854C209.317 89.0425 209.253 88.8104 209.178 88.5627L208.891 87.5999C208.821 87.3452 208.764 87.0892 208.713 86.8674C208.659 86.637 208.611 86.4338 208.553 86.2395L208.521 86.1331L208.513 86.0227C208.471 85.4093 208.457 84.7584 208.527 84.0969C208.605 83.3627 208.793 82.4414 209.083 81.5608C209.294 80.9159 209.58 80.2344 209.953 79.6555ZM213.03 79.6233C213.058 80.574 212.759 81.4575 212.568 82.095C212.015 83.9422 211.879 85.5967 212.504 87.2805C212.708 87.8307 212.867 88.2475 213.082 88.5686C213.462 88.6886 214.124 88.8729 214.804 89.0266C215.234 89.1239 215.641 89.2032 215.961 89.2444C216.004 89.2499 216.045 89.2522 216.082 89.2561C216.13 89.1425 216.177 89.0195 216.221 88.8987C216.26 88.7937 216.31 88.6531 216.347 88.5627C216.868 87.2892 217.603 86.0068 218.495 84.926C218.665 84.7202 218.841 84.5296 219 84.3616C219.164 84.1868 219.306 84.0387 219.44 83.884L219.658 83.6331L219.97 83.5637C219.976 83.5604 219.984 83.5568 219.993 83.551C220.02 83.5327 220.051 83.511 220.1 83.4749C220.144 83.4429 220.209 83.3955 220.278 83.3499C220.575 83.1529 221.048 82.8253 221.565 82.6233C221.639 82.5944 221.717 82.5671 221.797 82.5422C220.734 81.8636 219.598 81.2877 218.37 80.8342L218.358 80.8303C216.638 80.1699 214.839 79.7604 213.03 79.6233Z" fill="black"/>
</g>
</svg>
