<svg width="679" height="680" viewBox="0 0 679 680" fill="none" xmlns="http://www.w3.org/2000/svg">
<path d="M219.186 412.871C223.138 408.685 229.733 408.494 233.921 412.444C250.531 428.112 264.571 437.251 276.086 441.051C290.222 445.717 301.921 451.1 310.71 457.425C317.655 462.423 321.801 463.424 323.724 463.346L331.851 463.014C337.602 462.781 342.459 467.252 342.694 473.005L342.702 473.275C342.788 478.909 338.363 483.613 332.702 483.845L324.575 484.177C315.661 484.539 306.783 480.287 298.53 474.348C292.122 469.737 282.617 465.163 269.547 460.849C253.854 455.669 237.193 444.19 219.613 427.606C215.425 423.655 215.235 417.058 219.186 412.871Z" fill="black"/>
<path d="M219.072 318.494C224.827 318.498 229.493 323.165 229.491 328.922V328.924L229.488 331.539C229.484 337.206 224.96 341.816 219.327 341.956L219.058 341.96C213.301 341.956 208.636 337.287 208.638 331.531V328.91C208.643 323.152 213.317 318.491 219.072 318.494Z" fill="black"/>
<path d="M184.216 318.171C186.088 312.877 191.901 310.102 197.194 311.973C202.489 313.845 205.263 319.657 203.391 324.951L203.391 324.952L202.799 326.62C200.927 331.913 195.117 334.686 189.824 332.816C184.53 330.944 181.755 325.134 183.627 319.84L184.215 318.173L184.216 318.171Z" fill="black"/>
<path fill-rule="evenodd" clip-rule="evenodd" d="M232.899 236.045C234.375 235.523 237.265 234.766 240.613 235.785L240.978 235.903C244.7 237.169 246.924 240.003 247.955 242.6C248.756 244.617 248.887 246.529 248.871 247.845L248.857 248.372C248.746 251.044 248.008 253.907 247.203 256.461C244.56 264.85 243.835 271.589 244.441 276.914L244.461 277.04C244.596 277.764 245.348 279.922 248.549 283.686C250.655 286.163 253.517 288.98 257.22 292.137C257.778 291.82 258.375 291.55 259.007 291.336C279.148 284.517 296.794 281.772 310.772 285.203C317.1 286.757 324.08 289.704 327.987 295.994C332.246 302.855 330.896 310.24 328.132 316.003L327.861 316.556C322.203 327.781 312.383 335.303 299.787 339.578L289.673 343.01C289.695 344.068 289.686 345.135 289.644 346.211C289.521 349.386 289.478 352.359 289.504 355.135C298.843 356.799 307.523 359.788 313.291 365.532C315.516 367.749 317.273 370.352 318.406 373.299C320.127 372.656 321.936 372.227 323.831 372.079L323.868 372.075L323.907 372.074L324.485 372.045L324.512 372.043L324.539 372.042C327.979 371.94 331.209 373.067 333.829 375.165L334.081 375.371L334.55 375.78C336.835 377.86 338.226 380.389 339.114 382.554C340.514 385.966 341.31 390.1 341.751 394.573C342.292 394.238 342.846 393.924 343.412 393.636L343.946 393.375C346.678 392.087 350.34 391.117 354.401 392.059L354.974 392.204C356.417 392.601 357.703 393.198 358.841 393.919C360.503 390.882 362.471 388.176 364.833 386.006C371.456 379.924 379.772 379.114 387.617 381.616C391.523 382.863 395.207 385.103 397.906 388.657C399.529 387.462 402.2 385.974 405.706 385.972L406.103 385.979C409.898 386.097 412.766 387.926 414.616 389.89L414.984 390.298L415.002 390.318L415.019 390.339L415.312 390.692L415.352 390.74L416.214 391.881L416.231 391.903L416.246 391.925C420.592 397.932 423.088 405.371 424.316 413.556L424.317 413.557L424.681 415.995C425.162 415.769 425.648 415.543 426.135 415.312C435.196 411.008 443.133 407.854 448.931 407.136L449.54 407.068C451 406.925 452.733 406.895 454.542 407.227L454.543 407.228C456.636 407.612 459.52 408.621 461.861 411.206C466.556 416.392 464.93 422.6 464.025 425.122L463.855 425.576C461.38 431.972 456.26 440.179 449.104 449.908L458.624 461.405C460.687 463.897 462.539 466.56 463.817 469.341C465.027 471.975 466.075 475.492 465.513 479.395L465.454 479.775C463.814 489.421 454.782 492.24 449.8 493.068C448.651 493.259 447.905 493.483 447.446 493.66C447.462 493.784 447.483 493.925 447.513 494.085L447.585 494.488C447.926 496.55 447.988 499.228 446.943 502.025C445.737 505.246 443.442 507.6 440.784 509.033C436.583 511.297 431.841 511.093 428.539 510.653L427.899 510.563C420.495 509.459 410.155 505.775 397.557 500.291C396.543 499.85 395.637 499.263 394.85 498.572C394.589 498.72 394.327 498.871 394.063 499.018C391.758 500.304 389.421 501.511 387.057 502.645L391.223 510.361C392.666 513.035 393.899 515.703 394.691 518.242L394.824 518.679C395.468 520.865 396.12 524.102 395.311 527.538L395.221 527.895C394.657 530.026 393.503 532.234 391.53 534.043C389.591 535.821 387.39 536.73 385.458 537.148C381.949 537.906 378.574 537.226 376.256 536.574C375.977 536.496 375.756 536.448 375.587 536.418C375.341 536.809 374.961 537.549 374.553 538.846C374.048 540.452 373.193 542.611 371.611 544.569C369.888 546.7 366.852 549.065 362.522 549.242C358.586 549.402 355.641 547.644 354.028 546.402L354.027 546.401C352.339 545.1 351.013 543.527 350.003 542.156C346.17 536.957 342.073 527.801 337.651 516.061C337.55 515.793 337.463 515.522 337.386 515.252C333.821 515.467 330.211 515.558 326.555 515.522C302.266 515.279 277.646 510.573 252.744 501.536C242.439 497.796 233.174 494.046 225 490.281C224.842 490.866 224.633 491.444 224.366 492.009L224.162 492.418L216.953 506.119C215.555 508.774 213.884 511.449 211.839 513.582C209.989 515.511 206.221 518.652 200.782 518.388C195.056 518.109 191.617 514.308 190.002 511.908C188.308 509.389 187.194 506.403 186.386 503.6C185.846 501.727 184.743 499.947 182.364 498.463C179.895 496.922 175.92 495.622 169.528 495.117C167.408 494.949 165.158 494.626 163.04 493.968L162.618 493.832C160.569 493.145 157.261 491.667 154.993 488.292C152.303 484.286 152.542 479.913 153.707 476.735C154.729 473.951 156.509 471.779 157.949 470.273L158.521 469.692C161.461 466.783 165.593 463.838 170.335 460.879C172.48 459.54 174.856 458.136 177.453 456.667C174.542 453.546 171.854 450.358 169.403 447.097C168.745 446.221 168.107 445.346 167.486 444.473L154.505 448.371L154.504 448.372C151.331 449.323 148.344 450.05 145.653 450.431C143.345 450.759 140.333 450.979 137.345 450.26L136.747 450.104C135.032 449.616 132.936 448.682 131.082 446.89C129.124 444.996 127.941 442.625 127.488 440.165C126.691 435.833 128.27 432.076 129.302 430.029L129.437 429.737C129.543 429.48 129.569 429.33 129.576 429.257C129.584 429.177 129.582 429.085 129.524 428.895C129.364 428.375 128.687 426.942 126.217 424.73C124.135 422.865 120.148 418.749 120.328 412.668L120.341 412.341C120.704 405.52 125.92 401.999 128.667 400.606C131.798 399.018 135.593 398.086 139.36 397.456C142.739 396.89 146.667 396.479 151.082 396.197C150.996 391.666 151.141 386.857 151.499 381.793C152.293 370.538 149.408 360.242 142.583 350.548C138.008 344.049 134.843 337.153 133.949 329.952C133.924 329.934 133.897 329.916 133.872 329.897L118.141 318.068C112.473 313.806 107.653 309.269 104.595 304.382C101.424 299.315 99.5331 292.724 102.319 285.913L102.333 285.88L102.348 285.846L102.952 284.475L102.964 284.446L102.978 284.418C106.457 277.008 112.445 271.773 120.601 269.698C124.167 268.792 127.868 269.207 130.768 269.765C133.922 270.371 137.468 271.424 141.295 272.794C148.964 275.537 158.725 279.896 170.45 285.724C170.479 285.739 170.508 285.755 170.538 285.77C176.407 283.374 182.964 281.131 190.168 279.022C192.74 278.269 195.364 278.557 197.597 279.628C198.577 277.963 199.719 275.839 201.014 273.194C206.45 262.087 213.596 252.197 222.422 243.573C224.582 241.462 226.769 239.53 228.866 238.125C229.905 237.43 231.283 236.617 232.899 236.045ZM367.411 510.141C364.503 510.985 361.557 511.729 358.573 512.375C359.797 515.506 360.92 518.211 361.939 520.519C362.74 519.801 363.609 519.135 364.553 518.536C366.498 517.302 368.531 516.493 370.588 516.028L367.411 510.141ZM223.44 275.572C222.116 277.764 220.884 280.025 219.743 282.357C217.186 287.581 214.685 292.026 212.228 295.302C211.01 296.927 209.515 298.656 207.718 300.061C206.087 301.334 203.173 303.144 199.293 303.174L198.914 303.171L195.056 303.085C192.875 303.036 190.87 302.315 189.227 301.136C180.889 303.866 174.141 306.68 168.87 309.525C162.125 313.166 158.484 316.495 156.742 319.114C155.695 320.688 155.065 322.187 154.764 323.67C156.194 324.123 157.552 324.891 158.722 325.986C172.836 339.195 185.062 347.281 195.412 351.106C207.318 355.504 215.354 357.272 220.153 357.336L230.115 357.47C235.781 357.545 240.332 362.126 240.4 367.761V368.03C240.324 373.787 235.595 378.39 229.839 378.315L219.875 378.184C211.392 378.07 200.615 375.254 188.187 370.662C182.367 368.512 176.454 365.505 170.445 361.717C172.198 368.638 172.822 375.831 172.298 383.258C171.37 396.417 172.155 405.916 174.056 412.312C176.021 418.924 179.887 426.34 186.072 434.569C192.076 442.556 200.117 450.431 210.374 458.132C219.998 465.358 236.229 473.363 259.859 481.938C282.78 490.256 305.067 494.457 326.763 494.674C348.096 494.888 367.06 490.209 383.903 480.811C401.468 471.009 415.18 459.601 425.322 446.712C428.948 442.105 432.032 437.995 434.614 434.364C416.425 442.983 401.826 448.713 391.275 450.976C384.688 452.389 376.79 451.975 368.213 450.517C359.468 449.03 349.192 446.307 337.481 442.468C314.4 434.901 296.724 425.644 287.967 413.352C280.891 403.419 275.634 393.719 272.507 384.278C269.21 374.323 268.198 361.116 268.809 345.403C269.24 334.31 264.325 323.994 251.41 314.189C243.629 308.282 237.277 302.616 232.662 297.189C228.2 291.941 224.48 285.897 223.725 279.276C223.586 278.054 223.492 276.819 223.44 275.572ZM193.658 471.551C190.143 473.429 187.046 475.163 184.359 476.753C191.778 479.061 198.108 483.01 202.334 489.118L205.713 482.704C206.064 482.037 206.479 481.423 206.945 480.868C203.609 478.864 200.573 476.846 197.854 474.805C196.421 473.729 195.024 472.642 193.658 471.551ZM435.826 466.563C429.804 473.217 423.001 479.402 415.443 485.129C420.156 486.967 423.961 488.248 426.926 489.05C427.484 486.096 428.71 483.193 430.848 480.575C433.774 476.994 437.663 474.868 441.665 473.614L435.826 466.563ZM381.146 401.44C379.966 401.078 379.442 401.114 379.28 401.143C379.205 401.156 379.158 401.157 378.939 401.358C377.894 402.318 375.704 405.62 373.498 413.654C372.858 415.984 372.033 418.505 370.863 420.62C370.293 421.65 369.278 423.259 367.617 424.656L367.616 424.657C366.04 425.982 363.382 427.477 359.977 427.396C364.306 428.515 368.212 429.368 371.706 429.962C373.315 430.236 374.809 430.446 376.19 430.606C378.148 425.365 380.011 420.6 381.772 416.326C380.955 414.733 380.533 412.906 380.642 410.989L381.139 402.188C381.156 401.879 381.154 401.632 381.146 401.44ZM153.693 416.929C151.215 417.068 149.016 417.243 147.083 417.449C148.068 419.121 148.881 420.9 149.46 422.792C149.975 424.474 150.278 426.163 150.382 427.841L156.842 425.902C155.755 423.353 154.827 420.803 154.068 418.252C153.939 417.816 153.814 417.375 153.693 416.929ZM403.854 417.704C402.704 420.284 401.463 423.219 400.132 426.52C401.647 425.959 403.237 425.347 404.902 424.683L403.854 417.704ZM347.931 416.468C346.331 417.76 344.539 418.942 342.57 419.773C341.439 420.25 340.132 420.648 338.718 420.86C340.403 421.459 342.155 422.061 343.977 422.658C347.78 423.905 351.359 425.003 354.716 425.962C353.236 425.137 352.173 424.117 351.495 423.344L351.279 423.092C350.139 421.724 349.414 420.285 348.956 419.242C348.575 418.375 348.237 417.44 347.931 416.468ZM321.013 396.836C320.414 397.509 319.761 398.29 319.055 399.194C317.818 400.778 316.214 402.702 314.411 404.135L314.049 404.415C313.558 404.781 312.133 405.837 310.034 406.448C313.704 409.413 318.87 412.528 325.808 415.689C324.218 413.664 323.316 411.465 322.779 409.766C321.846 406.811 321.418 403.476 321.25 400.108C321.189 398.899 321.106 397.812 321.013 396.836ZM292.301 377.723C293.418 381.095 294.965 384.681 296.98 388.486C297.414 386.838 297.967 385.014 298.61 383.056C299.083 381.613 298.988 380.967 298.968 380.859C298.959 380.812 298.949 380.78 298.922 380.73C298.897 380.685 298.841 380.594 298.719 380.456L298.574 380.303C297.764 379.498 295.864 378.282 292.111 377.132C292.174 377.333 292.237 377.53 292.301 377.723ZM305.798 305.451C299.192 303.829 289.305 304.316 275.468 308.091C279.458 312.591 282.671 317.418 285.028 322.569L293.085 319.835C301.59 316.948 306.516 312.579 309.241 307.174C309.331 306.996 309.406 306.833 309.471 306.685C308.693 306.314 307.511 305.872 305.798 305.451ZM125.312 290.025C124.492 290.282 123.874 290.632 123.361 291.097C122.91 291.505 122.46 292.074 122.03 292.909C122.094 293.027 122.173 293.165 122.273 293.324C123.36 295.061 125.856 297.782 130.674 301.406L139.209 307.825C139.265 307.739 139.321 307.652 139.378 307.566C141.678 304.108 144.677 301.005 148.187 298.197C142.714 295.708 138.086 293.791 134.272 292.426C131.401 291.399 129.169 290.747 127.507 290.379L126.83 290.238C126.107 290.099 125.632 290.048 125.364 290.028C125.346 290.026 125.328 290.026 125.312 290.025Z" fill="black"/>
<path fill-rule="evenodd" clip-rule="evenodd" d="M522.141 394.744C534.711 376.974 559.22 366.265 580.918 370.023C581.458 370.117 581.809 370.151 582.829 370.31C583.505 370.415 584.72 370.61 585.76 370.993C586.784 371.371 587.808 371.741 588.836 372.108L591.935 373.2L591.949 373.204L591.962 373.209L592.072 373.249L592.113 373.263L592.153 373.279C594.928 374.379 597.102 375.471 599.583 376.834L599.65 376.871C600.007 377.057 600.383 377.219 601.093 377.54C601.751 377.838 602.688 378.27 603.623 378.869C616.918 387.389 626.19 399.705 633.313 412.77C634.056 414.134 634.664 415.557 635.164 416.753C635.702 418.039 636.105 419.032 636.556 419.944C643.018 433.005 645.598 447.243 642.391 461.982C641.748 464.937 640.48 468.355 639.743 470.615L639.269 472.081L639.266 472.092L639.263 472.102C636.751 479.663 633.338 486.897 629.097 493.646C619.923 508.464 604.478 524.277 585.921 528.962C576.133 531.433 563.156 529.503 554.522 524.135C543.213 517.214 534.524 506.725 529.837 494.321L529.663 493.86V493.84C528.258 490.002 527.508 486.847 527.1 482.8L527.02 481.945C526.862 480.108 527.102 478.127 527.19 477.117C527.242 476.52 527.262 476.101 527.26 475.8C527.26 475.788 527.259 475.776 527.258 475.765C527.12 475.586 526.947 475.37 526.739 475.125C526.084 474.351 525.374 473.596 524.902 473.083C509.666 456.519 503.925 432.368 513.386 410.948C514.319 408.836 515.818 404.761 517.391 401.853C518.726 399.386 520.369 396.937 522.141 394.744ZM542.056 485.686C542.363 486.996 542.771 488.269 543.298 489.515L543.471 489.909C543.874 490.796 544.287 491.5 544.995 492.927L545.463 493.848C546.572 495.973 547.798 497.926 549.1 499.345C550.726 501.12 551.94 502.483 553.185 503.427C553.375 503.572 553.619 503.73 554.081 504.012C554.44 504.232 554.958 504.55 555.491 504.92C558.924 506.971 561.213 508.037 564.801 509.058L565.543 509.263L565.544 509.263C565.851 509.347 566.138 509.427 566.406 509.502C564.225 506.809 562.394 503.835 560.969 500.646L560.953 500.612L560.939 500.577L560.483 499.475L560.469 499.442L560.457 499.408C559.412 496.679 558.699 493.371 558.179 491.536L558.066 491.266C558.015 491.148 557.92 490.932 557.812 490.659C555.279 489.898 552.868 489.28 550.003 488.445C547.435 487.696 544.746 486.831 542.056 485.686ZM576.601 488.603C575.927 488.768 575.048 488.996 574.097 489.263C573.761 489.358 573.434 489.453 573.123 489.545C573.367 490.594 573.778 491.822 574.377 493.183C575.562 495.875 577.191 498.474 578.537 500.219L579.251 501.121C580.127 502.205 581.447 503.771 582.797 505.203C583.656 506.113 584.444 506.878 585.077 507.412C585.717 507.159 586.535 506.736 587.504 506.149C588.249 505.697 588.921 505.253 589.558 504.817C589.225 504.582 588.929 504.367 588.68 504.187C585.424 501.839 582.505 499.28 580.022 495.382C579.371 494.36 578.717 493.25 578.126 492.081L577.876 491.577C577.573 490.949 577.254 490.143 577.048 489.641C576.889 489.255 576.742 488.912 576.601 488.603ZM591.961 479.968C591.192 480.593 590.398 481.261 589.684 481.901C589.932 482.696 590.161 483.348 590.43 483.95L590.629 484.378C591.661 486.497 593.206 488.358 595.247 490.427C596.788 491.989 599.047 494.063 601.023 496.172C601.314 495.887 601.599 495.605 601.873 495.319L602.242 494.927C603.391 493.685 604.503 492.287 605.631 490.792C603.452 489.957 600.699 488.744 598.362 486.878C597.595 486.266 596.827 485.479 596.157 484.744L595.523 484.034C595.093 483.546 594.649 483.031 594.22 482.531C593.785 482.024 593.367 481.536 592.953 481.064C592.599 480.661 592.267 480.296 591.961 479.968ZM602.746 466.516C602.566 466.8 602.367 467.122 602.159 467.481C601.974 467.801 601.798 468.12 601.636 468.424C602.144 469.225 602.804 470.126 603.592 471.073C605.048 472.822 606.677 474.427 607.948 475.481C608.569 475.997 609.151 476.353 610.319 477.165C610.926 477.587 612.36 478.537 613.575 479.421C613.815 479.019 614.052 478.617 614.279 478.212C615.047 476.843 615.462 475.628 616.437 473.457C616.61 473.072 616.781 472.69 616.951 472.311C615.49 471.788 614.065 471.193 612.712 470.55C609.882 469.205 608.301 468.228 606.247 467.404L605.829 467.241C604.643 466.792 603.648 466.558 602.746 466.516ZM564.102 459.7C564.036 459.942 563.951 460.258 563.871 460.54L563.864 460.564L563.857 460.586L563.638 461.31L563.572 461.529L563.539 461.593C563.173 462.636 562.745 463.66 562.254 464.655L562.143 464.879L562.123 464.905C560.961 467.162 559.458 469.045 557.806 470.665C557.689 470.779 557.566 470.895 557.44 471.015C559.738 471.491 562.071 471.71 564.369 471.663L564.617 470.902L564.618 470.9C565.665 467.685 566.375 465.736 566.618 463.93C566.809 462.506 566.689 461.213 565.946 459.554C565.514 459.429 564.91 459.263 564.266 459.114C564.211 459.308 564.156 459.503 564.102 459.7ZM550.309 451.799C549.403 452.327 548.231 453.04 547.039 453.682L546.527 453.953C544.659 454.918 542.814 455.465 541.268 455.877C539.421 456.368 537.572 456.7 535.692 456.791C537.983 459.816 540.601 462.515 543.576 464.81C544.233 463.926 545.101 463.04 545.639 462.5L546.058 462.079C546.924 461.171 547.698 460.2 548.209 459.348C548.676 458.569 549.495 456.778 550.282 454.656C550.57 453.88 550.822 453.131 551.035 452.45C550.795 452.213 550.567 451.987 550.354 451.773C550.339 451.781 550.324 451.79 550.309 451.799ZM575.596 426.17C573.076 425.292 570.311 425.428 567.889 426.551C565.233 427.819 563.442 429.532 562.974 430.852C562.358 432.59 562.525 435.085 563.449 436.997C563.969 438.074 565.098 439.074 566.923 439.703C567.573 439.926 568.15 439.97 568.763 439.816C568.767 439.804 568.772 439.793 568.776 439.781C568.852 439.529 568.913 439.14 568.92 438.354L568.907 436.996C568.902 436.384 568.9 435.705 568.917 435.234L568.994 433.133L570.466 431.646C570.482 431.629 570.501 431.608 570.523 431.585C570.584 431.521 570.667 431.434 570.762 431.336C570.94 431.153 571.206 430.887 571.455 430.664L571.456 430.663C571.75 430.401 572.209 430.025 572.794 429.688L572.794 429.687C573.362 429.361 574.355 428.896 575.653 428.833L575.703 428.83L575.754 428.829L576.281 428.823L576.359 428.826C577.96 428.9 579.272 429.475 580.141 429.969C581.046 430.484 581.812 431.107 582.409 431.69L582.654 431.938C584.307 433.658 585.207 435.827 585.7 437.572L585.793 437.913C586.239 439.623 586.441 441.418 586.388 443.016C586.214 448.258 583.547 452.061 580.562 454.833C580.266 455.108 580.044 455.308 579.869 455.469C579.984 455.74 580.108 456.025 580.265 456.382C580.404 456.698 580.572 457.088 580.729 457.494L580.881 457.903C581.648 460.063 581.929 462.308 581.789 464.506C582.662 463.579 583.461 462.562 584.169 461.452C587.992 455.454 589.309 447.655 587.814 440.786C586.344 434.034 582.286 428.554 575.596 426.17ZM615.293 446.906C613.208 446.794 610.67 447.364 607.928 448.302C607.679 448.387 607.428 448.465 607.202 448.534C607.123 449.164 607.044 449.867 606.975 450.59C606.941 450.948 606.911 451.297 606.886 451.632C608.488 452.06 610.619 452.622 612.592 453.438C614.359 454.17 617.156 455.692 619.652 457.294C620.303 457.712 620.963 458.155 621.606 458.611C621.699 458.063 621.804 457.465 621.932 456.787C622.314 454.77 622.591 453.808 622.748 452.468C622.902 451.151 623.023 449.834 623.106 448.526C623.015 448.516 622.928 448.506 622.845 448.495C621.699 448.349 620.515 448.083 619.526 447.847C618.371 447.572 617.657 447.382 616.746 447.173C615.876 446.975 615.445 446.914 615.293 446.906ZM527 430.535C526.842 433.955 527.088 437.346 527.812 440.513C527.959 440.989 528.16 441.511 528.439 442.181C528.441 442.185 528.442 442.189 528.443 442.193C529.232 442.147 529.972 442.129 530.63 442.115C531.956 442.087 532.932 442.07 533.885 441.963L534.166 441.927C535.615 441.718 537.692 441.099 539.743 440.127C542.009 439.053 543.503 437.9 544.102 437.128C544.064 436.873 544.022 436.615 543.977 436.36C543.581 436.32 543.053 436.278 542.326 436.225C538.952 435.982 535.71 435.397 532.614 434.048C530.586 433.164 528.735 432 527 430.535ZM618.07 422.992C617.784 423.084 617.521 423.163 617.291 423.229C616.665 423.407 616.197 423.525 615.819 423.621C615.44 423.718 615.173 423.787 614.871 423.883C610.512 425.261 606.611 427.483 604.23 430.406C604.394 430.987 604.597 431.655 604.832 432.346C604.874 432.471 604.918 432.593 604.96 432.712C605.607 432.546 606.444 432.335 607.285 432.188C610.093 431.698 613.579 431.368 617.077 431.678C618.451 431.799 619.903 432.028 621.358 432.419C621.205 431.61 621.049 430.876 620.797 430.016C620.422 428.742 619.905 427.542 619.225 425.818C618.851 424.873 618.466 423.93 618.07 422.992ZM536.247 404.456L536.247 404.457C535.656 405.174 535.399 405.555 535.314 405.72C533.558 409.11 531.986 412.278 530.776 415.501C531.259 415.779 531.682 416.053 532.03 416.287L532.76 416.785C533.36 417.202 533.631 417.41 534.092 417.684C537.213 419.543 540.076 420.897 542.413 421.091L542.717 421.109C543.436 421.138 544.235 421.069 545.569 420.968C545.928 420.941 546.216 420.921 546.449 420.905C546.72 420.465 547.018 419.953 547.328 419.387C546.889 419.024 546.465 418.663 546.056 418.305C541.86 414.64 538.252 410.22 536.303 404.39C536.283 404.413 536.264 404.435 536.247 404.456ZM602.931 400.762C602.41 401.344 601.849 401.923 601.334 402.437C600.601 403.167 599.82 403.909 599.253 404.456C598.945 404.753 598.711 404.983 598.542 405.152L598.275 405.431C597.225 406.708 595.836 408.779 594.718 410.979C594.083 412.228 593.633 413.336 593.353 414.235C593.787 414.653 594.409 415.248 594.833 415.686C595.297 416.166 595.692 416.599 596.027 416.967C596.864 416.305 597.944 415.448 598.513 415.063C600.678 413.598 604.283 411.542 608.088 410.286C608.929 410.009 609.827 409.754 610.759 409.555C610.522 409.237 610.283 408.923 610.04 408.616C607.778 405.761 605.424 403.131 602.931 400.762ZM560.031 387.898C557.386 388.473 554.792 389.305 552.284 390.402C552.008 390.523 551.684 390.709 551.14 391.071C550.707 391.359 549.84 391.968 549.005 392.445L548.843 392.538L548.831 392.543C548.33 392.83 547.838 393.13 547.355 393.443L547.412 393.548L547.462 393.641L547.505 393.737L547.965 394.767L547.981 394.802L547.996 394.838C548.152 395.216 548.289 395.576 548.406 395.886C548.671 396.59 548.827 397.025 549.017 397.475L549.167 397.814C549.533 398.614 550.021 399.48 550.621 400.507C551.219 401.531 552.925 403.693 555.047 405.851C556.069 406.89 557.077 407.817 557.962 408.518C558.256 408.751 558.511 408.937 558.726 409.084C558.989 408.991 559.278 408.886 559.585 408.769C559.678 408.734 559.772 408.696 559.865 408.66L559.219 406.496L559.21 406.468L559.203 406.44C558.997 405.691 558.828 404.939 558.697 404.369C558.553 403.748 558.442 403.281 558.315 402.854L558.314 402.853L558.142 402.281L558.1 401.689V401.683C557.981 399.954 557.937 398.039 558.149 396.053C558.378 393.898 558.919 391.244 559.754 388.703C559.841 388.439 559.934 388.17 560.031 387.898ZM575.367 387.329C575.068 389.154 574.546 390.724 574.238 391.75C572.852 396.38 572.614 400.166 574.011 403.927C574.364 404.878 574.622 405.545 574.853 406.044C575.792 406.313 577.004 406.634 578.241 406.913C578.621 406.999 578.989 407.076 579.338 407.146C580.82 403.556 582.905 399.931 585.454 396.842C585.969 396.217 586.497 395.653 586.923 395.2C587.377 394.718 587.712 394.364 588.026 394.001L588.031 393.995L589.2 392.654L590.065 392.462L590.383 392.391C590.496 392.31 590.644 392.205 590.801 392.101C589.349 391.373 587.847 390.718 586.288 390.141L586.256 390.131L586.199 390.109C582.683 388.759 579.041 387.823 575.367 387.329Z" fill="black"/>
<path fill-rule="evenodd" clip-rule="evenodd" d="M192.286 32.6493C241.542 -4.89652 299.888 -7.48678 357.574 11.8394C414.992 31.0759 472.56 72.1767 522.559 123.575C572.632 175.05 615.716 237.466 643.907 300.194C672.005 362.716 685.815 426.708 675.69 480.873C665.204 536.958 624.303 581.687 569.517 614.141C514.634 646.651 444.588 667.65 372.885 675.957C301.166 684.266 227.038 679.967 163.863 661.206C101.305 642.628 48.2518 609.456 20.0679 558.969L19.4066 557.773C1.80167 525.618 -2.66012 481.88 1.38646 434.363C5.45656 386.571 18.2545 333.581 36.602 281.843C54.9602 230.075 78.9941 179.225 105.756 135.701C132.433 92.3162 162.206 55.5781 192.286 32.6493ZM277.833 123.893C263.859 120.301 246.529 121.095 227.661 124.933C208.934 128.742 189.538 135.371 171.856 142.625C154.21 149.863 138.506 157.627 127.207 163.589C121.565 166.566 117.038 169.086 113.937 170.851C112.387 171.734 111.193 172.426 110.398 172.893C110.005 173.124 109.71 173.301 109.506 173.422L109.505 173.421L109.292 173.549L109.239 173.583L108.186 174.218C88.6098 209.773 70.997 249.087 56.8363 289.019C38.9308 339.511 26.6556 390.666 22.7791 436.184C18.8794 481.977 23.5955 520.719 38.2382 547.465C62.5342 591.84 109.979 622.807 169.977 640.625C229.851 658.406 300.986 662.676 370.414 654.633C439.86 646.587 506.852 626.308 558.573 595.671C610.387 564.978 645.657 524.686 654.586 476.927C663.584 428.792 651.515 369.497 624.325 308.994C614.308 286.705 602.303 264.404 588.7 242.625C554.465 231.123 529.662 235.633 502.732 239.057C473.985 242.713 443.973 244.769 403.795 221.938C368.63 201.957 353.7 180.226 339.361 162.888C332.26 154.303 325.43 146.904 316.266 140.488C307.142 134.099 295.241 128.369 277.833 123.893ZM303 74.2701C276.094 66.5622 251.432 70.7258 226.577 78.2001C213.811 82.0387 202.109 86.3708 189.189 90.5819C178.755 93.9825 168.041 97.1127 157.136 99.0434C147.757 110.999 138.487 124.173 129.449 138.328C139.325 133.42 151.016 127.97 163.705 122.764C182.12 115.21 202.876 108.07 223.381 103.899C243.745 99.7568 264.729 98.358 283.178 103.101C302.679 108.114 317.027 114.812 328.579 122.901C340.092 130.962 348.371 140.094 355.907 149.206C370.846 167.268 383.301 185.6 414.403 203.273L416.012 204.176C432.561 213.343 446.792 217.558 460.043 219.107C473.759 220.71 486.543 219.475 500.024 217.761C504.69 217.167 509.477 216.507 514.401 215.897C513.945 215.784 513.491 215.671 513.038 215.558C507.857 214.272 502.828 213.028 497.87 211.744C473.444 205.421 451.179 198.223 421.03 180.317C391.769 162.939 375.419 138.446 360.114 118.496C344.634 98.3175 329.815 81.9523 303 74.2701ZM350.754 32.1961C297.889 14.4851 247.455 17.5913 205.303 49.7217C197.685 55.5288 189.98 62.4165 182.257 70.262C182.35 70.2319 182.443 70.2027 182.536 70.1724C194.252 66.3538 207.508 61.5149 220.392 57.6404C246.834 49.689 276.211 44.2664 308.912 53.6341C342.649 63.299 361.033 84.4197 377.152 105.432C393.453 126.68 407.103 147.079 431.995 161.862C459.876 178.421 480.09 184.966 503.25 190.962C520.59 195.451 539.999 199.714 565.089 207.563C547.436 183.17 527.929 159.883 507.17 138.544C458.655 88.671 403.889 49.9981 350.754 32.1961Z" fill="black"/>
</svg>
