<svg width="251" height="251" viewBox="0 0 251 251" fill="none" xmlns="http://www.w3.org/2000/svg">
<g id="pbbls-logo">
<path id="pebble-outline" d="M9.73975 204.602C-14.292 160.776 30.442 46.7762 73.0724 14.3301C141.189 -37.514 261.087 101.057 246.835 177.176C232.368 254.444 48.7188 275.688 9.73975 204.602Z" stroke="black" stroke-width="6"/>
<g id="creature">
<path id="creature-01-body" d="M50.1204 116.649C52.495 113.084 58.3131 109.948 67.5745 107.241C75.7768 104.843 75.8845 98.2713 81.7615 92.5376C84.851 89.5234 85.8264 89.82 84.6879 93.4274C83.5494 97.0347 83.139 100.229 83.4566 103.012C83.7743 105.794 86.8269 109.378 92.6145 113.765C98.4021 118.152 101.181 123.301 100.951 129.211C100.721 135.122 101.131 139.661 102.182 142.83C103.233 145.998 105.049 149.39 107.629 153.007C110.209 156.623 115.928 159.881 124.785 162.78C133.642 165.679 139.889 166.74 143.525 165.961C147.162 165.182 152.525 163.111 159.615 159.749C166.705 156.386 169.744 156.01 168.732 158.621C167.72 161.232 165.057 165.275 160.742 170.75C156.428 176.224 150.675 180.965 143.484 184.971C136.293 188.977 128.243 190.936 119.332 190.847C110.422 190.758 101.333 189.034 92.0665 185.677C82.8 182.319 76.0589 179.06 71.8431 175.899C67.6274 172.739 64.22 169.432 61.6211 165.98C59.0221 162.528 57.2556 159.232 56.3214 156.093C55.3872 152.955 55.1077 148.73 55.4831 143.419C55.8584 138.108 54.4648 133.209 51.3022 128.724C48.1397 124.238 47.7457 120.213 50.1204 116.649Z" stroke="black" stroke-width="6" stroke-linecap="round" stroke-linejoin="round"/>
<path id="creature-02-ear" d="M94.4112 111.956C102.002 109.39 107.935 108.631 112.212 109.68C116.488 110.728 117.815 112.861 116.191 116.078C114.566 119.296 111.709 121.597 107.62 122.983L101.485 125.062" stroke="black" stroke-width="6" stroke-linecap="round" stroke-linejoin="round"/>
<path id="creature-03-ear" d="M47.0504 119.833L40.9548 115.256C36.891 112.205 35.2844 109.641 36.1348 107.565C36.9852 105.489 38.4318 104.192 40.4746 103.673C42.4793 103.164 47.8211 105.049 56.5 109.329" stroke="black" stroke-width="6" stroke-linecap="round" stroke-linejoin="round"/>
<path id="creature-04-left_eye" d="M70.5821 120.795C71.1167 119.285 70.3258 117.629 68.8155 117.096C67.3052 116.563 65.6473 117.355 65.1127 118.865L67.8474 119.83L70.5821 120.795ZM64.8837 119.511C64.349 121.021 65.14 122.677 66.6503 123.21C68.1606 123.743 69.8184 122.951 70.3531 121.442L67.6184 120.477L64.8837 119.511ZM67.8474 119.83L65.1127 118.865L64.8837 119.511L67.6184 120.477L70.3531 121.442L70.5821 120.795L67.8474 119.83Z" fill="black"/>
<path id="creature-05-right_eye" d="M80.6375 122.674C80.6377 121.018 79.2942 119.677 77.6367 119.678C75.9793 119.679 74.6356 121.023 74.6354 122.679L77.6365 122.677L80.6375 122.674ZM74.6353 123.692C74.6352 125.349 75.9786 126.69 77.6361 126.689C79.2935 126.688 80.6372 125.344 80.6374 123.688L77.6364 123.69L74.6353 123.692ZM77.6365 122.677L74.6354 122.679L74.6353 123.692L77.6364 123.69L80.6374 123.688L80.6375 122.674L77.6365 122.677Z" fill="black"/>
<path id="creature-06-smile" d="M50.4253 126.937C56.9517 131.138 62.6899 133.673 67.6399 134.542C72.5898 135.411 76.3341 135.633 78.8728 135.207" stroke="black" stroke-width="6" stroke-linecap="round" stroke-linejoin="round"/>
<path id="creature-07-paw" d="M52.3611 152.688C44.4601 153.102 41.7903 154.454 44.3517 156.745C46.9131 159.035 47.6156 161.326 46.459 163.615C45.3025 165.905 46.9684 166.378 51.4567 165.033L58.1893 163.017" stroke="black" stroke-width="6" stroke-linecap="round" stroke-linejoin="round"/>
<path id="creature-08-paw" d="M68.2201 173.091C56.243 179.227 53.0891 182.518 58.7584 182.965C64.4277 183.412 67.7931 185.474 68.8547 189.151C69.9163 192.827 71.3788 192.898 73.2422 189.364L76.0374 184.063" stroke="black" stroke-width="6" stroke-linecap="round" stroke-linejoin="round"/>
<path id="creature-09-paw" d="M127.373 193.668C130.827 202.826 133.049 205.835 134.038 202.695C135.027 199.556 136.896 198.372 139.646 199.143C142.395 199.915 142.779 198.467 140.797 194.799L137.823 189.298" stroke="black" stroke-width="6" stroke-linecap="round" stroke-linejoin="round"/>
<path id="creature-10-paw" d="M148.419 185.288C158.148 189.517 162.74 190.2 162.197 187.338C161.653 184.476 163.051 182.768 166.389 182.213C169.728 181.659 170.051 179.759 167.359 176.512L163.322 171.643" stroke="black" stroke-width="6" stroke-linecap="round" stroke-linejoin="round"/>
<path id="creature-11-crete" d="M104.152 136.779C110.966 137.976 113.682 140.677 112.3 144.882C110.918 149.087 111.219 149.922 113.201 147.387C115.183 144.852 116.967 143.523 118.552 143.399C120.137 143.275 121.044 145.482 121.272 150.021C121.5 154.559 122.997 155.473 125.765 152.763C128.532 150.052 130.304 150.463 131.079 153.994C131.854 157.526 132.69 157.66 133.588 154.397C134.485 151.134 135.575 148.914 136.858 147.738C138.141 146.561 139.764 146.286 141.727 146.911C143.691 147.536 144.608 148.984 144.479 151.255L144.249 154.962C144.249 154.962 149.023 150.027 152.235 151.255C156.026 152.705 154.231 161.439 154.231 161.439" stroke="black" stroke-width="6" stroke-linecap="round" stroke-linejoin="round"/>
<path id="creature-12-belly" d="M80.6209 157.929C87.2459 164.169 93.1944 168.157 98.4663 169.895C103.738 171.632 107.847 173.559 110.792 175.675C113.346 177.51 115.582 178.517 117.5 178.697" stroke="black" stroke-width="6" stroke-linecap="round" stroke-linejoin="round"/>
</g>
<g id="fossil">
<path id="fossil-01-shell" d="M212.732 163.746C208.555 169.444 199.156 163.739 204.899 156.487C210.542 149.362 222.653 158.047 220.042 169.962C217.431 181.876 188.459 183.339 190.801 158.562C191.96 146.303 201.998 137.5 213.776 139.917C228.918 143.025 237.618 159.258 233.618 173.071C228.784 189.763 204.899 207.893 197.455 179.403" stroke="black" stroke-width="6" stroke-linecap="round" stroke-linejoin="round"/>
<path id="fossil-02-line" d="M208.635 166.92C209.633 170.408 209.307 173.663 207.637 176.885" stroke="black" stroke-width="6" stroke-linecap="round" stroke-linejoin="round"/>
<path id="fossil-03-line" d="M203.226 163.673C202.147 166.92 197.654 169.411 194.161 169.909" stroke="black" stroke-width="6" stroke-linecap="round" stroke-linejoin="round"/>
<path id="fossil-04-line" d="M203.733 156.362C200.103 156.506 195.658 155.461 193.662 151.973" stroke="black" stroke-width="6" stroke-linecap="round" stroke-linejoin="round"/>
<path id="fossil-05-line" d="M208.654 152.759C206.489 149.846 205.713 145.112 206.139 141.51" stroke="black" stroke-width="6" stroke-linecap="round" stroke-linejoin="round"/>
<path id="fossil-06-line" d="M215.123 154.962C215.706 151.382 218.727 147.203 221.612 144.997" stroke="black" stroke-width="6" stroke-linecap="round" stroke-linejoin="round"/>
<path id="fossil-07-line" d="M219.962 161.18C222.176 158.305 227.009 156.535 230.596 155.959" stroke="black" stroke-width="6" stroke-linecap="round" stroke-linejoin="round"/>
<path id="fossil-08-line" d="M221.612 168.389C225.098 167.367 229.852 168.262 233.091 169.906" stroke="black" stroke-width="6" stroke-linecap="round" stroke-linejoin="round"/>
<path id="fossil-09-line" d="M218.118 176.387C221.196 178.314 223.691 182.841 224.607 186.351" stroke="black" stroke-width="6" stroke-linecap="round" stroke-linejoin="round"/>
<path id="fossil-10-line" d="M210.486 179.521C211.082 183.099 210.16 188.322 208.136 191.334" stroke="black" stroke-width="6" stroke-linecap="round" stroke-linejoin="round"/>
</g>
<path id="pebble-vein-1" d="M54.6052 32.2685C72.7324 29.9336 90.7912 16.4466 113.001 22.7996C135.564 29.2534 137.743 50.6926 157.922 62.6587C179.544 75.4808 189.576 72.8856 218.814 83.5872" stroke="black" stroke-width="6"/>
<path id="pebble-vein-2" d="M37.6353 60.1679C37.6353 60.1679 79.3566 35.0302 103.518 41.2323C131.025 48.2929 126.741 64.0952 151.433 78.1045C179.192 93.8537 192.072 75.3747 221.309 86.0763" stroke="black" stroke-width="6"/>
</g>
</svg>
