<svg width="260" height="310" viewBox="0 0 260 310" fill="none" xmlns="http://www.w3.org/2000/svg">
<path d="M240.534 97.2293C269.641 137.167 238.338 253.25 199.594 289.69C137.687 347.915 1.83443 226.634 7.15168 150.9C9.74288 113.993 35.2693 19.5454 84.5166 6.77289C137.852 -7.05988 215.987 63.5493 240.534 97.2293Z" stroke="black" stroke-width="6"/>
<path d="M252 144.19C250.997 183.752 226.997 270.236 161.739 238.455C124.632 220.383 92.0376 245.293 92.0376 280.455" stroke="black" stroke-width="6"/>
<path d="M252 144.19C250.997 183.752 230.437 282.428 163.243 256.038C132.153 243.827 118.113 266.783 118.113 293.646" stroke="black" stroke-width="6"/>
<path d="M232.443 236.012C220.91 261.899 201.575 280.999 176.281 275.086C163.744 272.156 144.689 276.063 144.689 301.46" stroke="black" stroke-width="6"/>
<path d="M169.222 31.0459C153.924 51.1918 143.885 72.2928 116.847 69.963C89.809 67.6332 56.6463 22.732 28.3477 68.7402" stroke="black" stroke-width="6"/>
<path d="M152.486 22.0107C141.868 36.0534 135.504 52.9605 117.431 49.6103C99.3583 46.2601 49.5161 18.0113 35.751 58.9203" stroke="black" stroke-width="6"/>
<path d="M131.547 11.6113C131.547 11.6113 127.187 24.7306 120.637 30.0661C109.141 39.4316 74.043 7.83893 44.4355 38.7518" stroke="black" stroke-width="6"/>
</svg>
