<svg width="260" height="260" viewBox="0 0 260 260" fill="none" xmlns="http://www.w3.org/2000/svg">
<path d="M13.7397 209.603C-10.292 165.777 34.442 51.7772 77.0723 19.3311C145.189 -32.513 265.087 106.058 250.835 182.177C236.368 259.445 52.7188 280.689 13.7397 209.603Z" stroke="black" stroke-width="6"/>
<path d="M58.605 37.2695C76.7322 34.9346 94.791 21.4476 117.001 27.8006C139.564 34.2544 141.742 55.6935 161.922 67.6597C183.544 80.4818 193.576 77.8865 222.813 88.5881" stroke="black" stroke-width="6"/>
<path d="M41.6353 65.1689C41.6353 65.1689 83.3566 40.0312 107.518 46.2332C135.025 53.2939 130.741 69.0962 155.433 83.1055C183.192 98.8547 196.072 80.3757 225.309 91.0773" stroke="black" stroke-width="6"/>
<path fill-rule="evenodd" clip-rule="evenodd" d="M237.966 185.55C233.549 191.583 224.998 195.185 217.555 193.854C217.36 193.819 217.164 193.796 216.849 193.745C216.597 193.704 216.252 193.642 215.981 193.541C215.238 193.264 214.496 192.997 213.745 192.731L213.706 192.717C212.759 192.337 212.016 191.962 211.149 191.481L211.151 191.481C210.974 191.385 210.789 191.304 210.541 191.191C210.309 191.084 210.028 190.952 209.757 190.777C205.186 187.821 201.998 183.554 199.537 178.951C199.301 178.51 199.105 178.041 198.931 177.614C198.751 177.172 198.596 176.778 198.42 176.416C196.235 171.901 195.427 167.035 196.606 162.03C196.839 161.04 197.281 159.915 197.58 159.049L197.76 158.525C198.681 155.906 199.918 153.403 201.443 151.071C204.769 145.907 210.253 140.538 216.633 138.999C219.931 138.204 224.34 138.888 227.203 140.687C231.069 143.074 234.012 146.671 235.566 150.91L235.567 150.912C236.1 152.38 236.349 153.511 236.463 155.076C236.503 155.626 236.421 156.222 236.378 156.633C236.331 157.087 236.329 157.363 236.372 157.552C236.383 157.57 236.403 157.605 236.44 157.658C236.516 157.768 236.623 157.904 236.748 158.052C236.997 158.35 237.268 158.643 237.426 158.816C242.619 164.524 244.447 172.756 241.099 179.981C240.703 180.836 240.201 182.151 239.639 183.146C239.168 183.979 238.589 184.81 237.966 185.55ZM233.223 155.341C233.169 154.14 232.956 152.994 232.499 151.886C232.324 151.463 232.128 151.122 231.881 150.612C231.436 149.695 230.9 148.769 230.28 148.086C229.731 147.48 229.229 146.908 228.698 146.501L228.699 146.502C228.589 146.418 228.464 146.338 228.297 146.236C228.159 146.15 227.984 146.041 227.81 145.917C226.42 145.078 225.489 144.65 223.932 144.221C223.297 144.046 222.805 143.879 222.293 143.798C221.824 143.723 221.303 143.732 220.764 143.792C222.325 145.105 223.562 146.757 224.376 148.623L224.535 149.016C224.884 149.954 225.088 151.012 225.295 151.77L225.294 151.771C225.305 151.81 225.324 151.858 225.37 151.966C225.408 152.057 225.475 152.214 225.524 152.385C225.543 152.453 225.556 152.518 225.565 152.573L225.584 152.579C226.68 152.932 227.73 153.201 228.882 153.543C230.001 153.875 231.146 154.257 232.262 154.797C232.604 154.962 232.924 155.155 233.223 155.341ZM219.246 153.542C219.429 153.515 220.052 153.372 220.718 153.193C221.041 153.106 221.354 153.016 221.604 152.935C221.733 152.894 221.825 152.862 221.886 152.839C221.88 152.192 221.667 151.37 221.286 150.482C220.839 149.441 220.224 148.442 219.703 147.758C219.436 147.408 218.796 146.612 218.129 145.896C217.794 145.538 217.47 145.218 217.194 144.988C217.055 144.873 216.946 144.793 216.866 144.745C216.848 144.735 216.833 144.729 216.822 144.724C216.736 144.723 216.563 144.744 216.284 144.847C215.97 144.964 215.608 145.147 215.222 145.374C214.413 145.848 213.724 146.364 213.137 146.744C213.134 146.745 213.132 146.748 213.13 146.749C213.185 146.769 213.24 146.79 213.293 146.813C213.853 147.051 214.338 147.412 214.699 147.675C215.808 148.482 216.744 149.32 217.531 150.576C217.78 150.973 218.023 151.398 218.232 151.84C218.322 152.031 218.417 152.278 218.498 152.48C218.587 152.702 218.675 152.913 218.77 153.103C218.867 153.297 218.953 153.432 219.025 153.514C219.04 153.531 219.053 153.543 219.062 153.552C219.099 153.554 219.158 153.555 219.246 153.542ZM213.888 156.806C214.485 156.366 215.34 155.691 215.904 155.151C215.852 154.971 215.802 154.798 215.756 154.642C215.658 154.312 215.561 154.015 215.437 153.729C215.008 152.748 214.341 151.942 213.539 151.12C212.87 150.435 212.031 149.672 211.295 148.847L210.986 148.489L210.871 148.351C210.485 148.678 210.116 149.013 209.775 149.357C208.996 150.142 208.273 151.096 207.55 152.049L207.52 152.089C207.731 152.138 207.923 152.206 208.078 152.266C208.189 152.31 208.297 152.356 208.389 152.395C208.485 152.435 208.562 152.467 208.633 152.494C209.406 152.79 210.325 153.196 211.073 153.798C211.364 154.033 211.677 154.377 211.962 154.704C212.11 154.874 212.265 155.055 212.416 155.234C212.57 155.414 212.721 155.594 212.872 155.769C213.18 156.123 213.463 156.431 213.712 156.657C213.781 156.719 213.84 156.769 213.888 156.806ZM208.531 160.937C209.223 161.202 209.865 161.331 210.518 161.245C210.655 161.071 210.845 160.796 211.054 160.451C211.238 160.145 211.401 159.844 211.518 159.607C211.291 159.148 210.926 158.611 210.477 158.066C209.925 157.395 209.304 156.776 208.802 156.355C208.538 156.135 208.259 155.958 207.889 155.698C207.634 155.519 207.146 155.195 206.715 154.877C206.468 154.695 206.186 154.477 205.935 154.246C205.624 154.697 205.328 155.154 205.054 155.624C204.741 156.158 204.533 156.702 204.209 157.39C203.988 157.859 203.768 158.322 203.558 158.781C204.396 159.017 205.225 159.339 205.99 159.707C206.958 160.172 207.678 160.609 208.531 160.937ZM224.51 164.139C224.558 164.031 224.61 163.895 224.664 163.736C224.734 163.528 224.798 163.308 224.858 163.102C224.886 163.008 224.915 162.907 224.944 162.812L225.028 162.554L225.029 162.551C225.158 162.195 225.311 161.848 225.485 161.511L225.486 161.508C225.864 160.782 226.362 160.173 226.927 159.638C227.323 159.263 227.829 158.847 228.462 158.589C228.512 158.568 228.579 158.54 228.656 158.51C228.582 158.479 228.508 158.446 228.43 158.417C226.639 157.734 224.7 157.479 222.849 157.666L223.115 157.837L222.873 158.538C222.126 160.703 221.621 161.789 222.466 163.503C222.505 163.581 222.638 163.707 222.807 163.761C223.021 163.83 223.511 163.97 223.985 164.063C224.187 164.103 224.367 164.127 224.51 164.139ZM219.253 175.682C220.398 176.089 221.662 176.037 222.776 175.539C223.827 175.056 224.78 174.302 225.092 173.468C225.424 172.583 225.344 171.425 224.922 170.533C224.603 169.856 223.96 169.352 223.128 169.062C222.55 168.86 222.003 168.891 221.434 169.159C221.42 169.176 221.398 169.204 221.373 169.246C221.307 169.362 221.247 169.511 221.202 169.65C221.131 169.869 221.103 170.116 221.095 170.431C221.089 170.668 221.099 171.177 221.082 171.517L221.062 171.892L220.792 172.155C220.783 172.164 220.603 172.35 220.475 172.461C220.396 172.529 220.285 172.616 220.151 172.691C220.023 172.762 219.815 172.855 219.553 172.865L219.391 172.865C219.019 172.845 218.699 172.709 218.466 172.575C218.192 172.418 217.959 172.219 217.787 172.037C217.351 171.579 217.093 170.971 216.946 170.426C216.796 169.87 216.734 169.28 216.759 168.775C216.833 167.25 217.625 166.125 218.604 165.246C218.838 165.035 219.012 164.893 219.163 164.721C219.259 164.612 219.289 164.551 219.297 164.532C219.296 164.516 219.292 164.473 219.272 164.399C219.247 164.302 219.206 164.184 219.15 164.043C219.094 163.9 219.032 163.759 218.965 163.601C218.902 163.454 218.831 163.283 218.775 163.122C218.248 161.586 218.546 159.892 219.447 158.587C218.024 159.255 216.779 160.267 215.869 161.639C214.312 163.988 213.75 167.027 214.303 169.726C214.853 172.404 216.478 174.679 219.253 175.682ZM228.667 166.894C228.886 166.786 229.109 166.665 229.342 166.533C229.745 166.306 230.209 166.031 230.676 165.798C231.259 165.507 231.845 165.338 232.387 165.2C233.655 164.877 234.851 164.788 236.11 165.123C234.955 163.153 233.49 161.427 231.66 160.078L231.205 159.755L231.197 159.75L231.188 159.744C231.142 159.712 231.078 159.679 230.98 159.636C230.925 160.049 230.714 160.328 230.613 160.463C230.339 160.828 229.947 161.179 229.759 161.369C229.408 161.725 229.072 162.126 228.833 162.507C228.612 162.861 228.281 163.565 227.979 164.336C227.774 164.859 227.609 165.359 227.502 165.748C227.738 165.968 227.956 166.188 228.154 166.389C228.334 166.572 228.502 166.74 228.667 166.894ZM205.298 168.233C206.239 168.29 207.303 168.045 208.334 167.706C208.478 167.658 208.626 167.617 208.743 167.584C208.869 167.548 208.97 167.52 209.061 167.488C209.1 167.474 209.134 167.46 209.164 167.448C209.223 167.118 209.298 166.611 209.358 166.077C209.4 165.7 209.43 165.337 209.443 165.046C209.445 164.986 209.444 164.932 209.444 164.882C209.276 164.822 209.083 164.785 208.728 164.688C208.133 164.526 207.414 164.334 206.761 164.06L206.76 164.06C206.198 163.824 205.249 163.306 204.383 162.745C203.945 162.461 203.507 162.154 203.136 161.85C202.939 161.688 202.736 161.507 202.555 161.314C202.536 161.377 202.513 161.44 202.495 161.505C202.307 162.154 202.224 162.761 202.063 163.541C201.932 164.175 201.803 164.629 201.734 165.148C201.624 165.975 201.547 166.81 201.521 167.635C201.867 167.574 202.222 167.6 202.507 167.639C202.865 167.687 203.248 167.773 203.6 167.859C203.981 167.951 204.284 168.033 204.609 168.109C204.927 168.183 205.152 168.224 205.298 168.233ZM237.887 175.47C238.252 173.501 238.29 171.434 237.875 169.54C237.81 169.315 237.723 169.085 237.617 168.824C237.537 168.627 237.444 168.4 237.355 168.166C236.848 168.229 236.355 168.237 235.915 168.243C235.451 168.249 235.047 168.252 234.649 168.294C233.991 168.362 233.082 168.621 232.214 169.018C231.331 169.422 230.624 169.909 230.265 170.357C230.1 170.563 230.038 170.74 230.042 170.909L230.048 170.981C230.09 171.324 230.152 171.691 230.23 172.021C230.55 172.159 230.923 172.185 231.58 172.237C232.733 172.328 233.782 172.529 234.758 172.96C235.743 173.394 236.606 174.039 237.419 174.955C237.516 175.064 237.71 175.266 237.887 175.47ZM203.711 177.059C204.062 176.854 204.461 176.729 204.77 176.644C205.195 176.528 205.399 176.493 205.674 176.409C207.527 175.847 209.317 174.855 210.33 173.398C210.265 173.105 210.147 172.661 209.993 172.192C209.886 171.867 209.774 171.565 209.671 171.332C209.659 171.304 209.647 171.278 209.635 171.254C209.433 171.28 209.219 171.326 208.963 171.388C208.697 171.453 208.363 171.539 208.026 171.595C207.064 171.753 205.892 171.852 204.739 171.742C203.736 171.647 202.677 171.387 201.786 170.809C201.829 170.985 201.877 171.176 201.915 171.361C202.09 172.229 202.148 172.843 202.347 173.55C202.492 174.06 202.697 174.554 202.92 175.135C203.167 175.779 203.431 176.424 203.711 177.059ZM233.173 184.737C233.378 184.506 233.577 184.269 233.771 184.024C233.964 183.781 234.247 183.471 234.435 183.251C234.656 182.992 234.81 182.789 234.894 182.633C235.699 181.146 236.435 179.717 236.945 178.2C236.508 178.062 236.127 177.824 235.833 177.625C235.486 177.39 235.296 177.239 235.052 177.092C233.933 176.419 232.735 175.816 231.647 175.719C231.261 175.685 230.868 175.718 230.354 175.752C229.965 175.778 229.73 175.785 229.546 175.817C229.365 176.063 229.138 176.422 228.903 176.834C228.769 177.07 228.64 177.309 228.525 177.532C228.9 177.803 229.239 178.091 229.571 178.383C231.104 179.735 232.337 181.33 232.889 183.452C232.953 183.699 233.089 184.214 233.173 184.737ZM209.803 185.043C209.892 184.9 210.002 184.761 210.108 184.637C210.321 184.387 210.591 184.115 210.85 183.866C211.111 183.615 211.384 183.363 211.599 183.162C211.719 183.051 211.811 182.963 211.879 182.897L212.015 182.761C212.454 182.25 213.015 181.443 213.468 180.59C213.853 179.866 214.107 179.203 214.194 178.703C214.121 178.62 214.036 178.531 213.94 178.434C213.776 178.271 213.496 178.009 213.3 177.804C212.857 177.342 212.632 177.041 212.285 176.733C212.159 176.815 212.012 176.916 211.855 177.032C211.5 177.295 210.974 177.715 210.723 177.879C209.983 178.364 208.752 179.039 207.481 179.443C206.845 179.644 206.155 179.792 205.487 179.791C205.355 179.791 205.22 179.784 205.085 179.77C205.454 180.393 205.852 180.988 206.286 181.543C207.347 182.898 208.476 184.133 209.715 185.207C209.749 185.138 209.779 185.081 209.803 185.043ZM223.327 189.699C224.993 189.549 226.638 189.151 228.203 188.49C228.384 188.414 228.559 188.311 228.769 188.176C228.96 188.053 229.226 187.871 229.492 187.724L229.496 187.722C230.013 187.439 230.505 187.122 230.973 186.775L230.928 186.655C230.918 186.644 230.899 186.623 230.868 186.589C230.814 186.531 230.648 186.367 230.518 186.141L230.465 186.041L230.304 185.673C230.256 185.552 230.212 185.434 230.172 185.325C230.087 185.092 230.021 184.905 229.945 184.72C229.787 184.336 229.568 183.942 229.328 183.523C229.059 183.055 228.392 182.213 227.613 181.413C227.231 181.021 226.842 180.659 226.486 180.374C226.154 180.109 225.898 179.952 225.733 179.879C225.69 179.889 225.627 179.902 225.543 179.927C225.372 179.978 225.167 180.048 224.952 180.127C224.592 180.258 224.244 180.403 224.033 180.497C224.075 180.73 224.134 180.952 224.203 181.189L224.467 182.112C224.531 182.356 224.583 182.601 224.63 182.813C224.678 183.034 224.721 183.229 224.775 183.415L224.804 183.517L224.81 183.622C224.843 184.209 224.847 184.831 224.77 185.463C224.684 186.164 224.488 187.044 224.196 187.883C223.982 188.498 223.696 189.148 223.327 189.699ZM220.349 189.707C220.335 188.798 220.637 187.956 220.831 187.348C221.392 185.586 221.548 184.006 220.967 182.391C220.777 181.864 220.628 181.464 220.426 181.156C220.059 181.039 219.421 180.858 218.765 180.706C218.35 180.61 217.958 180.531 217.649 180.489C217.608 180.484 217.568 180.481 217.532 180.477C217.484 180.586 217.437 180.703 217.392 180.818C217.353 180.918 217.302 181.052 217.265 181.138C216.744 182.352 216.014 183.573 215.136 184.599C214.968 184.795 214.795 184.976 214.639 185.135C214.477 185.301 214.338 185.442 214.206 185.589L213.992 185.827L213.688 185.891C213.683 185.894 213.675 185.898 213.666 185.903C213.64 185.92 213.61 185.941 213.561 185.975C213.519 186.005 213.455 186.05 213.388 186.093C213.098 186.28 212.635 186.589 212.132 186.779C212.06 186.806 211.984 186.831 211.906 186.855C212.925 187.511 214.017 188.07 215.199 188.512L215.21 188.516C216.865 189.159 218.6 189.564 220.349 189.707Z" fill="black"/>
</svg>
