<svg width="260" height="260" viewBox="0 0 260 260" fill="none" xmlns="http://www.w3.org/2000/svg">
<g clip-path="url(#clip0_286_2054)">
<path d="M230.231 213.243C183.115 241.634 42.7052 255.483 23.9126 213.243C6.77533 174.723 -11.5653 93.1281 16.5271 53.8184C44.6194 14.5088 192.042 7.41043 217.336 43.4462C248.2 87.4175 281.912 182.101 230.231 213.243Z" stroke="black" stroke-width="6"/>
<path d="M100.786 240C222.792 214.339 266.436 171.207 227.255 59.2803" stroke="black" stroke-width="6"/>
<path fill-rule="evenodd" clip-rule="evenodd" d="M187.442 152.55C191.86 158.583 200.411 162.185 207.854 160.854C208.049 160.819 208.245 160.796 208.56 160.745C208.812 160.704 209.157 160.642 209.427 160.541C210.17 160.264 210.912 159.997 211.664 159.731L211.702 159.717C212.65 159.337 213.393 158.962 214.26 158.481L214.258 158.481C214.435 158.385 214.619 158.304 214.868 158.191C215.1 158.084 215.381 157.952 215.652 157.777C220.222 154.821 223.41 150.554 225.872 145.951C226.108 145.51 226.304 145.041 226.478 144.614C226.658 144.172 226.813 143.778 226.988 143.416C229.174 138.901 229.982 134.035 228.803 129.03C228.57 128.04 228.128 126.915 227.829 126.049L227.649 125.525C226.728 122.906 225.491 120.403 223.966 118.071C220.639 112.907 215.156 107.538 208.776 105.999C205.477 105.204 201.069 105.888 198.206 107.687C194.34 110.074 191.396 113.671 189.843 117.91L189.842 117.912C189.309 119.38 189.06 120.511 188.946 122.076C188.906 122.626 188.988 123.222 189.03 123.633C189.077 124.087 189.08 124.363 189.037 124.552C189.026 124.57 189.006 124.605 188.969 124.658C188.892 124.768 188.785 124.904 188.661 125.052C188.412 125.35 188.141 125.643 187.983 125.816C182.79 131.524 180.962 139.756 184.31 146.981C184.706 147.836 185.208 149.151 185.77 150.146C186.24 150.979 186.82 151.81 187.442 152.55ZM192.186 122.341C192.24 121.14 192.453 119.994 192.91 118.886C193.084 118.463 193.28 118.122 193.528 117.612C193.972 116.695 194.509 115.769 195.128 115.086C195.678 114.48 196.179 113.908 196.711 113.501L196.71 113.502C196.82 113.418 196.945 113.338 197.111 113.236C197.25 113.15 197.425 113.041 197.599 112.917C198.989 112.078 199.92 111.65 201.476 111.221C202.112 111.046 202.604 110.879 203.115 110.798C203.585 110.723 204.105 110.732 204.645 110.792C203.083 112.105 201.847 113.757 201.033 115.623L200.873 116.016C200.525 116.954 200.321 118.012 200.114 118.77L200.115 118.771C200.104 118.81 200.085 118.858 200.039 118.966C200.001 119.057 199.933 119.214 199.885 119.385C199.866 119.453 199.853 119.518 199.844 119.573L199.824 119.579C198.729 119.932 197.679 120.201 196.527 120.543C195.408 120.875 194.263 121.257 193.147 121.797C192.805 121.962 192.485 122.155 192.186 122.341ZM206.162 120.542C205.98 120.515 205.356 120.372 204.69 120.193C204.367 120.106 204.055 120.016 203.805 119.935C203.676 119.894 203.584 119.862 203.523 119.839C203.528 119.192 203.742 118.37 204.123 117.482C204.57 116.441 205.185 115.442 205.705 114.758C205.972 114.408 206.612 113.612 207.28 112.896C207.614 112.538 207.939 112.218 208.215 111.988C208.353 111.873 208.463 111.793 208.543 111.745C208.56 111.735 208.576 111.729 208.586 111.724C208.673 111.723 208.846 111.744 209.125 111.847C209.439 111.964 209.8 112.147 210.187 112.374C210.996 112.848 211.685 113.364 212.272 113.744C212.274 113.745 212.276 113.748 212.279 113.749C212.224 113.769 212.169 113.79 212.115 113.813C211.556 114.051 211.07 114.412 210.709 114.675C209.6 115.482 208.665 116.32 207.877 117.576C207.629 117.973 207.385 118.398 207.177 118.84C207.087 119.031 206.991 119.278 206.91 119.48C206.822 119.702 206.734 119.913 206.639 120.103C206.542 120.297 206.456 120.432 206.384 120.514C206.369 120.531 206.356 120.543 206.347 120.552C206.31 120.554 206.25 120.555 206.162 120.542ZM211.521 123.806C210.923 123.366 210.068 122.691 209.505 122.151C209.557 121.971 209.607 121.798 209.653 121.642C209.75 121.312 209.848 121.015 209.972 120.729C210.4 119.748 211.067 118.942 211.87 118.12C212.539 117.435 213.378 116.672 214.114 115.847L214.423 115.489L214.538 115.351C214.924 115.678 215.293 116.013 215.634 116.357C216.412 117.142 217.136 118.096 217.859 119.049L217.889 119.089C217.678 119.138 217.486 119.206 217.331 119.266C217.22 119.31 217.111 119.356 217.02 119.395C216.924 119.435 216.846 119.467 216.776 119.494C216.002 119.79 215.083 120.196 214.336 120.798C214.045 121.033 213.731 121.377 213.447 121.704C213.298 121.874 213.144 122.055 212.992 122.234C212.839 122.414 212.688 122.594 212.536 122.769C212.229 123.123 211.946 123.431 211.697 123.657C211.628 123.719 211.569 123.769 211.521 123.806ZM216.877 127.937C216.185 128.202 215.544 128.331 214.891 128.245C214.754 128.071 214.563 127.796 214.355 127.451C214.171 127.145 214.008 126.844 213.891 126.607C214.118 126.148 214.483 125.611 214.931 125.066C215.483 124.395 216.105 123.776 216.607 123.355C216.871 123.135 217.149 122.958 217.52 122.698C217.775 122.519 218.263 122.195 218.694 121.877C218.94 121.695 219.223 121.477 219.474 121.246C219.785 121.697 220.081 122.154 220.355 122.624C220.668 123.158 220.876 123.702 221.2 124.39C221.42 124.859 221.64 125.322 221.851 125.781C221.013 126.017 220.184 126.339 219.419 126.707C218.451 127.172 217.731 127.609 216.877 127.937ZM200.898 131.139C200.851 131.031 200.798 130.895 200.745 130.736C200.675 130.528 200.611 130.308 200.55 130.102C200.523 130.008 200.493 129.907 200.465 129.812L200.38 129.554L200.379 129.551C200.25 129.195 200.098 128.848 199.924 128.511L199.923 128.508C199.544 127.782 199.046 127.173 198.482 126.638C198.086 126.263 197.58 125.847 196.947 125.589C196.896 125.568 196.829 125.54 196.753 125.51C196.826 125.479 196.901 125.446 196.979 125.417C198.77 124.734 200.708 124.479 202.559 124.666L202.293 124.837L202.535 125.538C203.283 127.703 203.788 128.789 202.943 130.503C202.904 130.581 202.771 130.707 202.601 130.761C202.388 130.83 201.898 130.97 201.424 131.063C201.222 131.103 201.042 131.127 200.898 131.139ZM206.156 142.682C205.011 143.089 203.747 143.037 202.632 142.539C201.582 142.056 200.629 141.302 200.316 140.468C199.985 139.583 200.065 138.425 200.486 137.533C200.806 136.856 201.449 136.352 202.28 136.062C202.859 135.86 203.406 135.891 203.974 136.159C203.988 136.176 204.011 136.204 204.035 136.246C204.102 136.362 204.162 136.511 204.207 136.65C204.278 136.869 204.306 137.116 204.314 137.431C204.32 137.668 204.309 138.177 204.327 138.517L204.347 138.892L204.617 139.155C204.626 139.164 204.806 139.35 204.934 139.461C205.013 139.529 205.124 139.616 205.257 139.691C205.386 139.762 205.594 139.855 205.855 139.865L206.018 139.865C206.39 139.845 206.71 139.709 206.943 139.575C207.217 139.418 207.449 139.219 207.622 139.037C208.058 138.579 208.316 137.971 208.463 137.426C208.613 136.87 208.674 136.28 208.65 135.775C208.576 134.25 207.784 133.125 206.805 132.246C206.571 132.035 206.396 131.893 206.246 131.721C206.15 131.612 206.12 131.551 206.112 131.532C206.113 131.516 206.117 131.473 206.136 131.399C206.161 131.302 206.203 131.184 206.259 131.043C206.315 130.9 206.376 130.759 206.444 130.601C206.507 130.454 206.578 130.283 206.633 130.122C207.161 128.586 206.863 126.892 205.962 125.587C207.385 126.255 208.629 127.267 209.539 128.639C211.097 130.988 211.659 134.027 211.105 136.726C210.556 139.404 208.931 141.679 206.156 142.682ZM196.742 133.894C196.523 133.786 196.3 133.665 196.066 133.533C195.664 133.306 195.2 133.031 194.732 132.798C194.15 132.507 193.564 132.338 193.021 132.2C191.753 131.877 190.557 131.788 189.299 132.123C190.454 130.153 191.919 128.427 193.749 127.078L194.204 126.755L194.212 126.75L194.221 126.744C194.266 126.712 194.331 126.679 194.428 126.636C194.483 127.049 194.694 127.328 194.796 127.463C195.07 127.828 195.461 128.179 195.65 128.369C196.001 128.725 196.337 129.126 196.576 129.507C196.797 129.861 197.128 130.565 197.43 131.336C197.634 131.859 197.8 132.359 197.907 132.748C197.671 132.968 197.452 133.188 197.255 133.389C197.075 133.572 196.907 133.74 196.742 133.894ZM220.111 135.233C219.169 135.29 218.106 135.045 217.075 134.706C216.931 134.658 216.783 134.617 216.666 134.584C216.54 134.548 216.439 134.52 216.348 134.488C216.308 134.474 216.274 134.46 216.244 134.448C216.186 134.118 216.11 133.611 216.051 133.077C216.009 132.7 215.978 132.337 215.966 132.046C215.963 131.986 215.965 131.932 215.964 131.882C216.132 131.822 216.326 131.785 216.681 131.688C217.276 131.526 217.994 131.334 218.648 131.06L218.649 131.06C219.211 130.824 220.16 130.306 221.026 129.745C221.464 129.461 221.902 129.154 222.272 128.85C222.47 128.688 222.673 128.507 222.853 128.314C222.873 128.377 222.895 128.44 222.914 128.505C223.101 129.154 223.184 129.761 223.346 130.541C223.477 131.175 223.606 131.629 223.675 132.148C223.785 132.975 223.862 133.81 223.887 134.635C223.542 134.574 223.187 134.6 222.902 134.639C222.544 134.687 222.16 134.773 221.809 134.859C221.428 134.951 221.124 135.033 220.799 135.109C220.482 135.183 220.256 135.224 220.111 135.233ZM187.522 142.47C187.156 140.501 187.118 138.434 187.534 136.54C187.599 136.315 187.686 136.085 187.792 135.824C187.872 135.627 187.965 135.4 188.054 135.166C188.56 135.229 189.054 135.237 189.494 135.243C189.958 135.249 190.361 135.252 190.76 135.294C191.418 135.362 192.327 135.621 193.195 136.018C194.078 136.422 194.785 136.909 195.144 137.357C195.309 137.563 195.37 137.74 195.367 137.909L195.361 137.981C195.318 138.324 195.257 138.691 195.179 139.021C194.859 139.159 194.485 139.185 193.829 139.237C192.676 139.328 191.627 139.529 190.651 139.96C189.666 140.394 188.802 141.039 187.989 141.955C187.892 142.064 187.698 142.266 187.522 142.47ZM221.697 144.059C221.347 143.854 220.948 143.729 220.638 143.644C220.214 143.528 220.01 143.493 219.734 143.409C217.882 142.847 216.092 141.855 215.078 140.398C215.143 140.105 215.262 139.661 215.416 139.192C215.522 138.867 215.635 138.565 215.738 138.332C215.75 138.304 215.762 138.278 215.773 138.254C215.975 138.28 216.19 138.326 216.445 138.388C216.712 138.453 217.045 138.539 217.382 138.595C218.345 138.753 219.517 138.852 220.67 138.742C221.673 138.647 222.732 138.387 223.623 137.809C223.58 137.985 223.531 138.176 223.494 138.361C223.318 139.229 223.261 139.843 223.061 140.55C222.917 141.06 222.711 141.554 222.488 142.135C222.241 142.779 221.978 143.424 221.697 144.059ZM192.235 151.737C192.031 151.506 191.832 151.269 191.638 151.024C191.445 150.781 191.162 150.471 190.973 150.251C190.752 149.992 190.599 149.789 190.514 149.633C189.71 148.146 188.974 146.717 188.464 145.2C188.9 145.062 189.282 144.824 189.576 144.625C189.923 144.39 190.113 144.239 190.356 144.092C191.476 143.419 192.673 142.816 193.761 142.719C194.148 142.685 194.541 142.718 195.055 142.752C195.444 142.778 195.679 142.785 195.863 142.817C196.043 143.063 196.27 143.422 196.505 143.834C196.64 144.07 196.768 144.309 196.883 144.532C196.509 144.803 196.17 145.091 195.838 145.383C194.305 146.735 193.072 148.33 192.52 150.452C192.455 150.699 192.319 151.214 192.235 151.737ZM215.605 152.043C215.516 151.9 215.406 151.761 215.301 151.637C215.088 151.387 214.817 151.115 214.559 150.866C214.298 150.615 214.025 150.363 213.809 150.162C213.69 150.051 213.598 149.963 213.529 149.897L213.394 149.761C212.955 149.25 212.394 148.443 211.94 147.59C211.556 146.866 211.302 146.203 211.215 145.703C211.288 145.62 211.372 145.531 211.469 145.434C211.633 145.271 211.913 145.009 212.109 144.804C212.551 144.342 212.776 144.041 213.124 143.733C213.25 143.815 213.397 143.916 213.554 144.032C213.909 144.295 214.435 144.715 214.685 144.879C215.426 145.364 216.657 146.039 217.928 146.443C218.563 146.644 219.254 146.792 219.921 146.791C220.054 146.791 220.189 146.784 220.324 146.77C219.955 147.393 219.556 147.988 219.122 148.543C218.062 149.898 216.933 151.133 215.694 152.207C215.66 152.138 215.629 152.081 215.605 152.043ZM202.082 156.699C200.416 156.549 198.771 156.151 197.206 155.49C197.025 155.414 196.85 155.311 196.64 155.176C196.449 155.053 196.183 154.871 195.917 154.724L195.913 154.722C195.395 154.439 194.904 154.122 194.436 153.775L194.481 153.655C194.491 153.644 194.509 153.623 194.541 153.589C194.595 153.531 194.761 153.367 194.89 153.141L194.944 153.041L195.104 152.673C195.153 152.552 195.196 152.434 195.236 152.325C195.321 152.092 195.387 151.905 195.464 151.72C195.622 151.336 195.841 150.942 196.081 150.523C196.349 150.055 197.017 149.213 197.795 148.413C198.177 148.021 198.567 147.659 198.923 147.374C199.255 147.109 199.511 146.952 199.675 146.879C199.718 146.889 199.782 146.902 199.866 146.927C200.036 146.978 200.242 147.048 200.457 147.127C200.816 147.258 201.164 147.403 201.376 147.497C201.333 147.73 201.274 147.952 201.206 148.189L200.942 149.112C200.878 149.356 200.826 149.601 200.779 149.813C200.731 150.034 200.688 150.229 200.634 150.415L200.604 150.517L200.598 150.622C200.566 151.209 200.561 151.831 200.639 152.463C200.725 153.164 200.92 154.044 201.213 154.883C201.427 155.498 201.712 156.148 202.082 156.699ZM205.06 156.707C205.074 155.798 204.772 154.956 204.578 154.348C204.016 152.586 203.861 151.006 204.442 149.391C204.632 148.864 204.78 148.464 204.983 148.156C205.35 148.039 205.988 147.858 206.644 147.706C207.058 147.61 207.451 147.531 207.759 147.489C207.801 147.484 207.841 147.481 207.876 147.477C207.925 147.586 207.972 147.703 208.017 147.818C208.056 147.918 208.106 148.052 208.143 148.138C208.665 149.352 209.395 150.573 210.273 151.599C210.44 151.795 210.614 151.976 210.77 152.135C210.931 152.301 211.071 152.442 211.203 152.589L211.417 152.827L211.72 152.891C211.726 152.894 211.734 152.898 211.742 152.903C211.769 152.92 211.799 152.941 211.847 152.975C211.89 153.005 211.954 153.05 212.021 153.093C212.311 153.28 212.774 153.589 213.277 153.779C213.349 153.806 213.425 153.831 213.503 153.855C212.484 154.511 211.392 155.07 210.21 155.512L210.199 155.516C208.544 156.159 206.809 156.564 205.06 156.707Z" fill="black"/>
</g>
<defs>
<clipPath id="clip0_286_2054">
<rect width="260" height="260" fill="white"/>
</clipPath>
</defs>
</svg>
