<svg width="250" height="200" viewBox="0 0 250 200" fill="none" xmlns="http://www.w3.org/2000/svg">
<path d="M10.0931 148.45C-4.74552 120.926 14.2244 54 49.0492 27.0416C116.258 -24.9856 258.088 44.5386 244.026 120.926C229.752 198.468 48.5527 219.786 10.0931 148.45Z" stroke="black" stroke-width="6"/>
<path fill-rule="evenodd" clip-rule="evenodd" d="M231.966 125.55C227.549 131.583 218.998 135.185 211.555 133.854C211.36 133.819 211.164 133.796 210.849 133.745C210.597 133.704 210.252 133.642 209.981 133.541C209.238 133.264 208.496 132.997 207.745 132.731L207.706 132.717C206.759 132.337 206.016 131.962 205.149 131.481L205.151 131.481C204.974 131.385 204.789 131.304 204.541 131.191C204.309 131.084 204.028 130.952 203.757 130.777C199.186 127.821 195.998 123.554 193.537 118.951C193.301 118.51 193.105 118.041 192.931 117.614C192.751 117.172 192.596 116.778 192.42 116.416C190.235 111.901 189.427 107.035 190.606 102.03C190.839 101.04 191.281 99.9147 191.58 99.0493L191.76 98.525C192.681 95.9063 193.918 93.4034 195.443 91.0709C198.769 85.9065 204.253 80.5378 210.633 78.999C213.931 78.2037 218.34 78.888 221.203 80.6874C225.069 83.0744 228.012 86.671 229.566 90.9096L229.567 90.9125C230.1 92.3801 230.349 93.5115 230.463 95.0765C230.503 95.6262 230.421 96.2218 230.378 96.6332C230.331 97.0867 230.329 97.3633 230.372 97.5518C230.383 97.57 230.403 97.6053 230.44 97.6578C230.516 97.7681 230.623 97.9038 230.748 98.0522C230.997 98.3499 231.268 98.6426 231.426 98.8162C236.619 104.524 238.447 112.756 235.099 119.981C234.703 120.836 234.201 122.151 233.639 123.146C233.168 123.979 232.589 124.81 231.966 125.55ZM227.223 95.3411C227.169 94.1396 226.956 92.994 226.499 91.886C226.324 91.4631 226.128 91.1222 225.881 90.6117C225.436 89.695 224.9 88.7687 224.28 88.0857C223.731 87.4799 223.229 86.9077 222.698 86.5009L222.699 86.5018C222.589 86.4176 222.464 86.3382 222.297 86.2356C222.159 86.15 221.984 86.0411 221.81 85.9173C220.42 85.0778 219.489 84.6499 217.932 84.2213C217.297 84.0461 216.805 83.8791 216.293 83.7975C215.824 83.7231 215.303 83.732 214.764 83.7919C216.325 85.1051 217.562 86.7569 218.376 88.6229L218.535 89.0162C218.884 89.9538 219.088 91.0123 219.295 91.7704L219.294 91.7713C219.305 91.81 219.324 91.8578 219.37 91.9661C219.408 92.0571 219.475 92.2139 219.524 92.3855C219.543 92.4531 219.556 92.5182 219.565 92.5735L219.584 92.5792C220.68 92.9316 221.73 93.2007 222.882 93.5427C224.001 93.8749 225.146 94.2573 226.262 94.7972C226.604 94.9624 226.924 95.1547 227.223 95.3411ZM213.246 93.5418C213.429 93.515 214.052 93.3724 214.718 93.1932C215.041 93.1062 215.354 93.0163 215.604 92.9355C215.733 92.8939 215.825 92.8615 215.886 92.8386C215.88 92.1916 215.667 91.3701 215.286 90.4823C214.839 89.4407 214.224 88.4416 213.703 87.7585C213.436 87.4077 212.796 86.6116 212.129 85.8964C211.794 85.5377 211.47 85.2176 211.194 84.9877C211.055 84.8727 210.946 84.7933 210.866 84.7453C210.848 84.735 210.833 84.7291 210.822 84.7235C210.736 84.7229 210.563 84.7443 210.284 84.8475C209.97 84.9635 209.608 85.147 209.222 85.3737C208.413 85.8482 207.724 86.3642 207.137 86.7438C207.134 86.7453 207.132 86.7479 207.13 86.7494C207.185 86.7694 207.24 86.7904 207.293 86.8131C207.853 87.0505 208.338 87.4122 208.699 87.6749C209.808 88.4822 210.744 89.3197 211.531 90.5761C211.78 90.9726 212.023 91.3978 212.232 91.8397C212.322 92.0307 212.417 92.2778 212.498 92.4803C212.587 92.7018 212.675 92.9129 212.77 93.1032C212.867 93.2973 212.953 93.4315 213.025 93.514C213.04 93.5312 213.053 93.543 213.062 93.5516C213.099 93.5541 213.158 93.5547 213.246 93.5418ZM207.888 96.8064C208.485 96.3659 209.34 95.6908 209.904 95.151C209.852 94.9711 209.802 94.7978 209.756 94.642C209.658 94.3121 209.561 94.0152 209.437 93.7294C209.008 92.748 208.341 91.942 207.539 91.1199C206.87 90.4353 206.031 89.6718 205.295 88.8468L204.986 88.4888L204.871 88.3507C204.485 88.678 204.116 89.0127 203.775 89.3566C202.996 90.1418 202.273 91.096 201.55 92.0486L201.52 92.0885C201.731 92.1377 201.923 92.2057 202.078 92.2663C202.189 92.3098 202.297 92.3562 202.389 92.3946C202.485 92.4351 202.562 92.4675 202.633 92.4945C203.406 92.79 204.325 93.196 205.073 93.798C205.364 94.0326 205.677 94.3769 205.962 94.7037C206.11 94.874 206.265 95.0547 206.416 95.2336C206.57 95.4144 206.721 95.5944 206.872 95.7691C207.18 96.1233 207.463 96.4312 207.712 96.6567C207.781 96.7194 207.84 96.7686 207.888 96.8064ZM202.531 100.937C203.223 101.202 203.865 101.331 204.518 101.245C204.655 101.071 204.845 100.796 205.054 100.451C205.238 100.145 205.401 99.8436 205.518 99.6066C205.291 99.148 204.926 98.6114 204.477 98.0659C203.925 97.3951 203.304 96.7756 202.802 96.3553C202.538 96.1346 202.259 95.9578 201.889 95.6979C201.634 95.5192 201.146 95.1946 200.715 94.877C200.468 94.6952 200.186 94.4773 199.935 94.2457C199.624 94.6975 199.328 95.1544 199.054 95.6238C198.741 96.158 198.533 96.7024 198.209 97.3905C197.988 97.859 197.768 98.322 197.558 98.7805C198.396 99.0165 199.225 99.3394 199.99 99.7069C200.958 100.172 201.678 100.609 202.531 100.937ZM218.51 104.139C218.558 104.031 218.61 103.895 218.664 103.736C218.734 103.528 218.798 103.308 218.858 103.102C218.886 103.008 218.915 102.907 218.944 102.812L219.028 102.554L219.029 102.551C219.158 102.195 219.311 101.848 219.485 101.511L219.486 101.508C219.864 100.782 220.362 100.173 220.927 99.638C221.323 99.2627 221.829 98.8467 222.462 98.5887C222.512 98.5682 222.579 98.5405 222.656 98.5098C222.582 98.4792 222.508 98.4464 222.43 98.4167C220.639 97.7341 218.7 97.4785 216.849 97.666L217.115 97.8369L216.873 98.5382C216.126 100.703 215.621 101.789 216.466 103.503C216.505 103.581 216.638 103.707 216.807 103.761C217.021 103.83 217.511 103.97 217.985 104.063C218.187 104.103 218.367 104.127 218.51 104.139ZM213.253 115.682C214.398 116.089 215.662 116.037 216.776 115.539C217.827 115.056 218.78 114.302 219.092 113.468C219.424 112.583 219.344 111.425 218.922 110.533C218.603 109.856 217.96 109.352 217.128 109.062C216.55 108.86 216.003 108.891 215.434 109.159C215.42 109.176 215.398 109.204 215.373 109.246C215.307 109.362 215.247 109.511 215.202 109.65C215.131 109.869 215.103 110.116 215.095 110.431C215.089 110.668 215.099 111.177 215.082 111.517L215.062 111.892L214.792 112.155C214.783 112.164 214.603 112.35 214.475 112.461C214.396 112.529 214.285 112.616 214.151 112.691C214.023 112.762 213.815 112.855 213.553 112.865L213.391 112.865C213.019 112.845 212.699 112.709 212.466 112.575C212.192 112.418 211.959 112.219 211.787 112.037C211.351 111.579 211.093 110.971 210.946 110.426C210.796 109.87 210.734 109.28 210.759 108.775C210.833 107.25 211.625 106.125 212.604 105.246C212.838 105.035 213.012 104.893 213.163 104.721C213.259 104.612 213.289 104.551 213.297 104.532C213.296 104.516 213.292 104.473 213.272 104.399C213.247 104.302 213.206 104.184 213.15 104.043C213.094 103.9 213.032 103.759 212.965 103.601C212.902 103.454 212.831 103.283 212.775 103.122C212.248 101.586 212.546 99.8922 213.447 98.5867C212.024 99.2545 210.779 100.267 209.869 101.639C208.312 103.988 207.75 107.027 208.303 109.726C208.853 112.404 210.478 114.679 213.253 115.682ZM222.667 106.894C222.886 106.786 223.109 106.665 223.342 106.533C223.745 106.306 224.209 106.031 224.676 105.798C225.259 105.507 225.845 105.338 226.387 105.2C227.655 104.877 228.851 104.788 230.11 105.123C228.955 103.153 227.49 101.427 225.66 100.078L225.205 99.7554L225.197 99.7497L225.188 99.7441C225.142 99.7118 225.078 99.6791 224.98 99.6361C224.925 100.049 224.714 100.328 224.613 100.463C224.339 100.828 223.947 101.179 223.759 101.369C223.408 101.725 223.072 102.126 222.833 102.507C222.612 102.861 222.281 103.565 221.979 104.336C221.774 104.859 221.609 105.359 221.502 105.748C221.738 105.968 221.956 106.188 222.154 106.389C222.334 106.572 222.502 106.74 222.667 106.894ZM199.298 108.233C200.239 108.29 201.303 108.045 202.334 107.706C202.478 107.658 202.626 107.617 202.743 107.584C202.869 107.548 202.97 107.52 203.061 107.488C203.1 107.474 203.134 107.46 203.164 107.448C203.223 107.118 203.298 106.611 203.358 106.077C203.4 105.7 203.43 105.337 203.443 105.046C203.445 104.986 203.444 104.932 203.444 104.882C203.276 104.822 203.083 104.785 202.728 104.688C202.133 104.526 201.414 104.334 200.761 104.06L200.76 104.06C200.198 103.824 199.249 103.306 198.383 102.745C197.945 102.461 197.507 102.154 197.136 101.85C196.939 101.688 196.736 101.507 196.555 101.314C196.536 101.377 196.513 101.44 196.495 101.505C196.307 102.154 196.224 102.761 196.063 103.541C195.932 104.175 195.803 104.629 195.734 105.148C195.624 105.975 195.547 106.81 195.521 107.635C195.867 107.574 196.222 107.6 196.507 107.639C196.865 107.687 197.248 107.773 197.6 107.859C197.981 107.951 198.284 108.033 198.609 108.109C198.927 108.183 199.152 108.224 199.298 108.233ZM231.887 115.47C232.252 113.501 232.29 111.434 231.875 109.54C231.81 109.315 231.723 109.085 231.617 108.824C231.537 108.627 231.444 108.4 231.355 108.166C230.848 108.229 230.355 108.237 229.915 108.243C229.451 108.249 229.047 108.252 228.649 108.294C227.991 108.362 227.082 108.621 226.214 109.018C225.331 109.422 224.624 109.909 224.265 110.357C224.1 110.563 224.038 110.74 224.042 110.909L224.048 110.981C224.09 111.324 224.152 111.691 224.23 112.021C224.55 112.159 224.923 112.185 225.58 112.237C226.733 112.328 227.782 112.529 228.758 112.96C229.743 113.394 230.606 114.039 231.419 114.955C231.516 115.064 231.71 115.266 231.887 115.47ZM197.711 117.059C198.062 116.854 198.461 116.729 198.77 116.644C199.195 116.528 199.399 116.493 199.674 116.409C201.527 115.847 203.317 114.855 204.33 113.398C204.265 113.105 204.147 112.661 203.993 112.192C203.886 111.867 203.774 111.565 203.671 111.332C203.659 111.304 203.647 111.278 203.635 111.254C203.433 111.28 203.219 111.326 202.963 111.388C202.697 111.453 202.363 111.539 202.026 111.595C201.064 111.753 199.892 111.852 198.739 111.742C197.736 111.647 196.677 111.387 195.786 110.809C195.829 110.985 195.877 111.176 195.915 111.361C196.09 112.229 196.148 112.843 196.347 113.55C196.492 114.06 196.697 114.554 196.92 115.135C197.167 115.779 197.431 116.424 197.711 117.059ZM227.173 124.737C227.378 124.506 227.577 124.269 227.771 124.024C227.964 123.781 228.247 123.471 228.435 123.251C228.656 122.992 228.81 122.789 228.894 122.633C229.699 121.146 230.435 119.717 230.945 118.2C230.508 118.062 230.127 117.824 229.833 117.625C229.486 117.39 229.296 117.239 229.052 117.092C227.933 116.419 226.735 115.816 225.647 115.719C225.261 115.685 224.868 115.718 224.354 115.752C223.965 115.778 223.73 115.785 223.546 115.817C223.365 116.063 223.138 116.422 222.903 116.834C222.769 117.07 222.64 117.309 222.525 117.532C222.9 117.803 223.239 118.091 223.571 118.383C225.104 119.735 226.337 121.33 226.889 123.452C226.953 123.699 227.089 124.214 227.173 124.737ZM203.803 125.043C203.892 124.9 204.002 124.761 204.108 124.637C204.321 124.387 204.591 124.115 204.85 123.866C205.111 123.615 205.384 123.363 205.599 123.162C205.719 123.051 205.811 122.963 205.879 122.897L206.015 122.761C206.454 122.25 207.015 121.443 207.468 120.59C207.853 119.866 208.107 119.203 208.194 118.703C208.121 118.62 208.036 118.531 207.94 118.434C207.776 118.271 207.496 118.009 207.3 117.804C206.857 117.342 206.632 117.041 206.285 116.733C206.159 116.815 206.012 116.916 205.855 117.032C205.5 117.295 204.974 117.715 204.723 117.879C203.983 118.364 202.752 119.039 201.481 119.443C200.845 119.644 200.155 119.792 199.487 119.791C199.355 119.791 199.22 119.784 199.085 119.77C199.454 120.393 199.852 120.988 200.286 121.543C201.347 122.898 202.476 124.133 203.715 125.207C203.749 125.138 203.779 125.081 203.803 125.043ZM217.327 129.699C218.993 129.549 220.638 129.151 222.203 128.49C222.384 128.414 222.559 128.311 222.769 128.176C222.96 128.053 223.226 127.871 223.492 127.724L223.496 127.722C224.013 127.439 224.505 127.122 224.973 126.775L224.928 126.655C224.918 126.644 224.899 126.623 224.868 126.589C224.814 126.531 224.648 126.367 224.518 126.141L224.465 126.041L224.304 125.673C224.256 125.552 224.212 125.434 224.172 125.325C224.087 125.092 224.021 124.905 223.945 124.72C223.787 124.336 223.568 123.942 223.328 123.523C223.059 123.055 222.392 122.213 221.613 121.413C221.231 121.021 220.842 120.659 220.486 120.374C220.154 120.109 219.898 119.952 219.733 119.879C219.69 119.889 219.627 119.902 219.543 119.927C219.372 119.978 219.167 120.048 218.952 120.127C218.592 120.258 218.244 120.403 218.033 120.497C218.075 120.73 218.134 120.952 218.203 121.189L218.467 122.112C218.531 122.356 218.583 122.601 218.63 122.813C218.678 123.034 218.721 123.229 218.775 123.415L218.804 123.517L218.81 123.622C218.843 124.209 218.847 124.831 218.77 125.463C218.684 126.164 218.488 127.044 218.196 127.883C217.982 128.498 217.696 129.148 217.327 129.699ZM214.349 129.707C214.335 128.798 214.637 127.956 214.831 127.348C215.392 125.586 215.548 124.006 214.967 122.391C214.777 121.864 214.628 121.464 214.426 121.156C214.059 121.039 213.421 120.858 212.765 120.706C212.35 120.61 211.958 120.531 211.649 120.489C211.608 120.484 211.568 120.481 211.532 120.477C211.484 120.586 211.437 120.703 211.392 120.818C211.353 120.918 211.302 121.052 211.265 121.138C210.744 122.352 210.014 123.573 209.136 124.599C208.968 124.795 208.795 124.976 208.639 125.135C208.477 125.301 208.338 125.442 208.206 125.589L207.992 125.827L207.688 125.891C207.683 125.894 207.675 125.898 207.666 125.903C207.64 125.92 207.61 125.941 207.561 125.975C207.519 126.005 207.455 126.05 207.388 126.093C207.098 126.28 206.635 126.589 206.132 126.779C206.06 126.806 205.984 126.831 205.906 126.855C206.925 127.511 208.017 128.07 209.199 128.512L209.21 128.516C210.865 129.159 212.6 129.564 214.349 129.707Z" fill="black"/>
</svg>
