<svg width="252" height="252" viewBox="0 0 252 252" fill="none" xmlns="http://www.w3.org/2000/svg">
<g id="medium-positive">
<path id="pebble-outline" d="M9.7517 205.314C-14.3228 161.333 30.4907 46.9309 73.1968 14.3702C141.435 -37.6572 261.545 101.403 247.268 177.791C232.775 255.332 48.8 276.651 9.7517 205.314Z" stroke="black" stroke-width="6"/>
<g id="glyph-wrapper">
<g id="glyph">
<path id="Vector" d="M67.6892 107.61C58.4113 110.327 52.583 113.474 50.2041 117.051C47.8252 120.628 48.2199 124.667 51.388 129.169C54.5562 133.67 55.9523 138.586 55.5763 143.916C55.2003 149.245 55.4802 153.485 56.4161 156.635C57.3519 159.785 59.1217 163.092 61.7252 166.557C64.3288 170.021 67.7422 173.339 71.9654 176.511C76.1886 179.683 82.9417 182.953 92.2247 186.323C101.508 189.693 110.612 191.422 119.539 191.511C128.465 191.601 136.53 189.635 143.734 185.615C150.937 181.594 156.7 176.837 161.022 171.343C165.344 165.849 168.012 161.792 169.026 159.172C170.04 156.552 166.996 156.929 159.893 160.304C152.79 163.678 147.418 165.756 143.775 166.537C140.132 167.319 133.874 166.255 125.001 163.346C116.129 160.436 110.4 157.167 107.815 153.538C105.23 149.908 103.411 146.504 102.358 143.324C101.305 140.145 100.894 135.59 101.125 129.658C101.355 123.727 98.5716 118.56 92.7737 114.157C86.9758 109.755 83.9178 106.158 83.5995 103.366C83.2813 100.574 83.6925 97.3679 84.833 93.7478C85.9735 90.1277 84.9963 89.83 81.9014 92.8549C78.8064 95.8797 76.305 99.3417 74.3973 103.241C72.4896 107.14 71.0362 109.078 70.0372 109.056L68.5388 109.023" stroke="black" stroke-width="6" stroke-linecap="round" stroke-linejoin="round"/>
<path id="Vector_2" d="M94.5735 112.341C102.178 109.766 108.122 109.005 112.406 110.057C116.69 111.109 118.019 113.249 116.392 116.478C114.765 119.707 111.902 122.016 107.805 123.407L101.66 125.493" stroke="black" stroke-width="6" stroke-linecap="round" stroke-linejoin="round"/>
<path id="Vector_3" d="M57.0951 109.953C48.1056 105.483 42.5877 103.508 40.5412 104.029C38.4947 104.549 37.0455 105.851 36.1936 107.934C35.3417 110.018 36.9512 112.59 41.0222 115.652L47.1287 120.246" stroke="black" stroke-width="6" stroke-linecap="round" stroke-linejoin="round"/>
<path id="Vector_4" d="M51.5778 124.917C57.2588 130.235 62.4611 133.767 67.1845 135.512C71.908 137.258 75.5589 138.148 78.1375 138.182L82.0053 138.234" stroke="black" stroke-width="6" stroke-linecap="round" stroke-linejoin="round"/>
<path id="Vector_5" d="M67.9625 120.243L67.7332 120.892" stroke="black" stroke-width="5.8" stroke-linecap="round" stroke-linejoin="round"/>
<path id="Vector_6" d="M77.769 123.1L77.7685 124.116" stroke="black" stroke-width="6" stroke-linecap="round" stroke-linejoin="round"/>
<path id="Vector_7" d="M52.4487 153.217C44.5337 153.633 41.8592 154.99 44.4251 157.288C46.9911 159.587 47.6948 161.886 46.5362 164.183C45.3776 166.481 47.0465 166.956 51.5428 165.606L58.2873 163.583" stroke="black" stroke-width="6" stroke-linecap="round" stroke-linejoin="round"/>
<path id="Vector_8" d="M68.3359 173.691C56.3375 179.848 53.178 183.151 58.8574 183.6C64.5367 184.049 67.9081 186.118 68.9716 189.807C70.0351 193.497 71.5002 193.568 73.367 190.022L76.1671 184.701" stroke="black" stroke-width="6" stroke-linecap="round" stroke-linejoin="round"/>
<path id="Vector_9" d="M127.594 194.341C131.054 203.532 133.28 206.551 134.27 203.401C135.261 200.25 137.134 199.062 139.888 199.836C142.643 200.611 143.027 199.158 141.041 195.477L138.063 189.956" stroke="black" stroke-width="6" stroke-linecap="round" stroke-linejoin="round"/>
<path id="Vector_10" d="M148.677 185.933C158.423 190.176 163.024 190.861 162.479 187.989C161.935 185.117 163.335 183.403 166.679 182.847C170.024 182.291 170.348 180.384 167.651 177.126L163.607 172.239" stroke="black" stroke-width="6" stroke-linecap="round" stroke-linejoin="round"/>
<path id="Vector_11" d="M142.294 164.716C146.636 152.973 149.47 147.94 150.795 149.617C152.121 151.294 153.005 153.61 153.448 156.566L154.113 161" stroke="black" stroke-width="6" stroke-linecap="round" stroke-linejoin="round"/>
<path id="Vector_12" d="M104.332 137.252C111.158 138.453 113.879 141.163 112.494 145.383C111.11 149.603 111.411 150.441 113.396 147.897C115.382 145.353 117.169 144.019 118.757 143.895C120.345 143.77 121.253 145.985 121.482 150.54C121.71 155.095 123.21 156.012 125.983 153.292C128.755 150.571 130.53 150.983 131.306 154.528C132.083 158.072 132.921 158.207 133.82 154.932C134.719 151.657 135.811 149.429 137.096 148.249C138.381 147.068 140.007 146.792 141.973 147.419C143.94 148.047 144.859 149.5 144.73 151.779L144.536 155.198" stroke="black" stroke-width="6" stroke-linecap="round" stroke-linejoin="round"/>
<path id="Vector_13" d="M80.7588 158.477C87.3955 164.739 93.3546 168.741 98.6359 170.485C103.917 172.228 108.033 174.162 110.983 176.285C113.933 178.409 116.46 179.428 118.564 179.342L121.719 179.214" stroke="black" stroke-width="6" stroke-linecap="round" stroke-linejoin="round"/>
</g>
</g>
<path id="fossil" fill-rule="evenodd" clip-rule="evenodd" d="M194.697 146.978C199.169 140.633 207.949 136.799 215.66 138.135C215.862 138.17 216.064 138.194 216.39 138.244C216.651 138.285 217.01 138.346 217.291 138.45C218.062 138.734 218.833 139.008 219.613 139.28L219.654 139.294C220.639 139.685 221.411 140.072 222.314 140.568L222.313 140.569C222.497 140.668 222.689 140.75 222.947 140.866C223.188 140.976 223.481 141.112 223.763 141.293C228.531 144.349 231.891 148.789 234.505 153.584C234.755 154.044 234.965 154.532 235.151 154.978C235.344 155.44 235.51 155.85 235.697 156.227C238.025 160.933 238.935 166.016 237.794 171.261C237.568 172.298 237.127 173.478 236.832 174.386L236.654 174.936C235.742 177.682 234.503 180.31 232.963 182.761C229.604 188.188 224.022 193.846 217.453 195.505C214.057 196.363 209.491 195.681 206.505 193.821C202.474 191.354 199.377 187.614 197.707 183.193V183.19C197.134 181.659 196.858 180.477 196.716 178.841C196.667 178.267 196.742 177.644 196.78 177.213C196.821 176.738 196.821 176.448 196.773 176.251C196.762 176.232 196.74 176.196 196.701 176.141C196.62 176.026 196.507 175.885 196.377 175.731C196.115 175.421 195.83 175.118 195.664 174.938C190.211 169.008 188.197 160.412 191.546 152.828C191.942 151.931 192.439 150.55 193.005 149.505C193.478 148.63 194.065 147.757 194.697 146.978ZM200.061 178.54C200.135 179.797 200.373 180.992 200.862 182.148C201.049 182.589 201.256 182.944 201.52 183.476C201.993 184.431 202.562 185.396 203.213 186.106C203.789 186.735 204.316 187.33 204.871 187.751C204.986 187.839 205.115 187.921 205.289 188.027C205.433 188.115 205.617 188.228 205.798 188.356C207.247 189.223 208.215 189.664 209.83 190.1C210.489 190.278 211.001 190.448 211.531 190.53C212.017 190.604 212.554 190.59 213.11 190.524C211.477 189.162 210.174 187.445 209.304 185.499L209.134 185.088C208.76 184.11 208.533 183.006 208.307 182.214C208.296 182.174 208.275 182.122 208.226 182.009C208.185 181.914 208.113 181.751 208.06 181.572C208.039 181.501 208.026 181.433 208.016 181.375L207.995 181.37C206.858 181.01 205.769 180.737 204.574 180.388C203.412 180.049 202.223 179.657 201.061 179.101C200.706 178.931 200.373 178.733 200.061 178.54ZM214.529 180.314C214.341 180.343 213.699 180.498 213.013 180.691C212.681 180.784 212.359 180.88 212.102 180.966C211.97 181.01 211.876 181.045 211.813 181.07C211.829 181.746 212.061 182.604 212.468 183.53C212.946 184.616 213.597 185.656 214.145 186.366C214.426 186.731 215.1 187.56 215.8 188.303C216.152 188.676 216.493 189.008 216.782 189.246C216.926 189.365 217.041 189.447 217.125 189.496C217.142 189.507 217.158 189.514 217.169 189.52C217.258 189.52 217.436 189.496 217.723 189.386C218.046 189.262 218.416 189.067 218.812 188.826C219.641 188.324 220.345 187.779 220.946 187.377C220.948 187.376 220.951 187.374 220.954 187.372C220.896 187.352 220.839 187.33 220.783 187.307C220.201 187.063 219.695 186.687 219.318 186.415C218.16 185.58 217.179 184.712 216.346 183.404C216.083 182.991 215.826 182.547 215.603 182.086C215.507 181.887 215.405 181.629 215.318 181.418C215.223 181.187 215.129 180.967 215.028 180.769C214.925 180.567 214.834 180.427 214.759 180.341C214.744 180.323 214.729 180.311 214.719 180.302C214.681 180.3 214.62 180.3 214.529 180.314ZM220.015 176.859C219.405 177.324 218.533 178.036 217.959 178.605C218.015 178.793 218.069 178.974 218.119 179.137C218.224 179.481 218.329 179.79 218.463 180.088C218.92 181.111 219.621 181.949 220.463 182.803C221.165 183.514 222.044 184.306 222.817 185.163L223.141 185.535L223.262 185.679C223.656 185.334 224.033 184.981 224.38 184.618C225.173 183.791 225.905 182.788 226.637 181.786L226.668 181.743C226.449 181.694 226.249 181.624 226.088 181.562C225.973 181.517 225.861 181.469 225.766 181.43C225.666 181.388 225.585 181.355 225.511 181.327C224.708 181.024 223.753 180.607 222.971 179.983C222.667 179.74 222.338 179.382 222.039 179.042C221.883 178.865 221.721 178.677 221.561 178.491C221.4 178.304 221.24 178.116 221.081 177.935C220.758 177.567 220.46 177.248 220.2 177.014C220.127 176.949 220.066 176.898 220.015 176.859ZM225.487 172.496C224.768 172.224 224.103 172.094 223.429 172.189C223.291 172.372 223.098 172.661 222.888 173.024C222.702 173.345 222.539 173.662 222.421 173.91C222.663 174.388 223.049 174.947 223.521 175.514C224.102 176.211 224.753 176.855 225.278 177.29C225.554 177.519 225.844 177.702 226.231 177.971C226.497 178.156 227.006 178.492 227.457 178.821C227.714 179.009 228.009 179.235 228.272 179.475C228.587 179 228.886 178.521 229.163 178.028C229.477 177.466 229.684 176.895 230.008 176.172C230.229 175.681 230.449 175.195 230.659 174.714C229.789 174.474 228.928 174.142 228.131 173.764C227.125 173.285 226.374 172.833 225.487 172.496ZM208.928 169.271C208.881 169.384 208.829 169.526 208.776 169.693C208.707 169.911 208.643 170.141 208.584 170.357C208.556 170.456 208.528 170.562 208.5 170.661L208.418 170.932L208.416 170.936C208.288 171.309 208.136 171.673 207.962 172.027L207.96 172.03C207.58 172.792 207.075 173.433 206.5 173.997C206.096 174.393 205.58 174.831 204.93 175.106C204.879 175.128 204.809 175.157 204.73 175.19C204.807 175.221 204.884 175.255 204.965 175.285C206.826 175.986 208.833 176.238 210.743 176.028L210.466 175.851L210.705 175.116C211.444 172.846 211.949 171.706 211.049 169.919C211.008 169.838 210.869 169.707 210.693 169.652C210.472 169.582 209.964 169.438 209.472 169.345C209.263 169.305 209.077 169.282 208.928 169.271ZM214.183 157.156C212.994 156.739 211.688 156.802 210.545 157.332C209.466 157.845 208.494 158.641 208.184 159.516C207.855 160.445 207.955 161.656 208.404 162.585C208.744 163.29 209.417 163.812 210.28 164.11C210.881 164.316 211.446 164.28 212.03 163.995C212.044 163.977 212.066 163.948 212.09 163.904C212.158 163.782 212.218 163.626 212.262 163.48C212.332 163.25 212.357 162.993 212.36 162.663C212.362 162.416 212.345 161.882 212.358 161.526L212.373 161.134L212.647 160.857C212.656 160.848 212.839 160.651 212.969 160.534C213.05 160.463 213.164 160.37 213.301 160.291C213.433 160.215 213.646 160.118 213.916 160.105L214.084 160.103C214.468 160.121 214.801 160.26 215.044 160.399C215.329 160.561 215.573 160.768 215.754 160.956C216.211 161.433 216.487 162.066 216.647 162.635C216.811 163.216 216.884 163.833 216.867 164.361C216.814 165.956 216.012 167.141 215.013 168.068C214.775 168.289 214.598 168.439 214.445 168.619C214.347 168.735 214.316 168.799 214.308 168.819C214.31 168.835 214.315 168.88 214.336 168.957C214.363 169.059 214.407 169.182 214.467 169.329C214.528 169.478 214.593 169.625 214.666 169.789C214.733 169.943 214.809 170.121 214.869 170.289C215.438 171.892 215.156 173.666 214.246 175.038C215.706 174.329 216.975 173.261 217.894 171.819C219.467 169.35 220.003 166.166 219.389 163.347C218.781 160.55 217.066 158.183 214.183 157.156ZM204.591 166.42C204.367 166.535 204.138 166.663 203.899 166.803C203.486 167.044 203.011 167.335 202.532 167.582C201.934 167.891 201.331 168.073 200.772 168.222C199.467 168.569 198.232 168.67 196.927 168.33C198.15 170.382 199.691 172.176 201.603 173.574L202.078 173.907L202.095 173.918C202.143 173.952 202.21 173.985 202.311 174.03C202.362 173.598 202.575 173.305 202.678 173.162C202.956 172.779 203.356 172.408 203.547 172.207C203.905 171.833 204.245 171.411 204.486 171.01C204.709 170.638 205.04 169.9 205.34 169.09C205.544 168.542 205.708 168.019 205.813 167.611C205.565 167.383 205.336 167.153 205.129 166.945C204.939 166.754 204.765 166.58 204.591 166.42ZM228.716 164.84C227.742 164.788 226.647 165.052 225.588 165.414C225.439 165.465 225.287 165.51 225.167 165.545C225.037 165.583 224.934 165.614 224.84 165.648C224.8 165.663 224.764 165.677 224.733 165.691C224.678 166.036 224.609 166.567 224.555 167.126C224.518 167.52 224.491 167.901 224.483 168.205C224.481 168.268 224.484 168.325 224.484 168.376C224.659 168.438 224.859 168.476 225.227 168.575C225.845 168.74 226.59 168.935 227.269 169.216C227.854 169.458 228.842 169.992 229.746 170.573C230.203 170.866 230.66 171.185 231.047 171.5C231.254 171.668 231.468 171.856 231.657 172.057C231.676 171.99 231.697 171.923 231.715 171.856C231.899 171.175 231.976 170.54 232.13 169.723C232.256 169.059 232.382 168.584 232.446 168.04C232.547 167.174 232.613 166.3 232.628 165.437C232.272 165.503 231.904 165.478 231.609 165.441C231.238 165.393 230.841 165.305 230.476 165.218C230.081 165.124 229.767 165.041 229.429 164.964C229.1 164.889 228.867 164.848 228.716 164.84ZM194.932 157.522C194.585 159.584 194.577 161.746 195.036 163.724C195.107 163.959 195.2 164.199 195.313 164.47C195.399 164.676 195.5 164.914 195.595 165.158C196.117 165.088 196.627 165.074 197.082 165.065C197.561 165.055 197.977 165.048 198.388 165.002C199.067 164.926 200.002 164.648 200.893 164.226C201.799 163.797 202.523 163.282 202.887 162.811C203.055 162.594 203.114 162.408 203.108 162.231L203.101 162.156C203.052 161.798 202.983 161.415 202.897 161.071C202.564 160.928 202.178 160.903 201.499 160.854C200.306 160.768 199.219 160.565 198.204 160.122C197.179 159.676 196.277 159.008 195.423 158.056C195.322 157.942 195.118 157.734 194.932 157.522ZM230.221 155.596C229.862 155.814 229.451 155.947 229.132 156.037C228.695 156.162 228.486 156.201 228.202 156.29C226.296 156.893 224.462 157.944 223.437 159.476C223.509 159.781 223.638 160.245 223.804 160.735C223.919 161.073 224.04 161.389 224.15 161.632C224.163 161.661 224.177 161.688 224.189 161.713C224.397 161.684 224.617 161.635 224.88 161.568C225.155 161.498 225.499 161.405 225.846 161.344C226.838 161.171 228.047 161.059 229.24 161.164C230.278 161.256 231.377 161.521 232.306 162.118C232.259 161.935 232.206 161.735 232.165 161.541C231.97 160.635 231.9 159.994 231.683 159.256C231.526 158.723 231.306 158.209 231.067 157.603C230.802 156.931 230.521 156.259 230.221 155.596ZM199.661 147.791C199.453 148.034 199.251 148.284 199.054 148.541C198.858 148.798 198.572 149.125 198.38 149.357C198.156 149.629 198 149.842 197.915 150.006C197.106 151.568 196.367 153.067 195.864 154.658C196.317 154.799 196.715 155.045 197.022 155.251C197.384 155.494 197.584 155.651 197.838 155.802C199.004 156.497 200.25 157.119 201.376 157.212C201.776 157.245 202.182 157.207 202.713 157.167C203.114 157.137 203.356 157.128 203.546 157.093C203.728 156.835 203.958 156.458 204.195 156.025C204.33 155.777 204.458 155.525 204.574 155.292C204.183 155.011 203.828 154.713 203.481 154.409C201.876 153.008 200.578 151.349 199.975 149.133C199.905 148.875 199.756 148.338 199.661 147.791ZM223.803 147.291C223.714 147.441 223.603 147.588 223.496 147.718C223.28 147.981 223.004 148.268 222.741 148.531C222.475 148.795 222.196 149.061 221.976 149.273C221.855 149.39 221.761 149.482 221.691 149.552L221.554 149.696C221.108 150.233 220.54 151.081 220.085 151.977C219.698 152.737 219.446 153.434 219.364 153.957C219.441 154.044 219.53 154.136 219.631 154.236C219.804 154.406 220.095 154.678 220.301 154.891C220.766 155.371 221.004 155.682 221.368 156.002C221.497 155.915 221.647 155.81 221.807 155.687C222.17 155.409 222.707 154.966 222.963 154.792C223.721 154.28 224.982 153.563 226.289 153.131C226.942 152.915 227.653 152.756 228.343 152.751C228.48 152.75 228.62 152.757 228.759 152.77C228.369 152.121 227.948 151.502 227.491 150.925C226.374 149.516 225.189 148.233 223.892 147.118C223.858 147.191 223.828 147.251 223.803 147.291ZM209.758 142.527C208.04 142.696 206.347 143.124 204.74 143.827C204.554 143.909 204.375 144.018 204.159 144.161C203.964 144.291 203.692 144.483 203.42 144.639L203.415 144.641C202.885 144.941 202.381 145.276 201.903 145.643L201.953 145.768C201.963 145.78 201.982 145.802 202.014 145.836C202.071 145.897 202.246 146.067 202.383 146.302L202.44 146.407L202.612 146.791C202.664 146.917 202.71 147.039 202.754 147.154C202.845 147.396 202.915 147.592 202.997 147.784C203.166 148.185 203.398 148.595 203.653 149.032C203.937 149.518 204.64 150.394 205.457 151.225C205.857 151.632 206.265 152.009 206.637 152.304C206.985 152.579 207.252 152.74 207.423 152.816C207.468 152.804 207.533 152.791 207.619 152.764C207.794 152.709 208.006 152.634 208.226 152.55C208.596 152.41 208.953 152.255 209.171 152.156C209.123 151.913 209.058 151.68 208.984 151.433L208.697 150.471C208.627 150.216 208.569 149.96 208.518 149.739C208.465 149.508 208.417 149.305 208.359 149.111L208.327 149.003L208.319 148.893C208.277 148.279 208.263 147.629 208.334 146.967C208.412 146.233 208.599 145.312 208.888 144.431C209.1 143.786 209.385 143.105 209.758 142.527ZM212.837 142.493C212.865 143.444 212.564 144.328 212.374 144.965C211.821 146.812 211.684 148.467 212.309 150.151C212.513 150.701 212.673 151.118 212.887 151.439C213.268 151.559 213.93 151.744 214.61 151.898C215.04 151.995 215.448 152.073 215.767 152.115C215.81 152.12 215.85 152.122 215.887 152.126C215.935 152.013 215.983 151.89 216.027 151.769C216.066 151.664 216.116 151.523 216.153 151.433C216.673 150.159 217.41 148.877 218.301 147.796C218.471 147.59 218.648 147.401 218.806 147.233C218.971 147.058 219.112 146.909 219.246 146.754L219.464 146.503L219.776 146.434C219.781 146.431 219.79 146.427 219.798 146.421C219.826 146.403 219.856 146.381 219.906 146.345C219.95 146.313 220.015 146.266 220.084 146.22C220.381 146.023 220.855 145.695 221.372 145.493C221.446 145.465 221.524 145.437 221.604 145.412C220.541 144.734 219.403 144.158 218.175 143.704L218.164 143.7C216.444 143.04 214.646 142.631 212.837 142.493Z" fill="black"/>
<path id="Vector 16" d="M54.6968 32.3724C72.8562 30.0292 90.9471 16.4946 113.197 22.87C135.8 29.3467 137.982 50.8615 158.197 62.87C179.858 75.7374 189.907 73.133 219.197 83.8724" stroke="black" stroke-width="6"/>
<path id="Vector 17" d="M37.6968 60.3701C37.6968 60.3701 79.4922 35.1436 103.697 41.3676C131.252 48.4532 126.961 64.3113 151.697 78.3701C179.505 94.175 192.407 75.6307 221.697 86.3701" stroke="black" stroke-width="6"/>
</g>
</svg>
