<svg width="335" height="400" viewBox="0 0 335 400" fill="none" xmlns="http://www.w3.org/2000/svg">
<path d="M112.475 13.0536C136.045 6.94066 159.376 10.815 178.886 17.4863C198.628 24.2372 217.47 34.8634 233.99 46.2275C266.665 68.7036 295.702 97.8723 310.859 118.67C325.014 138.092 329.182 162.297 329.844 182.729C330.538 204.162 327.545 227.152 322.455 248.891C317.337 270.749 309.791 292.66 300.536 312.073C291.534 330.958 279.743 349.959 264.998 363.827C237.54 389.652 202.944 393.599 172.65 387.407C143.231 381.394 114.958 365.604 91.3253 346.883C67.4115 327.938 45.763 304.038 30.1798 278.646C15.0637 254.016 3.09834 223.746 5.25009 193.099C6.87653 169.933 15.0518 132.698 29.6085 98.9453C36.9651 81.8874 46.6659 64.0256 59.2921 48.8788C71.8049 33.8682 89.2781 19.0698 112.475 13.0536Z" fill="#FF00FF"/>
</svg>
