<svg width="350" height="350" viewBox="0 0 350 350" fill="none" xmlns="http://www.w3.org/2000/svg">
<path d="M138.7 15.8184C149.697 14.2297 159.726 16.7951 167.804 22.0078L170.274 21.1026C178.135 18.2245 187.363 17.4576 196.681 20.0908C202.399 21.7065 228.036 29.255 255.043 42.6885C268.555 49.4097 283.566 58.166 296.889 69.1973C309.953 80.0152 323.783 94.9871 331.235 114.734C338.54 134.093 333.831 152.577 328.933 164.624C323.768 177.33 315.773 189.419 307.434 200.106C290.61 221.671 267.307 243.912 244.411 263.206C221.301 282.68 196.983 300.508 177.062 313.08C167.272 319.259 157.477 324.848 148.852 328.667C144.735 330.49 139.187 332.68 133.127 333.926C130.096 334.549 125.413 335.264 119.885 334.902C114.556 334.554 105.204 332.98 96.2645 326.027C87.2483 319.016 80.5926 309.343 76.2518 302.376C71.2946 294.42 66.4588 285.149 61.9129 275.492C52.7878 256.107 43.685 232.713 36.0418 209.753C28.4332 186.896 21.8526 163.216 18.1942 143.308C16.3923 133.502 15.0381 123.241 15.0008 113.838C14.9822 109.142 15.2781 103.481 16.5194 97.6221C17.628 92.3892 20.1454 83.7759 26.743 75.7197C64.6552 28.2207 124.892 17.8133 138.7 15.8184Z" fill="#FF00FF"/>
</svg>
