<svg width="337" height="270" viewBox="0 0 337 270" fill="none" xmlns="http://www.w3.org/2000/svg">
<path d="M146.551 12.7088C159.529 11.0948 171.594 15.4082 180.409 23.3211L195.077 22.1248L195.96 22.0623C204.826 21.5239 214.481 23.6981 222.989 29.5926L223.835 30.1941L226.607 32.2312C235.034 38.4691 256.511 54.7339 276.799 73.1834C288.248 83.5945 300.616 95.8604 310.091 108.224C314.807 114.378 319.764 121.78 323.377 129.977C326.757 137.642 330.839 150.202 328.109 164.741C324.426 184.351 311.252 198.593 302.792 206.531C293.069 215.653 281.643 223.614 271.554 229.928C251.212 242.659 231.072 251.911 227.414 253.566C222.275 255.891 217.029 257.062 211.852 257.307C206.731 257.55 169.399 259.175 130.463 256.396C111.178 255.02 89.7173 252.451 71.0162 247.427C61.6677 244.915 51.6122 241.427 42.4029 236.323C33.4935 231.385 22.3553 223.265 15.0962 210.066C11.0955 202.791 9.9809 195.827 9.55717 192.531C9.04207 188.523 8.96094 184.701 9.01225 181.554C9.11549 175.227 9.826 168.343 10.7378 161.776C12.5879 148.453 15.7999 132.735 19.4673 117.782C23.1304 102.847 27.5204 87.5647 31.9732 75.1971C34.1533 69.1418 36.7139 62.7546 39.6177 57.1561C41.046 54.4023 43.0655 50.8425 45.7447 47.3113C47.7125 44.7178 53.39 37.5087 63.313 33.0125L64.647 32.4197C78.5745 26.3492 96.7914 21.9877 110.46 19.1219C125.583 15.9508 139.467 13.7587 145.43 12.8631L146.551 12.7088Z" fill="#FF00FF"/>
</svg>
