<svg width="337" height="270" viewBox="0 0 337 270" fill="none" xmlns="http://www.w3.org/2000/svg">
<path d="M97.3622 12.4435C113.519 11.1895 131.229 12.7257 148.37 15.4786C182.876 21.0204 221.693 32.6028 254.815 45.1075C303.81 63.6047 322.089 110.938 320.947 149.9C319.845 187.515 299.786 234.141 252.429 248.683C224.933 257.125 179.693 260.315 141.135 258.511C121.386 257.587 100.917 255.258 83.4101 250.674C74.6831 248.389 65.3402 245.2 56.7773 240.521C48.631 236.069 37.7723 228.412 30.7812 215.548C23.5292 202.204 20.0318 185.841 18.1864 171.955C16.2093 157.077 15.5939 140.681 16.2558 124.806C16.9136 109.026 18.8833 92.5355 22.6376 77.7101C25.9793 64.514 32.2854 46.077 45.9101 32.8653L46.6523 32.1573C62.3173 17.4633 82.8022 13.5735 97.3622 12.4435Z" fill="#FF00FF"/>
</svg>
